<svg width="876" height="876" viewBox="0 0 876 876" fill="none" xmlns="http://www.w3.org/2000/svg">
<g clip-path="url(#clip0_429_245)">
<path d="M498.944 805.181C466.052 814.545 386.816 840.207 379.823 790.898C318.543 812.352 220.875 779.283 321.21 732.523C316.232 700.402 318.425 618.794 316.054 585.191C270.302 568.005 291.815 501.451 284.051 462.988C290.748 375.04 304.023 251.829 404.24 223.975C410.936 197.72 366.429 186.638 378.934 138.16C457.578 -69.8587 672.056 172.296 495.803 218.522L494.855 227.767C603.724 275.712 629.207 443.194 557.912 532.505C564.728 540.921 567.81 550.759 567.691 561.426C594.538 556.863 581.381 606.29 560.638 600.956C550.623 608.245 534.266 610.438 522.768 604.808L524.25 671.184C522.591 682.919 535.51 747.695 522.709 755.162C527.273 779.935 522.887 799.255 499.003 805.063L498.944 805.181ZM534.325 179.941C532.784 174.37 526.739 172.829 522.057 175.2C506.826 172.059 519.568 138.989 525.85 127.492C512.042 125.181 477.194 109.061 494.025 101.416C485.787 100.704 441.398 97.6227 461.311 85.1179C445.665 85.4734 429.287 81.3943 414.576 90.1121C411.261 92.0763 402.565 96.4052 397.14 109.727C342.38 178.415 450.881 261.489 503.922 196.95C509.078 186.875 513.642 205.247 528.043 195.409C532.606 192.268 536.162 186.401 534.325 179.882V179.941ZM487.506 233.22L488.691 218.819C464.334 229.545 436.242 227.827 413.07 214.492C392.801 259.77 468.364 253.962 487.447 233.22H487.506ZM513.879 487.583C526.68 435.134 502.678 383.752 494.973 333.969C532.251 393.293 518.383 469.389 523.895 534.757C638.453 505.718 594.36 268.778 494.025 234.879C477.431 259.77 406.847 267.652 402.758 230.849C355.109 246.673 327.196 286.262 313.209 332.784C305.979 368.698 260.523 509.807 316.943 510.637C315.639 441.357 316.943 368.995 343.908 303.27C346.575 300.426 347.346 302.5 347.938 305.167C340.945 342.918 304.675 453.921 332.411 480.116C389.068 502.636 455.266 504.355 513.82 487.642L513.879 487.583ZM407.381 575.176L417.93 738.746C418.167 742.005 418.819 745.798 419.945 748.287C447.028 760.2 506.234 769.8 521.524 740.464C512.634 661.643 520.457 574.287 513.345 495.05C453.607 510.518 380.415 511.407 324.647 483.079C323.462 518.104 323.581 595.029 324.055 630.647C329.626 708.284 300.527 758.955 410.877 736.494C409.573 717.825 401.869 583.888 399.439 569.19C397.839 564.567 383.26 557.219 379.704 554.078C372.948 538.965 413.011 564.449 407.44 575.176H407.381ZM302.779 532.92C309.298 537.484 306.157 555.263 316.291 557.1L316.706 516.86C309.357 516.978 303.134 515.022 296.082 512.533C290.867 535.587 291.044 568.42 316.054 578.554L316.232 562.849C302.719 565.516 296.852 533.098 302.719 532.979L302.779 532.92ZM557.675 593.192C573.143 604.275 585.055 560.537 567.987 568.183C565.38 573.102 570.358 580.213 565.913 580.628C553.823 572.153 566.269 547.144 552.341 535.646C543.926 539.854 534.444 542.106 524.309 541.395C527.51 549.396 512.753 608.779 535.273 601.786C528.102 595.207 522.531 580.391 530.71 585.606C535.807 592.481 543.511 606.053 553.705 598.052C535.51 582.406 543.393 576.361 557.675 593.192ZM382.134 783.076C389.009 768.852 401.336 760.851 414.196 752.791C412.892 749.828 412.003 747.161 411.173 743.487C386.164 752.14 351.198 749.295 326.247 737.383C229.232 782.72 329.092 801.625 382.075 783.076H382.134ZM498.47 797.714C517.731 793.506 518.739 777.327 515.894 758.422C482.646 773.119 447.68 761.029 416.27 759.548C329.922 819.049 457.222 820.412 498.47 797.714Z" fill="#161616"/>
<path d="M425.929 163.466C430.078 178.934 405.779 175.911 408.268 162.873C410.283 153.865 423.44 154.635 425.929 163.466Z" fill="#161616"/>
<path d="M487.623 170.044C475.356 171.525 459.236 158.369 453.487 144.738C449.279 134.663 453.546 125.536 462.969 121.032C477.786 113.98 494.676 118.78 502.44 133.596C506.055 140.53 507.596 148.531 504.632 156.235C501.906 163.288 495.328 169.096 487.623 170.044ZM461.369 141.538C466.466 133.596 473.756 132.885 473.518 128.203C468.54 125.181 461.369 127.314 459.354 133.003C458.465 135.611 459.888 139.641 461.369 141.538ZM491.298 160.087C492.72 158.546 492.542 153.983 490.824 153.094C486.734 152.324 482.467 156.65 481.578 159.91C483.771 162.754 488.927 162.754 491.298 160.147V160.087Z" fill="#161616"/>
<path d="M399.192 123.655C405.584 130.399 420.987 130.89 430.625 126.111C437.725 122.559 439.495 115.441 436.146 108.395C430.867 97.3329 418.894 91.8387 407.544 96.3018C402.242 98.3994 397.643 102.09 395.78 107.79C394.083 113.015 395.186 119.41 399.192 123.655ZM427.56 120.532C428.302 113.67 424.425 109.756 426.733 107.276C431.007 108.004 434.156 112.649 432.68 116.775C431.984 118.65 429.295 120.196 427.56 120.532ZM401.689 116.363C401.582 114.823 403.801 112.379 405.205 112.716C407.922 114.264 408.378 118.722 407.379 120.957C404.795 121.475 401.82 118.986 401.661 116.396L401.689 116.363Z" fill="#161616"/>
</g>
<defs>
<clipPath id="clip0_429_245">
<rect width="820.01" height="820.01" fill="white" transform="translate(28 28)"/>
</clipPath>
</defs>
</svg>
