<svg width="876" height="876" viewBox="0 0 876 876" fill="none" xmlns="http://www.w3.org/2000/svg">
<path d="M792.205 513.625C802.815 531.539 807.88 537.137 820.195 564.008C823.554 578.563 828.118 588.639 830.805 602.075C835.284 624.467 842.002 625.587 837.523 661.414C828.684 694.28 818.476 722.698 781.879 704.449C767.504 697.512 772.791 673.895 758.334 665.967C736.029 647.222 719.507 621.21 700.093 599.162C697.284 592.969 663.248 572.985 675.805 570.342C715.459 591.235 736.442 638.882 772.213 666.05C787.331 680.831 809.14 656.884 819.136 645.406C841.111 625.504 804.432 553.249 792.205 530.622C776.426 505.354 754.865 483.388 727.85 469.68C702.902 457.046 702.736 459.44 693.153 483.636C682.496 510.886 670.435 495.527 658.374 509.896C638.877 532.274 615.085 550.937 584.766 554.983C550.235 564.149 510.829 546.725 491.332 517.327C485.88 506.675 479.354 495.527 477.04 483.801C477.784 467.863 465.062 475.873 457.709 481.902C416.238 507.088 362.871 517.906 316.526 502.876C356.427 583.555 366.341 659.692 260.019 684.96C253.823 689.832 231.6 685.786 232.096 690.823C254.897 696.769 280.094 700.733 303.886 700.155L302.564 700.402C347.67 702.219 395.668 698.09 428.63 663.903C436.23 658.288 445.731 651.351 452.092 644.332C456.305 639.46 467.375 634.67 460.353 627.569C455.231 619.394 433.174 573.563 440.443 567.122C447.465 563.736 449.944 578.93 453.992 582.564C460.022 591.069 468.118 599.245 473.653 608.163C488.441 627.817 507.772 644.993 528.673 658.37C573.283 688.181 630.864 696.769 682.909 686.282C696.623 681.822 711.658 678.519 724.546 672.078C731.32 668.115 744.125 653.911 750.734 663.573C786.587 702.384 733.798 752.344 692.823 721.873C676.879 713.862 664.57 682.153 651.434 711.055C638.299 736.406 608.807 763.079 578.818 748.793C559.818 741.774 557.174 718.735 566.509 702.384C580.388 687.273 565.518 687.685 553.87 681.822C527.186 671.17 502.898 651.847 482.906 631.45C471.175 630.789 465.888 647.387 455.974 653.085C425.821 679.097 392.776 707.752 350.231 707.421C284.059 714.606 214.004 702.549 157.167 670.922C136.762 677.693 119.248 663.573 105.122 650.525C87.1948 647.305 91.5732 680.336 55.5544 651.268C38.2885 630.872 24.4923 604.695 55.1413 588.757C53.9848 572.82 40.1885 553.331 48.7801 536.155C54.8108 522.117 68.2766 519.722 82.238 522.695C79.5118 505.684 83.312 487.104 100.991 480.085C106.443 476.534 115.778 478.021 121.974 477.69C137.092 478.351 110.657 441.521 148.823 431.034C164.354 425.584 180.051 431.281 192.855 436.649C187.899 411.876 212.93 375.542 238.953 389.249C246.884 393.543 253.988 400.232 260.184 406.756C263.736 411.463 273.154 404.196 271.75 399.489C267.784 396.434 263.158 390.488 261.423 385.699C250.436 369.596 248.866 349.034 243.992 330.537C221.357 170.088 411.86 65.3795 539.413 159.766C577.827 185.613 598.067 231.691 607.32 275.705C603.519 325.912 618.39 300.065 646.395 325.995C664.735 339.125 673.161 362.247 681.753 382.148C684.066 396.847 686.957 419.638 686.71 434.502C691.584 434.254 695.714 434.915 699.597 437.557C704.554 441.851 700.423 453.33 706.289 454.403C720.994 458.037 737.433 463.569 750.238 472.736C756.599 477.938 764.613 484.049 771.056 488.921M328.091 446.641C461.179 518.153 619.216 420.216 595.423 266.291C577.414 186.191 515.207 137.387 433.587 133.671C330.9 127.643 233.253 225.828 251.51 329.876C252.832 356.466 266.958 379.34 277.285 402.379C271.419 416.913 253.41 423.437 243.91 435.493C233.005 443.008 221.357 451.348 230.774 465.386C237.301 524.594 253.988 481.406 283.316 463.404C297.773 454.899 310.66 429.795 328.009 446.558L328.091 446.641ZM230.444 436.236C235.648 430.869 241.844 425.253 247.71 420.629C258.201 415.096 246.553 409.564 242.423 404.113C211.856 377.028 187.568 431.612 209.047 453.66C215.078 448.045 223.835 441.191 230.361 436.154L230.444 436.236ZM541.56 544.083C585.51 558.616 629.46 530.457 655.234 496.353C663.496 482.067 672.831 464.313 672.996 447.714C655.4 443.916 668.039 420.381 650.443 417.904C640.777 414.601 618.72 415.509 608.476 415.261C597.654 416.417 588.401 407.417 577.992 408.985C574.605 420.712 554.365 432.85 557.918 445.072C562.709 450.687 560.726 459.11 557.009 463.239C514.299 469.845 529.416 467.616 491.993 490.737C484.393 512.703 522.725 538.963 541.56 544.083ZM233.253 594.703C255.641 604.034 275.88 575.71 264.976 556.304C257.045 534.669 238.375 518.649 224.165 500.729C209.791 484.957 207.147 459.853 190.129 446.724C172.037 433.924 134.697 434.667 133.21 462.661C134.118 485.865 151.715 505.932 164.024 525.255C184.925 550.028 203.595 580.252 233.583 594.868L233.253 594.62V594.703ZM675.557 492.141C682.662 485.122 703.232 444.577 686.379 444.494C682.249 452.504 680.018 470.671 676.218 478.929C675.474 483.388 663.661 497.426 675.557 492.141ZM403.516 494.371C490.093 469.35 374.023 487.187 330.735 457.706C326.687 455.229 321.152 451.348 317.517 448.127C311.321 451.926 302.895 460.927 295.873 464.56C306.447 511.052 367.497 504.941 403.516 494.371ZM550.565 457.128C557.835 436.566 520.329 467.781 550.565 457.046V457.128ZM169.476 653.829C160.637 669.518 192.36 668.775 201.612 673.977C231.683 683.887 264.232 675.712 291.577 662.747C370.719 621.458 316.608 532.357 290.503 474.057C274.641 474.635 261.506 495.362 247.875 503.537C241.762 506.014 241.927 511.052 247.297 514.107C251.179 520.383 258.615 528.558 262.828 534.586C295.79 576.04 262.58 626.082 214.582 596.437C218.63 613.035 222.017 632.111 207.973 644.827C193.351 660.352 168.32 635.001 169.311 653.994H169.394L169.476 653.829ZM196.986 639.295C223.009 630.129 203.43 596.767 198.06 579.839C176.994 556.304 154.771 532.109 140.066 504.28C120.24 461.918 70.2593 496.105 99.0083 543.752C114.126 571.416 161.298 648.874 197.151 639.625L196.903 639.295H196.986ZM160.141 637.396C134.614 613.861 111.565 586.032 94.8777 555.066C65.633 492.141 39.2798 555.891 67.9462 591.235C82.0728 611.466 98.0995 631.698 116.522 648.131C129.244 669.849 173.855 668.197 160.224 637.313L160.141 637.396ZM84.5512 649.204C90.8297 643.919 97.2734 638.056 87.1121 632.606C80.2554 624.183 72.3246 614.109 64.9721 605.19C60.7589 596.685 56.7108 593.216 51.0932 602.961C44.9799 608.411 40.932 615.017 46.5496 622.449C53.2411 634.01 70.1767 664.646 84.5512 649.204ZM792.04 691.319C796.17 687.025 800.218 693.466 800.714 697.512C820.624 712.624 824.506 668.445 826.159 655.728C821.037 651.269 816.906 661.508 813.354 664.068C804.266 672.987 792.288 680.088 779.235 679.84C775.104 686.447 788.24 708 792.122 691.319H792.04ZM690.675 709.734C746.273 757.959 771.717 657.132 732.064 675.877C720.167 684.135 704.719 687.438 691.418 693.135C669.031 694.87 677.457 700.32 690.675 709.734ZM631.607 722.368C633.425 717.909 651.352 699.494 641.851 699.494C622.603 702.302 600.793 694.539 581.462 693.631C545.856 737.975 604.511 761.345 631.855 722.451H631.607V722.368Z" fill="#161616"/>
<path d="M403.186 440.117C301.656 435.823 236.97 317.902 290.586 230.948C353.618 149.278 471.175 144.241 526.773 236.563C587.989 326.985 511.655 453.742 402.525 440.2H403.186V440.117ZM316.608 390.818C397.816 463.982 313.386 376.697 387.159 229.544C400.542 190.154 444.492 168.271 395.668 177.685C285.877 195.109 245.479 306.176 316.608 390.818ZM527.764 357.704C522.229 396.764 366.258 365.549 418.138 288.504C434.743 263.813 478.115 238.545 524.047 274.879C526.277 276.613 540.9 294.285 536.108 278.182C530.904 263.814 523.882 247.463 515.455 234.581C496.537 206.835 466.466 187.099 434.083 178.346C422.93 177.768 410.125 210.303 403.268 219.387C374.519 270.337 359.732 330.371 362.293 388.919C362.706 398.085 365.102 412.206 365.597 421.454C384.02 430.703 410.29 431.777 430.778 431.116C473.323 426.987 514.794 399.324 527.764 357.622V357.704ZM443.665 331.94C462.749 340.446 449.861 315.342 467.871 293.129C478.528 279.999 367.91 298.331 454.488 336.234L443.665 331.94ZM532.639 344.74C535.778 335.161 549.161 290.651 531.399 293.872C540.652 313.36 505.707 358.117 532.639 344.74Z" fill="#161616"/>
<path d="M648.377 476.534C630.368 493.545 571.879 479.424 593.193 446.063C617.067 408.82 673.491 443.255 648.377 476.534ZM601.454 467.368C606.989 470.258 602.528 463.487 605.337 457.706C615.746 435.658 583.444 456.303 601.454 467.368ZM644.247 465.056C638.629 452.009 633.342 464.478 634.333 471.662C638.381 474.139 644.412 468.442 644.247 465.056Z" fill="#161616"/>
<path d="M538.337 525.916C537.842 518.814 562.708 505.932 574.274 513.777C574.934 514.19 580.635 518.814 580.304 523.439C580.056 527.898 574.934 530.871 573.282 531.779C560.56 539.046 538.75 532.274 538.337 525.833V525.916Z" fill="#161616"/>
<path d="M571.134 518.649C576.834 519.062 573.778 528.063 568.16 523.273C564.112 519.805 572.126 523.604 571.134 518.649Z" fill="white"/>
</svg>
