<svg width="876" height="876" viewBox="0 0 876 876" fill="none" xmlns="http://www.w3.org/2000/svg">
<g clip-path="url(#clip0_428_33)">
<g clip-path="url(#clip1_428_33)">
<path d="M528.373 278.114C527.68 284.416 514.004 285.362 504.74 276.476C503.732 275.53 503.353 272.19 503.795 271.056C505.748 265.699 519.298 265.699 526.356 272.631C527.617 273.829 528.562 276.728 528.436 278.114H528.373Z" fill="#161616"/>
<path d="M398.54 753.97L398.485 753.99L398.548 753.927L398.54 753.97Z" fill="#161616"/>
<path fill-rule="evenodd" clip-rule="evenodd" d="M512.302 70.6472C553.959 50.9847 603.368 80.1003 628.135 115.644C647.042 142.807 648.68 180.809 636.013 210.807C632.421 219.252 627.127 226.059 620.005 231.794L609.733 249.755C600.595 265.762 586.352 277.799 571.479 287.189C581.877 303.008 588.873 319.771 592.717 337.606L600.28 372.836C604.187 391.238 606.96 417.14 623.534 429.114L659.268 454.953L681.451 472.158C690.464 479.153 695.317 489.615 698.279 500.833L716.555 505.118L726.827 464.343C728.34 458.482 731.428 454.196 738.297 454.196C742.456 454.196 747.183 455.331 750.838 457.473C755.061 459.931 756.7 464.28 755.628 468.881L750.398 491.064L743.843 517.785C752.54 525.6 759.347 535.621 763.38 546.839C767.413 558.056 759.914 563.98 761.616 570.219C765.586 584.588 758.023 594.608 750.208 604.503C746.301 609.986 745.544 617.927 738.927 621.078C732.31 624.229 724.558 625.678 718.004 621.897L710.883 633.115L700.169 648.114C699.476 649.059 697.018 650.193 695.947 649.941C694.875 649.689 693.237 647.546 693.111 646.412L689.707 616.603C689.077 611.246 692.417 605.007 693.615 599.65C674.456 595.995 662.356 590.953 649.059 576.899C637.022 579.042 620.699 574.127 610.048 567.51C581.121 549.548 554.275 528.94 529.507 505.496C504.74 482.052 494.215 453.188 486.463 420.48C473.985 441.025 465.351 463.02 458.734 486.086C456.528 493.711 453.881 500.518 449.785 507.072L466.738 533.163C478.649 551.502 491.316 576.711 492.135 598.453C506.693 610.805 520.936 623.094 531.902 638.975C541.985 653.533 554.085 665.445 569.966 673.637C577.655 677.608 584.524 684.981 583.705 693.489L729.6 644.963L765.207 660.467L764.01 671.873L719.391 688.322L719.517 688.448L574.063 741.575C572.046 742.331 568.392 742.961 567.509 744.347L564.42 752.541C559.694 761.237 549.107 762.687 540.599 757.961C537.826 763.507 534.233 768.233 528.309 769.43C523.393 770.439 518.414 768.863 513.562 766.405C511.86 771.825 507.953 775.607 502.218 776.93C496.483 778.254 490.937 776.93 485.454 773.842C484.446 775.795 482.682 779.513 480.917 781.026C474.615 786.509 466.485 785.311 458.986 782.223L433.147 791.551C430.311 792.559 427.538 792.307 425.143 790.227L399.115 768.296L389.221 767.162L352.227 757.897C338.488 754.431 323.994 744.032 320.78 729.348C317.566 714.664 317.628 698.972 318.322 683.406L319.141 665.382C318.259 644.648 313.721 625.111 307.986 605.385L301.179 582.005C296.957 592.466 295.949 602.36 294.815 613.136C292.798 631.413 290.844 649.311 284.101 666.516L270.803 700.296C268.849 705.211 267.652 710.253 266.958 715.421L282.651 734.138C290.339 745.104 295.508 757.961 295.193 771.321C294.562 796.341 273.135 809.764 249.943 811.214C222.402 812.978 191.9 811.592 169.086 795.521C153.709 784.682 140.033 772.456 126.988 759.032C121.694 753.612 116.967 747.94 114.257 740.882C108.522 725.693 110.665 708.11 116.148 692.67L136.946 633.997L146.651 603.495C150.306 591.962 150.684 579.925 149.991 567.761L148.1 533.541C146.02 495.791 148.731 459.238 162.785 424.135C161.902 417.266 161.586 410.333 163.099 403.401C172.3 361.618 201.983 309.373 226.12 273.261C234.187 261.161 242.065 249.881 252.653 239.734C290.151 204.001 342.774 179.171 394.703 176.209C391.048 163.667 394.704 151 403.527 141.547C405.922 128.186 411.467 116.464 419.219 105.309C431.571 88.6717 447.326 74.1763 467.745 69.1345C482.619 65.4163 497.744 65.2904 512.302 70.6472ZM166.692 435.668C154.403 475.434 154.654 509.34 157.175 549.989C159.381 584.84 158.877 597.003 147.029 630.342L125.728 690.275C117.409 713.719 114.384 735.462 132.849 753.36C145.201 765.334 157.302 776.615 171.166 786.887C191.963 802.265 215.786 803.903 241.372 803.651C262.422 803.399 284.668 795.899 286.937 773.842C288.827 755.628 277.357 738.738 264.753 725.819C262.422 723.424 260.404 721.597 256.812 720.526C232.549 713.279 215.785 717.06 192.405 723.236C192.279 721.093 193.602 719.959 195.367 718.887C214.777 709.623 239.482 707.039 258.514 713.908C261.539 701.871 265.384 691.409 270.047 680.633C277.169 664.121 282.273 647.672 284.857 629.648L289.961 593.726L293.806 580.492C296.453 574.946 300.738 571.48 306.725 569.968C296.389 548.981 287.378 528.688 280.004 506.693C243.263 495.79 205.135 479.342 178.287 451.298C173.813 446.508 170.158 441.781 166.692 435.668ZM452.62 779.073C450.1 775.67 447.39 775.859 444.239 776.993L431.382 781.594L431.947 786.864L452.62 779.073ZM402.329 760.04C401.888 762.75 402.581 765.901 404.346 766.405C406.804 767.035 406.489 767.666 408.001 768.927L427.16 785.564C429.176 780.712 426.404 780.144 424.387 778.442L402.329 760.04ZM425.71 774.283L430.185 778.128L445.12 772.77H445.058L440.016 767.918L425.71 774.283ZM482.744 601.163C475.056 594.231 464.216 591.395 453.502 591.836C432.705 592.718 413.988 603.117 402.329 620.385C393.317 633.745 386.763 649.689 387.708 666.075C389.032 689.141 400.502 709.56 415.879 726.198C423.757 734.706 431.067 742.142 437.495 751.721C447.138 766.153 468.88 784.177 476.569 773.716C477.64 772.266 478.648 768.611 477.262 766.846C468.691 755.881 460.75 745.356 454.259 733.193C450.352 725.883 443.735 713.215 447.264 710.632C447.958 710.128 450.478 711.009 450.919 711.765L456.843 721.093C466.233 735.903 479.846 764.514 495.727 769.241C499.634 770.375 504.298 768.422 505.432 764.388C506.566 760.355 505.936 755.503 504.109 751.721L492.135 726.828C488.039 718.32 473.291 692.229 480.476 692.797V692.923C481.421 692.986 483.627 693.868 484.195 694.813L497.114 718.572L514.697 756.574C517.091 759.032 521.755 761.741 525.221 761.552C544.695 760.418 524.654 708.489 517.722 691.914L513.31 677.986C513.247 677.419 515.136 675.719 515.578 676.032L517.722 677.608C531.208 698.783 539.212 722.228 541.985 747.436C543.497 750.398 546.334 751.973 549.359 752.477C551.879 752.855 555.409 751.911 556.921 749.201C559.946 743.718 560.766 736.911 559.379 730.735L552.195 698.72C547.405 677.293 526.797 640.74 509.403 625.111L482.744 601.163ZM419.912 769.556L423.82 773.149L438.189 766.153L435.037 763.129L419.912 769.556ZM424.072 757.33L427.537 759.914C427.979 760.292 428.357 761.679 428.231 762.246C428.105 762.813 426.341 762.687 425.836 762.309L419.471 757.961V758.023L410.206 761.616L418.778 768.927C423.882 765.649 428.483 763.633 434.155 761.49L429.869 755.565L424.072 757.33ZM405.102 757.141L408.379 760.355L417.958 756.574L414.744 753.802L405.102 757.141ZM310.066 577.215C309.12 577.215 307.293 577.341 307.482 577.782L308.364 579.861C315.359 599.713 320.653 619.691 324.687 640.426C327.523 655.361 328.342 669.352 326.829 684.414C325.317 699.476 326.325 714.224 329.287 728.908C331.872 741.701 346.807 747.751 359.222 751.28C371.637 754.809 384.494 758.212 397.539 760.04L398.54 753.97L422.874 745.734L405.795 727.71C392.876 714.034 382.54 690.968 379.641 671.999C363.949 662.924 351.849 646.98 341.577 631.918C329.602 614.398 319.519 596.058 310.066 577.215ZM418.588 752.667C421.235 756.259 424.45 755.944 428.546 753.486L425.962 750.083L418.588 752.667ZM568.201 734.012V738.172L755.944 669.604L758.906 668.533C759.535 668.281 759.472 666.579 759.346 665.445L568.201 734.012ZM669.414 674.52C669.856 674.772 670.99 675.781 670.612 676.159L669.352 677.482L660.717 673.385L652.399 676.347L656.936 679.309C657.44 679.624 658.701 680.696 658.197 681.011C657.818 681.264 656.181 681.893 655.802 681.705L647.924 677.86L640.298 681.011C643.071 683.343 643.702 683.595 645.592 686.62L637.084 683.595L632.169 689.456L636.77 692.923C635.761 693.805 634.816 694.749 634.312 694.434L631.132 692.661L627.631 696.766L611.687 709.307C603.242 715.988 580.932 716.997 566.5 726.45L567.824 729.916L612.822 713.845C615.909 712.711 618.241 710.883 620.762 708.993L640.362 694.308C648.176 687.439 657.063 681.578 667.335 679.499L686.304 675.528L678.301 672.062L665.192 671.936L669.414 674.52ZM612.254 689.961C614.964 691.347 618.366 691.851 616.917 695.506L608.409 691.284C607.842 691.032 606.078 693.048 606.456 693.552L608.284 695.695C609.229 696.829 610.616 699.414 610.49 700.863C610.363 702.313 608.536 704.959 607.086 705.464L587.739 712.648L565.618 719.265H565.681L566.5 724.811C580.302 715.673 597.255 715.106 609.418 708.677L620.699 699.602C624.102 696.892 627.064 694.939 629.585 691.662L620.384 686.746L612.254 689.961ZM563.98 711.765L565.429 717.501L565.366 717.563L578.853 712.837L573.181 709.119L563.98 711.765ZM598.704 694.182L605.889 699.666C601.162 701.745 599.334 697.901 595.931 696.452C594.418 698.28 591.519 702.502 589.062 703.447L577.214 707.984L582.571 712.017L606.204 703.699C608.725 702.817 608.724 699.792 607.716 697.775L604.88 692.229L598.704 694.182ZM570.219 707.858C567.635 704.896 564.862 705.337 562.215 706.787L563.664 710.19L570.219 707.858ZM718.572 658.26C718.824 659.773 718.698 661.284 718.068 661.033L715.168 659.71C702.627 665.382 701.87 674.583 684.161 678.238L666.39 681.893C655.865 684.036 647.924 691.41 639.542 697.712L624.228 709.307L642.378 702.943C646.853 701.368 650.193 696.326 653.47 692.923C667.272 678.239 691.597 685.17 700.358 682.145L756.322 662.672C755.25 661.852 753.359 660.844 752.099 660.34C742.961 665.381 733.57 663.995 724.495 669.856C715.42 675.717 702.186 680.003 703.257 676.347C703.383 675.906 703.888 674.331 704.266 674.079L711.009 669.1C717.752 664.122 724.874 661.79 733.445 659.458L724.559 655.299L718.572 658.26ZM571.479 704.581C571.479 704.581 574.503 706.66 575.386 706.345L584.587 703.069L579.609 700.359L571.479 704.581ZM584.587 698.72C586.1 699.918 587.613 701.115 588.558 700.989C589.44 700.863 591.141 699.162 591.646 698.343H591.709L593.095 696.01L584.587 698.72ZM670.864 686.116C664.94 687.565 659.079 689.834 654.983 694.246L648.933 700.8L658.386 697.649C663.869 685.738 674.141 690.086 679.057 689.582C683.468 689.141 688.006 686.999 692.291 685.36L670.864 686.116ZM561.144 699.854C565.807 699.098 570.659 697.901 574.693 696.01C579.104 688.7 571.794 684.541 564.61 680.066L550.492 671.179L561.144 699.854ZM625.173 685.486L631.034 688.51L635.572 681.831L625.173 685.486ZM736.281 660.907C724.874 663.869 714.79 668.281 705.589 675.592C717.689 674.142 723.487 665.886 734.516 663.617H734.452C739.998 662.483 744.348 661.285 749.578 659.142L744.41 657.063L736.281 660.907ZM691.409 664.436L695.443 667.336C695.317 667.714 694.561 669.162 694.119 668.911L691.913 667.776C690.968 667.335 688.762 667.272 687.817 667.776L687.754 667.84L682.775 670.298L689.077 674.835C694.812 673.007 700.169 668.974 704.328 664.058L698.089 660.781L691.409 664.436ZM398.359 184.212C387.078 185.157 375.482 186.04 364.012 188.876C332.186 196.69 310.38 207.341 283.344 225.239C263.303 238.536 247.485 255.426 234.314 275.53C220.323 297.02 207.088 318.133 195.681 341.135C184.967 362.815 173.75 387.015 170.221 410.522C168.645 420.984 171.292 430.438 177.972 438.757C202.676 469.511 239.67 485.392 277.294 498.185C263.871 454.953 261.854 411.341 258.766 366.974C258.262 355.694 258.135 344.35 259.396 333.573C259.585 333.006 261.286 331.683 261.602 332.186L262.737 334.14L269.732 409.01C273.324 455.331 281.643 495.791 300.613 538.267C316.935 574.757 333.446 608.473 357.583 640.362C363.948 648.807 370.755 656.433 379.389 662.735C379.074 641.875 389.347 621.708 402.077 606.835C422.56 585.219 456.591 575.639 483.312 591.332C475.875 556.796 453.943 529.381 435.1 500.517L413.106 466.801C391.679 433.966 385.565 407.371 388.338 367.92C390.103 342.963 391.111 316.179 385.88 292.105C383.044 278.997 377.373 267.212 369.18 256.813C361.365 247.927 352.416 240.932 340.82 238.159L339.308 235.763C336.724 231.667 375.104 234.314 390.418 279.249L390.733 279.185C401.699 311.326 397.287 347.312 396.279 381.469C395.207 417.833 405.165 439.134 424.008 468.124L444.868 500.202L454.07 473.733C461.317 452.873 469.321 433.084 481.043 414.303L526.292 351.094C527.3 350.967 528.372 350.778 528.498 351.282L528.94 353.425C524.591 364.138 519.171 373.97 512.554 383.424L492.702 411.279C496.043 429.492 501.462 446.13 509.025 462.641C518.478 483.249 531.902 497.934 548.981 512.618C568.517 529.444 588.999 544.507 610.552 558.56C620.635 565.115 631.097 569.4 643.576 569.778L640.677 562.909C635.887 547.847 639.29 531.398 649.121 519.361C658.953 507.324 673.7 500.013 689.959 501.021C684.224 478.964 662.986 467.998 646.034 455.709L620.258 437.054C611.498 430.689 605.7 422.56 601.982 412.35C597.57 400.376 594.671 388.339 592.529 375.672C590.197 361.303 587.171 347.753 583.264 333.699C579.042 318.7 573.558 304.457 564.546 291.412C546.27 300.424 523.582 304.332 503.857 300.109C478.144 296.58 455.645 283.975 438.125 264.943C419.156 244.335 411.782 223.6 409.954 195.871C404.913 193.035 401.132 189.757 398.359 184.212ZM712.395 657.819C708.11 657.819 706.471 658.323 702.627 659.584L706.849 662.483H706.912L712.395 657.819ZM742.015 656.18C738.171 653.345 733.822 651.517 729.348 654.731L736.217 657.819C737.477 658.386 741.006 656.811 742.015 656.18ZM700.485 613.389C698.846 612.948 695.065 614.965 695.191 616.603L696.892 632.106L703.761 633.682L712.458 621.33H712.522L711.513 616.099C706.912 615.721 706.156 621.33 703.761 620.259C703.005 619.943 701.997 618.43 701.744 617.611L700.485 613.389ZM720.273 614.775C727.52 619.25 736.344 616.099 740.188 609.355C733.193 612.128 727.268 612.759 721.408 608.789L720.273 614.775ZM712.648 590.512L707.038 613.262C709.912 612.638 712.042 612.82 714.165 613.804L720.966 586.478L712.648 590.512ZM696.955 610.49C699.665 609.734 701.303 610.049 703.509 611.877L708.992 590.008L702.375 588.432L696.955 610.49ZM755.061 577.467C747.498 589.441 737.604 601.037 725.567 593.726L723.866 599.776L723.802 599.714C724.369 603.18 728.214 604.692 731.428 604.125C744.284 601.73 755.313 589.819 755.061 577.467ZM705.274 510.286C694.056 508.017 682.775 507.828 671.936 511.987C656.18 517.974 646.789 533.352 646.789 550.052C646.789 559.695 650.445 567.384 657.315 573.875C664.562 580.681 672.629 586.037 682.397 588.936L695.443 592.781L697.27 584.777L686.116 574.001C684.414 572.362 681.893 571.291 679.372 571.291C670.612 572.11 662.419 568.139 658.512 560.451C658.386 559.884 658.764 557.175 659.394 557.363L661.978 558.056C674.456 569.337 683.343 560.199 692.481 569.652L692.417 569.526C699.035 576.332 707.858 585.786 714.412 581.437C721.597 576.648 716.239 563.98 707.668 556.732C699.917 549.8 694.939 540.914 694.245 530.389C698.342 522.513 699.161 536.754 706.849 545.64L715.042 512.302L705.274 510.286ZM736.029 550.115L741.952 549.549C741.574 551.943 740.818 553.582 739.558 554.779C726.135 567.446 724.937 586.983 731.365 588.18C740.125 589.756 752.414 568.139 756.51 557.048C758.023 545.956 748.821 535.935 741.763 526.356L736.029 550.115ZM720.147 560.01L723.992 565.871L727.773 559.38H727.709L746.112 484.573L739.558 480.98L720.147 560.01ZM736.217 480.162C734.075 479.784 731.554 479.72 729.159 480.35L711.765 550.556L717.248 556.102L733.319 490.497L736.217 480.162ZM749.452 464.091C746.491 460.246 735.084 458.671 734.012 462.578L730.419 475.372C736.595 474.49 741.7 475.624 747.309 479.343L749.641 468.817C749.956 467.62 750.146 464.973 749.452 464.091ZM430.059 148.416C428.483 144.193 424.513 142.366 420.038 142.744C413.421 143.311 408.379 147.974 405.291 153.646C398.233 166.44 402.014 181.88 414.996 189.128C416.257 189.821 417.832 192.153 417.958 193.792C418.904 209.736 421.803 225.239 429.743 239.419C439.386 256.686 453.629 270.488 470.707 280.383C482.114 286.937 494.341 290.655 507.324 292.609C538.897 297.336 566.5 285.677 587.613 264.376C570.219 265.321 555.472 253.536 556.795 236.772C557.552 227.571 580.239 207.846 600.532 224.042C603.237 226.181 606.948 229.955 609.72 234.232L616.603 214.589C605.385 209.043 597.822 200.408 591.33 190.451C590.952 193.854 590.953 197.509 589.125 199.904C588.243 201.101 584.461 201.29 582.949 200.975C578.096 198.077 573.37 195.871 569.274 192.09C555.724 179.8 545.703 164.549 538.645 148.1C512.932 164.612 481.232 168.52 453.502 156.104C447.011 161.776 436.865 171.545 432.579 168.583C428.294 165.621 433.714 158.373 430.059 148.416ZM591.898 247.486C587.612 246.541 582.886 250.952 581.815 254.355C584.021 257.443 589.503 257.695 592.15 254.985C593.725 253.41 593.662 248.557 591.898 247.486ZM575.827 229.462C569.715 228.454 563.476 233.432 563.79 239.797C563.979 242.759 566.942 246.162 569.148 247.423C571.038 237.528 577.907 233.936 575.827 229.462Z" fill="#161616"/>
<path fill-rule="evenodd" clip-rule="evenodd" d="M471.716 191.837C474.867 181.691 499.257 173.814 518.73 189.506C529.129 197.888 534.611 211.501 529.759 224.357L529.822 224.419C514.256 239.545 489.299 234.377 476.632 217.172C471.275 209.925 469.006 200.66 471.716 191.837ZM514.067 214.021C508.711 212.634 502.534 217.487 501.021 221.457C503.668 225.176 510.538 225.743 514.004 222.718L514.067 222.782C516.084 221.017 516.273 215.345 514.067 214.021ZM485.33 212.635H485.393C485.374 212.624 485.357 212.612 485.339 212.601C485.336 212.612 485.333 212.624 485.33 212.635ZM494.657 192.027C487.032 190.577 478.965 195.997 479.027 203.496C479.09 206.877 482.635 210.941 485.339 212.601C488.247 201.22 497.05 197.378 494.657 192.027Z" fill="#161616"/>
</g>
</g>
<defs>
<clipPath id="clip0_428_33">
<rect width="876" height="876" fill="white"/>
</clipPath>
<clipPath id="clip1_428_33">
<rect width="876" height="876" fill="white"/>
</clipPath>
</defs>
</svg>
