<svg width="876" height="876" viewBox="0 0 876 876" fill="none" xmlns="http://www.w3.org/2000/svg">
<path d="M455.88 305.167L438.97 307.48C437.648 307.645 435.059 306.268 434.177 305.332C433.131 304.285 432.8 300.925 433.627 299.383C440.677 285.998 458.248 278.011 467.117 286.549C471.303 290.57 471.358 296.849 466.566 300.43C463.757 302.523 459.791 304.671 455.88 305.222V305.167ZM465.134 292.773C459.846 284.18 443.046 292.443 438.364 302.192C448.554 301.696 464.363 300.099 465.134 292.773Z" fill="#161616"/>
<path d="M848.013 561.631L840.246 562.071H698.409L630.878 561.906L635.339 585.426L640.682 614.62C654.894 613.794 669.601 616.989 679.901 627.344C689.596 637.094 692.901 651.966 689.871 665.351C685.74 683.418 677.477 699.667 664.974 713.218L626.691 754.915C618.98 763.343 610.222 769.677 600.197 774.965C588.685 781.024 575.795 783.558 563.071 781.024C553.101 779.041 545.996 772.652 541.864 763.618C537.733 754.585 535.695 744.725 536.521 734.48L538.78 704.79C531.564 702.972 526.276 698.18 525.835 690.634L524.073 657.584C524.458 642.327 523.467 627.84 521.429 612.692L514.599 562.016H368.85L364.444 595.176C362.351 610.819 359.707 625.747 358.55 641.555L358.385 680.168C358.385 686.998 356.953 693.884 353.703 699.667C350.673 704.955 345 707.214 339.436 708.481C341.419 731.34 342.796 758 326.051 773.808C318.615 780.804 308.094 782.897 297.904 781.575C277.799 778.986 261.274 765.711 246.292 752.436L223.763 732.497C206.082 716.853 193.523 696.858 188.015 673.889C185.15 659.347 189.116 645.521 199.472 635.001C211.425 623.158 228.17 618.035 244.97 619.908L252.847 561.41L34.7201 560.199L28 559.152V555.517L40.008 555.186L81.7054 554.58L254.169 553.423L261.77 521.421C251.8 520.099 244.144 514.645 240.784 505.942L234.835 502.087C229.987 498.947 225.746 493.989 225.03 487.985C224.094 480.494 230.759 476.308 237.148 475.261C237.864 471.02 239.737 466.503 245.3 465.897L224.865 451.962C214.73 445.076 205.751 437.144 197.819 427.835C186.527 414.56 176.227 394.676 180.799 378.041C185.977 359.258 201.124 341.576 217.374 331.331C246.788 312.768 269.206 305.607 301.595 295.417C317.899 290.294 334.369 287.375 350.949 285.612C331.725 279.113 317.734 256.694 325.941 240.61C328.475 235.708 332.882 233.009 338.335 232.843C328.971 207.395 336.572 174.786 351.004 153.414C369.401 126.204 403.277 115.683 435.115 112.709C443.377 111.937 457.588 112.378 463.207 116.895L468.054 111.221L481.935 98.6074C486.837 94.1457 493.612 92.6034 499.836 95.4126L517.353 103.455L532.5 108.467C539.11 111.717 544.398 117.28 549.025 123.064L568.084 146.915C570.452 144.822 573.647 141.572 576.456 142.123C591.053 145.097 604.108 150.44 617.162 157.601C632.255 165.918 646.356 175.282 659.961 185.913C675.164 197.811 690.697 213.62 692.901 233.064C695.82 258.512 681.664 283.574 664.643 302.247C636.166 333.424 601.023 357.275 562.08 374.24L573.316 435.877L577.227 463.859C588.574 467.274 598.104 473.939 605.65 482.918C610.993 491.401 615.62 499.883 618.099 509.688L629.17 553.093L743.907 552.818H839.144L848.013 553.699V561.631ZM483.202 109.844C486.231 106.264 491.078 104.226 495.54 104.666L507.107 105.768C498.349 100.976 491.794 97.7812 484.579 104.446L470.863 117.17C468.66 119.208 468.384 122.734 470.753 124.661L483.257 109.954L483.202 109.844ZM527.543 133.144C528.479 133.42 529.746 135.237 529.416 135.898C529.14 136.449 527.433 137.606 526.772 137.551L514.158 136.78C510.798 136.559 508.099 138.157 506.501 140.745L497.193 155.563C495.705 157.931 496.972 162.393 499.836 162.338C507.879 162.173 510.578 150.11 518.509 150.275C521.429 150.33 525.119 152.258 526.441 155.122L529.746 162.448C531.674 166.8 535.089 170.71 539.771 172.363L549.686 175.833C553.927 166.359 558.169 158.152 564.338 150.936C552.055 139.368 544.398 124.827 531.454 114.196L514.709 108.743L514.378 110.836C514.268 111.331 512.23 111.662 511.624 111.607L494.053 110.285C492.345 110.175 489.095 112.103 488.049 113.37L474.939 129.123C472.736 131.767 474.774 137.055 478.134 137.33L492.621 120.475C495.485 117.17 499.175 115.297 503.913 115.628C510.633 116.124 520.933 117.886 522.035 121.577C522.2 122.128 520.162 123.119 519.556 123.009L505.951 121.356C502.701 120.971 499.231 121.522 497.082 124.111L484.303 139.479C482.761 141.296 482.21 145.097 483.422 147.08C490.362 149.338 497.137 144.987 500.608 138.818C506.391 128.517 515.7 129.784 527.598 133.144H527.543ZM251.304 372.092C250.533 371.541 250.037 368.787 250.864 368.567L253.838 367.795C265.461 373.469 276.697 379.308 286.392 387.625L295.646 383.108C307.654 378.261 320.047 375.397 332.661 373.138C334.92 365.096 338.5 350.61 342.08 352.758C342.686 353.144 343.733 355.016 343.623 355.843L342.08 363.94C336.572 387.901 332.165 411.421 328.31 435.712L323.738 464.355C348.525 462.592 368.244 473.168 387.744 486.994L411.705 483.909C441.559 480.054 471.139 481.1 501.324 483.248C521.429 467.274 542.911 458.351 568.524 461.876L561.088 414.505L551.228 360.359C549.631 351.656 550.733 344.165 553.652 345.818C554.203 346.148 555.47 347.36 555.69 348.186L560.042 365.757C574.143 358.542 588.299 351.932 601.849 343.394C622.615 330.339 641.233 314.971 657.813 297.014C676.816 276.359 695.049 242.813 679.13 217.916C667.012 198.968 642.886 182.443 623.331 170.38C608.624 161.291 593.642 154.131 577.227 148.182C564.118 159.474 556.682 177.265 550.567 194.01L578.549 217.586C588.629 226.068 599.315 232.623 610.883 238.902L625.975 247.11C626.912 247.605 627.958 250.084 627.463 251.076C625.039 255.813 606.421 246.008 597.773 241.436L589.896 248.322C571.058 262.257 544.288 275.367 520.272 276.469C510.908 292.443 498.184 306.874 481.274 315.743C455.275 329.348 424.429 330.229 397.273 319.764C382.456 314.035 371.494 304.01 362.351 291.176C339.822 293.104 316.412 298.336 294.93 305.552C280.112 310.51 265.35 314.31 251.525 321.526L229.987 332.763C212.031 342.127 194.019 360.304 188.565 380.134C184.159 396.218 197.158 415.938 208.946 427.89C214.289 433.289 219.687 438.576 226.077 442.763L256.427 462.868C257.639 463.694 260.118 463.969 261.715 463.914C265.24 456.038 270.363 450.584 276.532 444.911C286.557 435.712 298.18 429.598 312.281 427.34C298.4 407.84 281.269 393.189 262.486 379.914L251.249 371.982L251.304 372.092ZM591.328 237.36L571.884 222.708L547.428 201.501C544.784 199.188 542.801 195.057 543.902 191.697L547.262 181.341C534.704 180.129 525.009 172.803 522.145 160.355C521.649 158.152 519.556 156.279 517.132 156.554C525.89 170.215 530.793 185.142 530.407 201.501C536.632 199.574 541.809 201.446 545.61 205.798C558.995 221.111 547.648 251.516 527.378 258.291L523.963 268.812C549.245 263.635 571.444 252.673 591.328 237.25V237.36ZM373.587 294.536C382.786 305.112 393.858 312.162 407.739 315.908C430.267 321.967 454.999 320.535 476.096 309.794C494.493 300.43 507.823 284.456 516.526 266.168C522.586 250.084 524.513 233.449 521.429 216.649C511.514 209.544 504.629 200.62 498.845 189.714C487.002 195.002 474.884 197.646 462.491 195.332L440.182 191.091L444.203 198.252C445.966 201.336 443.818 204.641 440.843 205.798C418.59 215.272 387.744 213.014 365.711 201.557C364.113 217.365 358.88 231.632 349.516 244.631C352.711 263.414 361.139 280.269 373.587 294.591V294.536ZM541.038 211.141C539.661 208.938 536.797 207.45 534.538 207.505C531.95 207.616 529.691 208.993 527.873 211.416C531.564 223.81 531.233 236.314 529.361 249.478C540.983 240.555 548.529 222.929 541.093 211.141H541.038ZM354.639 279.003C349.406 267.49 345.44 256.033 343.788 243.529C343.127 241.767 341.695 239.508 340.373 239.233C338.885 238.902 335.966 239.508 334.699 240.445C331.064 243.089 330.513 247.44 330.623 251.847C332.496 264.626 341.419 275.202 354.639 279.058V279.003ZM321.149 426.128L330.513 380.795C317.348 383.824 304.569 387.129 292.176 392.748C303.357 402.442 312.611 413.349 321.149 426.128ZM245.576 482.918C241.334 481.32 235.551 481.045 232.576 484.405C226.077 491.566 250.864 507.43 267.664 504.4C277.193 482.092 290.082 468.982 314.704 465.347L318.34 444.36C318.835 441.496 316.577 437.31 315.365 434.28C303.798 435.327 293.498 440.064 284.739 447.555L277.193 454.055C279.507 453.889 282.316 453.944 282.591 455.046C282.426 456.313 280.443 458.241 279.452 458.957C261.88 470.69 269.757 489.528 262.266 493.934C261.825 494.21 260.228 493.384 260.173 492.833L259.567 488.096L245.686 482.863L245.576 482.918ZM352.381 618.916L358.936 577.77C361.635 560.749 362.296 544.39 360.202 527.149C360.037 525.937 361.304 523.844 362.296 523.734C367.253 523.348 368.355 542.903 369.126 553.093H514.158C514.103 542.572 515.26 532.547 517.573 522.742C517.793 521.696 520.272 520.154 520.878 520.87C521.374 521.476 521.98 522.798 522.53 524.009C520.272 545.326 522.035 565.707 525.946 586.693C528.534 604.154 532.225 620.789 532.39 638.526L532.666 674.935C538.284 665.682 544.729 657.97 553.211 651.195C567.368 638.526 584.994 631.255 603.887 630.924C612.811 624.535 621.844 619.137 632.75 616.493L620.412 555.572L610.497 516.738C607.908 506.713 603.887 497.515 598.214 488.867C592.54 480.219 583.066 474.545 572.711 471.956C545.39 465.071 520.437 477.354 499.671 495.146L478.299 517.014L475.71 517.344C475.104 517.399 475.104 515.251 475.16 514.7C479.346 505.612 485.515 498.396 492.951 491.18C459.406 488.702 427.017 489.142 393.913 492.888C401.294 499.718 417.047 518.391 412.641 521.255C411.815 521.806 409.446 521.421 408.675 520.649L387.964 499.002C378.875 490.574 368.795 484.075 357.558 478.952C341.97 471.846 325.06 470.91 308.7 475.537C296.692 478.952 286.943 486.498 280.994 497.57C269.041 519.933 263.092 553.589 258.796 579.422L251.745 621.781C261.495 624.315 270.253 629.382 277.964 636.378C296.472 635.937 313.548 641.831 326.933 654.445C336.186 661.936 343.898 670.198 350.012 681.049V654.61C350.067 642.712 350.453 631.255 352.436 618.972L352.381 618.916ZM259.732 481.651L260.779 474.435L252.296 471.901C248.771 470.855 244.639 471.571 242.877 475.261L259.732 481.651ZM265.185 511.12L250.258 509.743C254.334 513.103 258.74 514.866 264.028 515.361L265.185 511.12ZM544.839 745.331C548.584 737.399 552.11 730.624 557.728 724.62L575.079 705.947C589.896 688.816 596.286 669.703 612.425 652.847C625.755 638.911 645.86 626.077 665.745 627.895C642.72 615.171 615.014 628.225 598.379 647.559L580.918 667.83C580.312 668.491 578.054 669.152 577.338 668.546C573.647 665.351 586.867 647.89 593.532 640.344C574.749 643.153 557.673 656.538 545.28 671.465C549.741 696.693 542.525 720.654 544.839 745.386V745.331ZM333.542 671.961L322.03 660.724C312.005 651.856 300.218 645.687 286.116 644.034C291.9 651.14 303.853 667.279 298.73 668.546C297.904 668.766 295.921 668.16 295.37 667.499L279.231 649.047C261.329 628.611 234.449 620.128 210.929 635.992C223.102 634.395 233.733 635.772 244.364 640.729C254.389 645.356 262.486 652.517 270.143 660.559L286.612 682.592C294.764 696.417 305.175 707.82 316.687 718.891C323.573 725.501 327.979 732.827 331.89 742.191C335.911 718.12 327.153 695.206 333.542 671.906V671.961ZM615.895 753.924L642.115 726.493L665.029 699.778C671.969 690.248 677.092 680.168 680.617 668.876C684.914 655.106 683.041 640.729 669.38 636.984C648.394 631.255 623.056 650.038 610.497 667.554L596.506 689.642C590.888 698.511 585.435 706.993 578.219 714.595L562.19 731.395C556.076 737.784 552.22 745.882 550.898 754.585C549.576 763.288 554.754 770.834 563.181 773.037C580.808 777.719 604.052 766.427 616.005 753.924H615.895ZM324.564 761.855C327.153 752.987 324.784 744.229 320.543 736.738C313.052 723.573 299.667 714.87 290.248 701.375L271.134 674.054C258.961 656.648 238.635 639.958 216.878 642.271C209.111 643.098 201.51 646.623 197.599 653.508C187.519 671.19 209.276 708.26 225.636 722.747L264.689 757.284C272.676 764.389 282.206 768.961 292.176 772.156C299.557 774.524 307.048 774.745 314.153 771.715C318.34 769.898 323.132 766.758 324.564 761.8V761.855Z" fill="#161616"/>
<path d="M502.039 251.682C493.611 259.448 474.277 258.236 462.545 251.076C453.897 245.733 452.189 236.534 456.871 228.051C464.197 214.666 479.565 209.158 493.501 216.153C500.001 219.403 505.454 224.691 507.382 232.072C509.145 238.902 507.382 246.834 501.984 251.737L502.039 251.682ZM466.731 244.411C466.29 235.653 471.413 231.191 468.714 227.776C463.316 228.217 459.02 233.725 460.617 239.068C461.333 241.491 464.583 243.805 466.731 244.411ZM499.34 242.207C499.56 240.28 496.971 236.92 495.154 237.195C491.628 238.792 490.747 244.411 491.849 247.33C495.043 248.267 498.954 245.512 499.34 242.207Z" fill="#161616"/>
<path d="M368.906 243.915C369.401 236.313 373.753 230.089 379.537 225.683C391.875 216.153 408.014 218.687 417.764 230.365C423.933 237.801 424.043 247.22 416.552 254.05C406.417 263.359 387.689 268.206 377.939 262.202C371.77 258.402 368.465 250.965 368.906 243.915ZM416.166 241.932C416.717 236.369 411.484 231.797 406.086 232.403C404.103 236.258 409.942 239.673 411.154 248.377C413.137 247.33 415.891 244.521 416.111 241.987L416.166 241.932ZM387.028 255.978C387.524 252.893 385.596 247.55 381.85 246.669C380.032 246.779 378.104 250.525 378.71 252.398C379.702 255.537 384.053 257.52 387.028 255.978Z" fill="#161616"/>
</svg>
