<svg width="876" height="876" viewBox="0 0 876 876" fill="none" xmlns="http://www.w3.org/2000/svg">
<path d="M636.623 710.586C584.242 761.001 515.35 790.655 442.939 791.955C368.725 793.297 297.906 764.65 243.723 714.487C207.852 681.31 181.285 639.745 164.439 593.692C111.094 589.163 75.6846 537.615 73.0027 486.739C72.9188 472.94 74.8046 460.147 81.0903 448.362C90.8122 429.991 109.334 418.792 130.706 421.518C126.641 400.589 125.845 380.499 127.395 359.192C131.628 300.682 153.544 245.821 190.713 200.607C223.273 148.64 276.702 114.625 334.824 97.0088C363.78 88.2428 392.946 84.3002 423.16 83H456.851C517.404 85.181 574.73 98.2251 626.775 129.934C667.172 154.512 699.941 189.115 721.816 231.141C752.322 289.777 758.776 354.83 750.185 421.099C787.229 420.386 805.458 455.114 802.734 490.682C800.303 522.516 785.679 551.624 761.751 572.721C747.671 585.178 730.364 591.637 711.758 593.734C695.499 637.732 670.734 677.745 636.665 710.544L636.623 710.586ZM720.433 453.814C689.465 425.88 669.937 389.936 661.179 350.258C650.033 353.739 639.514 355.543 628.284 356.633C571.629 361.121 516.985 343.379 470.303 310.161C474.535 324.086 481.03 335.075 487.986 346.777C489.076 348.58 489.663 352.313 489.034 354.242C488.489 355.962 486.226 358.227 484.047 359.066C461.461 367.79 438.581 370.516 414.108 369.048C353.137 365.441 285.293 341.618 239.91 299.717C229.475 344.428 205.045 387.587 175.46 421.183C169.51 427.977 163.727 433.514 156.854 439.554C152.035 491.814 160.919 551.163 180.908 599.774C195.407 635.048 215.395 667.218 242.005 694.606C294.26 748.418 366.504 779.917 441.849 778.869C528.55 777.61 608.966 733.739 659.754 664.156C703.755 602.962 722.318 529.353 720.433 453.856V453.814ZM159.704 579.726C145.54 533.966 139.967 487.536 143.612 440.434C127.437 429.194 106.946 433.766 95.757 449.326C67.0941 489.13 104.264 573.308 159.704 579.726ZM755.423 560.893C779.854 537.825 794.772 502.006 788.738 469.207C784.38 445.551 764.307 428.019 740.631 436.03C735.477 441.231 733.256 447.565 733.465 455.114C734.638 497.35 729.023 538.622 716.536 579.726C731.747 577.419 744.151 571.002 755.465 560.893H755.423Z" fill="#161616"/>
<path d="M224.89 540.764C253.608 566.01 316.914 562.26 354.624 539.069C382.391 521.855 386.981 492.02 370.621 464.399C344.849 421.041 293.729 403.004 248.883 425.541C227.942 436.121 210.475 452.965 204.973 477.023C199.973 499.071 206.884 524.865 224.89 540.764ZM339.978 517.351C340.45 488.952 323.099 474.364 331.629 463.336C349.418 464.721 364.059 482.578 359.556 500.039C357.404 507.981 346.96 515.326 339.978 517.351ZM232.393 509.946C231.382 503.672 239.56 492.829 245.44 493.685C257.153 499.009 260.69 517.108 257.434 526.643C247.036 529.733 233.912 520.644 232.293 510.091L232.393 509.946Z" fill="#161616"/>
<path d="M654.929 546.305C623.24 567.734 560.331 554.544 525.309 525.369C499.537 503.746 498.433 472.717 518.035 447.042C548.896 406.752 602.159 395.974 644.397 425.541C664.115 439.405 679.623 459.126 682.314 484.414C684.739 507.582 674.806 532.798 654.929 546.305ZM542.504 505.445C545.354 476.486 564.422 464.216 557.177 451.734C539.214 450.509 522.475 466.506 524.939 484.935C526.163 493.333 535.754 502.351 542.504 505.445ZM651.025 513.844C652.772 507.611 645.856 495.37 639.872 495.37C627.529 499.052 621.873 516.939 624.015 527.122C634.058 531.804 648.254 524.502 651.109 514.006L651.025 513.844Z" fill="#161616"/>
<path d="M478.659 691.214C481.137 710.676 440.606 724.593 404.123 702.884C400.39 700.625 396.881 690.558 397.246 686.596C399.195 668.693 441.79 658.607 468.181 675.544C472.963 678.637 478.047 686.723 478.659 691.214Z" fill="#161616"/>
</svg>
