<svg width="876" height="876" viewBox="0 0 876 876" fill="none" xmlns="http://www.w3.org/2000/svg">
<path d="M498.187 268.455C497.528 274.906 483.343 276.362 473.146 266.651C472.105 265.646 471.724 262.143 472.14 260.894C474.117 255.276 488.684 255.206 495.967 262.628C497.285 263.981 498.325 266.964 498.187 268.455Z" fill="#161616"/>
<path d="M484.313 654.471L503.388 699.142C528.602 690.61 560.163 692.622 578.233 712.425C590.025 725.362 593.32 742.911 586.834 759.143C583.643 767.154 578.268 773.674 572.025 779.675C557.666 793.478 540.915 802.981 522.741 811.097C502.209 820.288 481.816 827.606 459.584 831.317C430.659 836.138 404.474 831.317 390.393 804.23L376.103 772.218L340.97 697.789C333.271 681.523 324.427 666.852 313.64 652.633L289.397 620.621L264.599 586.077C260.299 587.36 257.489 591.037 256.206 595.407C248.645 620.794 250.657 651.974 239.801 679.477L225.686 715.269C223.535 720.749 222.113 726.229 221.42 731.951L237.686 751.27C246.044 763.027 251.732 776.831 251.316 791.224C250.865 806.796 242.611 819.733 229.015 826.427C221.177 830.276 213.027 832.843 204.078 833.398C175.257 835.236 142.829 834.161 118.725 817.583C101.592 805.825 66.7359 776.761 59.8341 759.628C53.4179 743.744 55.7763 724.252 61.6029 707.917L87.1986 635.812C98.9559 602.655 98.401 588.297 96.2854 554.724C93.3374 507.695 93.6148 467.775 111.025 423.243C110.089 416.064 109.777 408.815 111.372 401.462C120.702 358.005 152.679 301.75 177.789 264.016C186.46 250.975 195.096 238.975 206.298 227.981C220.934 213.657 237.443 202.142 255.27 191.842C286.311 173.876 320.195 163.055 356.785 160.627C353.144 147.517 356.612 134.061 366.184 123.864C368.82 109.713 374.508 97.2278 382.797 85.4358C395.976 67.7477 412.555 52.5568 434.301 47.1116C450.012 43.1578 466.07 43.0538 481.434 48.7417C524.822 28.3137 575.493 57.4817 602.372 93.7595C624.187 123.17 626.303 163.679 612.568 197.252C608.788 206.443 602.857 212.998 595.748 219.657L585.759 236.894C576.013 253.75 561.62 267.311 544.348 277.993C554.024 293.773 562.036 310.837 566.094 329.496L574.522 368.237C578.302 389.774 582.464 416.48 600.256 429.486L628.002 449.74L657.829 471.59C668.927 479.706 675.205 491.845 678.639 504.92C716.234 514.666 731.737 531.348 749.599 563.776C754.836 573.279 755.842 587.395 745.853 591.8C747.24 596.239 748.316 601.095 747.899 605.291C747.136 613.095 741.206 616.528 734.893 618.644C733.229 623.395 730.558 628.494 726.57 630.263C721.055 632.725 715.575 631.789 710.789 629.395C708.223 633.384 704.095 637.546 699.968 637.997C685.887 639.488 680.269 628.841 672.951 616.077C669.899 610.771 665.875 607.823 660.188 606.054C647.216 601.996 634.488 595.615 625.817 585.141C613.366 587.222 596.719 582.366 585.482 575.43C554.406 556.215 525.585 534.157 499.122 508.943C473.388 484.423 462.324 453.937 453.862 419.254C446.231 432.503 439.33 445.891 434.023 460.284L425.803 482.689C437.145 492.955 445.85 504.365 450.359 518.273C461.388 520.25 471.792 521.915 481.781 526.146C491.77 530.377 502.001 533.429 512.718 535.892C519.134 537.348 523.955 542.377 525.065 547.892C526.383 554.551 523.712 560.69 517.747 564.539L531.828 574.944C539.18 580.389 545.874 591.834 540.464 600.574C538.452 603.834 534.602 605.846 530.371 606.505L533.423 613.199C536.579 620.17 533.007 629.049 525.689 631.719C521.492 633.245 516.776 632.69 511.885 631.927C513.689 639.661 509.423 646.771 501.238 648.332C497.111 649.13 492.082 648.297 488.232 647.43L484.382 654.402L484.313 654.471ZM591.586 200.963C579.1 195.067 571.886 185.772 564.811 175.575C564.533 179.113 564.186 182.928 562.556 185.529C561.655 186.951 557.527 187.055 555.932 186.639C550.834 183.552 545.735 181.229 541.435 177.31C527.146 164.2 516.429 148.072 508.972 130.696C483.515 147.205 452.752 150.986 424.208 141.448L418.277 139.471C411.514 145.679 400.659 155.598 396.531 152.442C391.953 148.974 398.092 140.962 393.583 130.419C391.78 126.153 387.791 124.662 383.213 125.008C376.312 125.563 370.832 130.627 367.606 136.488C359.837 150.673 364.624 167.217 379.017 174.917C380.855 176.443 381.098 180.535 381.306 183.171C382.52 198.639 385.884 213.796 393.514 227.46C403.572 245.391 418.208 259.715 435.792 270.189C448.347 277.681 462.116 281.843 476.544 283.923C500.371 287.322 522.11 280.672 543.585 268.282L554.681 263.572C560.381 258.686 564.811 257.057 567.71 252.172C569.338 252.172 572.004 247.132 574.224 244.843C574.224 244.843 579.655 239.143 579.655 236.894C581.007 235.091 586.383 217.957 586.869 216.258L591.482 200.998L591.586 200.963ZM299.143 225.761C298.623 224.651 298.172 223.541 298.415 222.882C299.837 218.998 335.49 225.206 351.097 266.201C364.242 300.71 359.56 341.704 357.965 378.849C357.41 391.751 357.895 404.445 362.161 416.549C368.855 435.555 390.67 452.341 406.728 466.076L419.075 476.654C426.462 454.076 435.306 433.231 447.723 413.358L495.307 346.803C495.862 346.283 497.7 345.069 497.839 345.728L498.671 348.988C493.954 359.913 488.613 369.797 481.885 379.543L460.417 409.474C463.85 427.925 469.226 444.711 476.613 461.532C486.636 484.319 500.891 500.377 519.619 516.539C541.469 535.371 564.36 552.366 588.742 567.661C598.487 573.765 609.239 577.372 620.337 577.302C609.378 557.568 617.042 533.533 631.921 518.793C642.049 508.735 655.02 503.533 669.101 503.602C666.153 493.197 660.638 484.839 652.592 478.596L636.326 465.937L596.129 437.359C586.487 430.492 580.348 421.821 576.256 410.723C571.574 398.098 568.418 385.37 566.267 371.948C563.805 356.687 560.614 342.294 556.418 327.381C551.944 311.496 546.152 296.409 536.545 282.501C515.839 292.698 493.122 296.028 470.717 291.692C457.052 289.056 444.359 285.38 432.324 278.305C410.682 265.611 393.341 247.611 382.624 224.755C376.242 211.16 374.231 196.732 372.843 181.68C367.676 178.35 363.375 174.639 360.427 168.916C347.768 170.2 335.143 170.997 322.658 174.223C293.108 181.888 274.31 190.316 248.541 205.992C224.16 220.871 203.87 239.599 188.194 263.565C172.517 287.53 158.159 310.039 145.777 335.288C134.401 358.525 116.02 396.815 118.794 420.642C121.291 442.145 155.072 466.839 175.015 477.556C196.691 489.209 223.778 500.62 248.854 504.955C238.9 491.047 230.576 477.521 225.755 461.29C220.934 445.058 217.258 428.515 215.94 411.347L212.402 364.456C211.986 351.866 212.055 340.04 212.992 327.554C213.443 326.756 214.587 325.196 215.003 325.646L216.703 327.45L223.466 405.277C225.859 423.902 228.252 441.625 234.009 459.417C244.137 490.666 267.27 515.325 290.507 537.938C305.421 552.435 320.195 566.135 336.878 578.516C349.814 588.123 369.826 600.644 385.121 600.366C380.612 589.892 379.606 579.661 381.999 568.771C388.138 541.198 411.93 518.793 441.341 517.961C436.936 506.932 430 497.602 421.087 489.833L405.098 475.856C367.225 442.769 346.034 431.046 349.329 374.41C351.964 329.635 358.138 275.045 325.814 241.611C318.149 233.981 309.687 228.327 299.108 225.761H299.143ZM289.12 577.06L271.848 583.58L280.102 595.58L325.745 654.956C333.687 665.292 340.034 675.974 345.583 687.766L369.965 739.616L391.433 786.021L400.104 803.64C410.925 822.334 431.214 826.427 452.197 823.721C473.18 821.016 492.463 814.808 511.885 806.623C534.151 797.224 561.793 782.727 575.111 762.888C586.14 746.483 582.603 725.119 566.406 713.327C536.163 691.304 491.665 706.529 465.272 730.807C463.815 729.94 462.74 728.553 463.087 727.79L464.544 724.738C472.59 714.645 483.688 707.5 495.758 702.471L476.787 658.772C467.734 659.916 459.966 657.627 452.093 653.708C436.451 645.488 421.433 636.644 407.075 626.343C400.277 621.453 394.971 615.28 390.115 608.586C374.335 610.667 357.583 602.413 343.71 593.395C323.005 579.938 304.9 563.915 287.143 546.782C276.287 536.308 266.229 526.285 256.553 514.597C233.767 511.128 212.298 504.504 191.385 494.828C163.5 481.926 140.714 468.85 120.875 444.711L114.91 435.451C107.8 458.342 104.193 481.093 103.43 504.885C102.875 521.88 103.985 538.042 104.748 554.863L105.996 582.921C106.482 593.985 105.407 604.806 102.251 615.28L94.8287 639.766L71.7302 704.518C61.5682 732.992 59.8688 753.767 81.4066 774.299L95.3489 787.582C112.725 804.126 136.656 822.369 160.725 823.652L193.327 825.386C204.078 825.976 214.518 823.583 224.125 819.074C244.414 809.571 246.738 787.478 236.923 767.466C233.004 759.455 228.009 752.657 221.905 746.171L215.662 739.547C191.073 728.622 167.731 733.235 142.101 740.067C141.997 737.848 143.419 736.634 145.292 735.489C165.754 725.709 192.217 722.934 212.159 730.217C215.558 717.246 219.755 705.94 224.749 694.286C232.171 677.015 237.27 659.777 240.148 640.979L246.669 598.493C248.368 587.395 255.166 578.898 266.299 576.366L286.97 571.684C288.045 571.441 290.334 572.724 290.646 573.522C290.958 574.32 289.987 576.782 289.155 577.094L289.12 577.06ZM708.847 564.019C701.182 567.175 695.078 566.724 688.731 563.915L675.448 558.054C664.176 565.372 650.65 565.857 639.864 558.574C637.471 556.944 636.361 554.239 637.887 551.36L647.979 554.828C655.02 557.221 662.372 556.597 668.615 552.678C680.546 545.152 689.078 561.314 702.847 557.846C705.171 557.256 708.257 555.244 708.986 553.545C711.518 547.649 705.067 542.134 697.679 538.77C688.35 534.504 671.321 523.267 676.523 520.423C678.049 519.591 681.899 521.047 683.563 521.984L702.847 532.666C709.159 536.134 714.916 540.47 716.824 547.684C717.969 551.984 716.581 556.597 714.153 559.892C718.94 564.539 722.477 569.568 725.668 575.152C730.905 584.412 740.339 587.881 743.772 583.788C747.414 579.453 743.46 568.389 739.333 561.453C729.587 545.117 716.651 528.816 699.309 520.874C690.743 516.955 682.176 513.175 672.639 512.238C647.806 509.776 626.823 528.088 624.014 552.47C623.285 558.782 623.147 564.99 625.921 570.747C630.118 579.487 636.638 587.222 645.482 591.002L665.251 599.43C670.766 601.788 675.448 605.395 678.639 610.424L687.483 624.297C689.46 627.419 692.512 629.534 696.153 630.471C699.517 631.372 704.789 627.211 702.882 624.332L691.679 607.268L681.378 593.187C680.789 592.389 680.719 590.031 681.101 589.164C681.483 588.297 684.396 588.019 685.228 588.817C689.598 592.979 695.46 598.493 698.72 603.834C704.685 613.58 712.35 626.205 722.512 623.395C724.489 622.84 726.708 619.997 727.576 617.499C720.5 614.309 715.749 609.8 711.934 603.488C708.119 597.175 703.957 591.279 699.101 585.522L692.477 577.684C691.818 576.886 692.199 573.834 693.101 573.765L696.396 573.487C705.864 580.493 713.113 588.47 718.246 598.91C723.587 606.713 732.015 612.956 737.876 608.829C739.194 607.892 741.032 604.702 740.755 602.967L739.333 593.256C730.558 592.736 724.558 587.256 719.841 580.216L709.02 564.054L708.847 564.019ZM526.313 617.014C524.926 611.187 520.764 607.268 516.047 604.251L481.295 581.915C476.37 578.759 473.249 573.418 475.711 572.239C476.405 571.892 478.937 571.614 479.735 572.1L495.411 582.193C506.093 589.094 528.464 605.326 533.666 596.412C538.868 587.499 519.203 574.84 509.007 568.701C496.452 561.279 484.972 553.545 473.839 544.111C473.561 542.689 473.353 541.129 473.353 540.262C473.353 539.394 476.266 539.464 477.029 539.915L487.261 546.019L509.492 560.031C513.723 559.926 517.504 554.967 517.504 551.603C517.504 546.921 514.105 543.973 509.284 542.967C500.197 541.094 491.388 538.84 482.787 535.059C473.284 530.897 463.85 528.574 453.584 527.048C438.012 524.724 422.509 528.019 410.3 538.077C393.202 552.158 383.075 577.753 393.237 597.557C397.815 606.505 404.266 614.031 412.485 619.997C427.399 630.783 442.763 640.286 459.341 648.193C468.775 652.702 480.463 651.904 480.255 645.8C480.22 644.656 478.555 642.922 477.203 642.228C466.694 636.956 437.249 619.892 442.208 614.898C443.041 614.066 445.191 614.066 446.474 614.829L481.607 636.02C490.035 641.118 502.452 642.991 504.394 636.956C506.024 631.789 501.619 627.835 497.527 625.58C483.723 617.985 470.891 610.112 459.549 599.222C458.37 598.112 457.815 595.615 458.474 594.574C459.168 593.464 462.359 593.326 463.573 594.262C477.862 604.979 492.116 614.378 508.313 622.008C512.163 623.812 516.984 624.471 521.146 624.505C525.03 624.505 527.388 621.002 526.417 616.979L526.313 617.014Z" fill="#161616"/>
<path d="M478.026 216.959C466.619 227.068 441.036 225.027 425.642 215.23C414.305 207.961 412.232 195.708 418.633 184.528C428.717 166.98 449.221 160.002 467.491 169.587C476.023 174.086 483.198 181.123 485.596 191.018C487.778 200.085 485.178 210.592 478.026 216.959ZM431.394 206.454C430.994 194.822 437.891 188.987 434.366 184.403C427.195 184.829 421.416 192.024 423.363 199.21C424.29 202.479 428.56 205.57 431.394 206.454ZM474.77 204.28C475.132 201.719 471.751 197.214 469.383 197.518C464.694 199.604 463.4 206.987 464.785 210.918C469.005 212.266 474.236 208.649 474.812 204.34L474.77 204.28Z" fill="#161616"/>
<path d="M521.786 219.171C521.305 232.357 538.121 248.034 554.444 252.649C566.505 256.016 576.62 250.489 580.878 239.994C587.539 223.495 580.298 206.087 562.404 199.463C554.031 196.382 544.634 195.619 536.031 199.606C528.158 203.271 522.108 210.888 521.786 219.171ZM561.412 242.734C570.075 236.456 566.103 229.837 571.536 229.578C575.527 234.533 573.781 242.379 567.411 245.139C564.488 246.367 563.752 244.1 561.412 242.734ZM532.919 214.183C534.556 212.505 539.846 212.196 541.045 213.923C542.345 218.18 537.776 223.183 534.1 224.482C530.593 222.465 530.076 216.991 532.851 214.19L532.919 214.183Z" fill="#161616"/>
</svg>
