<svg width="876" height="876" viewBox="0 0 876 876" fill="none" xmlns="http://www.w3.org/2000/svg">
<path d="M557.772 698.61C553.034 695.725 548.158 692.324 544.278 688.134L533.977 676.937C540.913 694.591 553.858 726.534 546.132 741.44C542.218 748.963 534.218 751.539 526.32 747.829C526.938 754.802 524.294 762.152 518.457 766.445C511.521 771.494 502.697 769.296 496.413 763.217C495.383 768.025 493.46 772.49 490.404 774.86C481.752 781.592 469.047 776.234 465.476 770.979L457.167 758.786C457.235 764.041 455.965 769.399 452.016 773.28C443.982 781.146 429.663 775.788 422.659 763.594L416.341 749.272C412.083 739.586 408.203 730.312 400.855 722.481C383.756 704.346 373.317 687.172 369.025 662.167C359.789 656.775 352.578 649.734 345.848 641.387C331.427 623.424 319.993 603.846 309.177 583.512L303.546 572.934C298.086 576.746 294.962 581.486 293.108 587.325C285.725 610.818 287.511 633.556 276.97 659.385C268.866 679.272 252.11 693.698 230.821 696.927C215.816 699.194 201.739 696.549 187.626 691.534C168.947 684.905 151.607 676.731 135.057 664.469C133.031 669.38 131.28 673.777 128.43 677.933C119.434 690.985 102.815 694.625 89.0809 686.382C82.1793 682.226 77.3722 675.528 74.282 667.869C64.8738 644.376 72.6681 611.986 81.3552 588.046C83.9648 580.868 87.5701 574.445 93.0983 569.499C105.013 558.817 118.885 561.565 132.482 569.018L139.246 570.289L159.505 578.154L155.59 550.883C150.406 514.647 153.427 465.977 167.574 431.836C166.784 425.447 166.509 419.093 167.883 412.601C171.317 396.424 177.291 381.758 184.09 366.645C195.97 340.163 210.529 315.639 226.461 291.39C239.818 271.023 255.372 253.643 275.768 240.282C282.223 236.057 287.923 231.936 294.756 228.123C321.881 212.839 351.376 203.153 383.344 201.161C380.047 189.551 383.241 177.873 391.516 168.874C393.747 158.227 397.284 148.575 403.327 139.439C412.873 124.91 425.165 112.339 441.132 104.954C455.828 98.1536 477.219 96.9171 492.636 102.894C530.956 84.93 575.799 110.828 599.148 142.908C614.599 164.134 618.445 190.753 613.088 216.273C611.165 225.444 608.315 233.619 603.234 241.621C630.119 241.621 659.099 246.121 684.782 254.914C690.791 248.079 695.392 240.385 699.513 232.039C705.693 219.502 715.96 201.264 729.454 205.385C733.849 206.725 736.218 212.289 735.635 216.96C735.017 222.009 733.059 226.371 731.274 231.489L747.481 217.956C754.623 211.98 766.228 208.03 771.413 214.556C774.091 217.956 774.435 222.318 772.443 226.612L773.233 227.574C777.903 225.581 781.645 224.345 786.212 224.723C793.388 225.272 797.577 232.313 795.586 239.183C794.247 243.717 791.603 248.182 788.307 251.651L779.517 260.89C789.199 257.387 800.771 256.15 804.788 263.398C809.046 271.023 801.526 280.434 793.972 285.277L763.447 304.82C755.79 309.732 748.923 315.124 744.15 323.093C742.639 325.6 743.91 329.997 745.523 332.332L752.425 342.224C757.095 348.922 758.125 357.921 754.554 364.996C750.983 372.072 742.88 374.613 735.944 370.595C730.862 367.641 726.81 363.382 723.48 358.436C716.2 347.651 704.56 349.403 695.633 337.725C689.384 341.915 682.791 344.388 675.409 344.903C657.794 346.071 640.557 345.487 622.977 343.77C608.006 342.327 594.1 343.941 579.679 347.891C560.931 353.009 542.527 357.783 525.256 366.714L509.53 374.854L489.683 399.584C467.09 423.283 452.875 457.527 443.158 488.646C465.614 496.58 486.662 504.377 508.088 513.307C522.268 519.215 535.866 524.916 548.639 533.297C560.519 541.094 569.79 551.055 580.022 560.843C594.547 574.754 608.521 588.493 620.711 605.014C640.763 586.844 670.327 578.738 692.783 595.259C710.432 612.158 706.243 632.835 695.667 653.34C681.177 681.436 655.528 710.494 629.192 727.667L613.603 736.048C606.53 739.86 598.049 740.204 590.461 737.388C581.567 734.09 574.803 727.873 569.412 720.18L557.669 698.678L557.772 698.61ZM566.15 214.522C565.567 218.025 565.223 221.666 563.678 223.177C561.446 225.307 557.566 223.83 555.575 222.456L545.858 216.102C533.153 204.492 523.539 190.238 516.946 174.816C494.593 189.242 467.365 193.158 442.539 184.227C440.788 183.609 438.625 182.716 437.32 182.544C431.277 187.937 422.144 196.627 418.298 193.845C414.143 190.856 419.637 183.678 415.688 174.61C414.006 170.763 410.607 169.493 406.624 169.802C400.615 170.283 396.082 174.404 393.164 179.419C386.297 191.2 389.455 205.626 401.439 212.667C403.224 213.732 404.529 215.827 404.701 218.128C405.731 233.344 408.718 248.491 416.787 261.749C427.397 279.197 442.608 293.211 461.115 301.523C497.787 318.009 516.946 319.986 552.523 294.986C557.085 290.986 560.523 288.986 563.023 285.986C567.523 281.986 568.523 280.986 569.523 279.486C580.023 265.486 578.773 266.986 580.523 263.486C581.523 261.486 583.523 258.142 582.666 254.879C583.902 253.059 585.138 250.998 585.653 249.281L589.602 236.538C578.992 231.558 572.194 223.349 566.219 214.487L566.15 214.522ZM382.966 437.915C377.403 418.475 375.824 398.622 377.541 378.117C378.536 366.13 378.674 354.658 378.674 342.602C378.674 316.258 373.935 289.673 354.982 271.057C348.526 265.081 341.934 260.375 333.212 258.555L331.839 256.288C329.538 252.441 365.248 255.189 379.395 296.714C389.352 325.978 385.713 359.089 384.58 390.379C383.309 425.825 392.82 445.781 411.259 474.014L429.801 502.385L439.381 475.594C447.072 454.058 455.931 433.897 468.463 414.044C462.077 416.86 457.029 420.02 451.158 421.326C460.463 413.357 470.386 407.93 478.936 399.756C491.984 387.219 502.079 372.553 512.38 357.749C517.221 350.777 521.444 344.491 527.694 338.034C528.655 339.167 528.964 341.846 528.277 343.117L517.977 362.077L533.016 355.207C554.407 346.449 576.314 340.335 598.907 336.282C606.805 330.512 612.436 323.745 618.513 316.12C617.724 321.788 614.427 326.356 610.444 329.997L603.955 335.904L631.973 336.797C645.811 337.965 659.339 338.274 673.245 337.862C697.178 337.141 711.634 310.178 705.144 289.604C702.122 280.022 695.839 267.107 685.675 263.054C665.863 255.154 644.918 252.922 624.11 249.453C615.217 247.976 606.667 247.701 597.98 247.873L593.173 252.922L585.653 268.486C577.55 282.396 564.228 293.211 551.042 302.347C531.368 315.983 505.547 320.826 482.061 315.949C470.352 313.51 459.502 310.316 449.166 304.168C430.281 292.902 415.036 277.068 405.765 256.94C400.237 244.953 398.692 232.245 397.353 219.399C392.511 216.651 389.043 213.285 386.537 208.442C375.618 209.541 364.768 210.194 354.02 212.907C341.9 215.964 330.328 219.742 318.86 224.62C308.044 229.222 298.327 235.027 288.335 240.969C264.917 254.879 246.754 273.461 232.092 296.268C213.653 324.948 196.554 353.902 184.055 385.673C179.763 396.527 176.33 406.9 174.578 418.303C172.999 428.504 175.437 437.743 182.064 445.746C205.653 474.323 238.822 488.543 274.085 500.53C261.758 460.619 259.973 421.016 256.986 380.109C256.471 368.809 256.299 358.299 257.466 347.342L259.115 345.934C259.424 345.659 260.213 346.964 260.522 347.411L266.188 407.587C268.42 430.427 270.171 452.547 275.253 475.044C278.892 491.291 283.356 506.644 289.468 522.134C298.464 545.009 309.005 566.442 320.439 588.149C329.161 604.739 338.981 619.852 350.346 634.621C355.874 641.834 361.815 648.188 369.231 653.649C368.819 632.698 381.489 608.38 396.494 595.877C415.551 580.043 444.016 573.93 465.957 587.428C461.562 567.198 452.394 549.921 441.372 533.331L412.804 490.226C404.392 477.517 396.529 465.187 389.215 451.826C376.545 447.326 364.047 449.353 351.411 453.2C361.54 443.823 375.515 444.51 387.636 447.91L384.957 441.659C384.511 440.594 383 439.083 382.21 438.465L381.592 438.156L372.905 436.095C363.154 433.759 354.02 433.759 343.41 434.687C355.565 427.233 371.189 430.29 382.176 437.537L383.103 437.915H382.966ZM751.498 282.529C750.708 282.941 747.893 280.846 748.236 280.022L749.438 277.136C761.044 268.481 771.516 259.276 781.851 249.143C784.976 244.884 788.753 240.522 789.302 235.13C789.68 231.523 784.495 230.15 781.508 231.18C775.018 233.447 769.216 236.985 763.962 241.518L739.549 262.539C738.725 263.226 736.493 263.535 735.532 263.398C734.708 263.26 733.506 260.753 734.193 260.1L746.828 247.564C754.76 239.698 767.671 228.054 766.64 219.09C762.932 216.995 758.056 218.781 754.897 221.357L729.694 242.274L719.806 250.449C719.222 250.93 716.818 250.998 716.544 250.311L715.72 248.079L727.497 222.318C728.218 219.502 729.866 214.384 728.081 212.392C725.231 209.85 721.145 212.736 719.016 214.831C713.179 221.219 708.818 228.157 705.144 235.989C701.47 243.82 696.491 251.273 691.032 257.73C716.235 276.14 722.312 309.388 700.44 333.431C704.526 337.278 709.402 340.679 714.93 342.98C728.733 348.75 730.656 359.913 740.407 364.515C741.918 365.237 744.734 365.408 745.833 364.721C751.017 361.527 750.262 351.36 745.558 344.182L739.274 334.565C729.763 320.036 747.103 306.572 760.735 297.882L790.848 278.682C794.934 276.072 798.711 272.087 799.5 267.382C797.818 265.046 793.148 263.741 790.195 264.6C780.787 267.382 772.1 271.297 763.447 275.934L751.498 282.391V282.529ZM157.136 669.861C170.08 677.967 183.918 682.741 198.099 687.275C208.022 690.469 218.323 691.191 228.624 689.851C242.599 688.031 254.617 680.44 262.789 669.14C269.106 660.416 273.57 650.936 275.39 640.323L280.712 608.929L285.622 587.05C286.79 581.829 289.399 577.433 292.49 573.105C294.893 570.426 297.606 568.4 301.211 567.129C291.597 547.792 283.15 528.488 276.248 508.43C253.415 501.904 232.367 493.214 212.383 481.296C198.477 472.984 186.493 462.954 176.261 450.555L171.007 442.346C159.264 480.128 158.097 522.546 164.449 561.187C166.647 583.1 172.347 603.125 179.351 625.279C170.87 616.245 167.024 604.327 162.732 592.511C161.016 603.296 162.149 614.013 164.037 625.691C156.312 613.497 156.209 598.316 160.26 584.852C152.397 582.757 145.702 580.421 138.594 577.33C136.259 576.3 132.448 575.613 130.25 577.021C109.477 590.245 105.837 618.203 115.898 640.632C117.511 644.238 120.361 646.849 123.623 648.875L157.136 669.861ZM537.068 669.964L555.781 689.267C556.605 677.967 558.974 667.766 563.987 657.565C574.013 637.06 592.589 614.906 614.977 608.895L601.757 593.267L568.005 559.401C559.936 551.295 551.798 543.67 541.978 537.693C527.797 529.038 512.757 523.165 497.409 517.017L471.794 506.747L441.372 494.382L434.47 508.979L457.922 546.04L465.923 562.767C470.661 572.659 473.236 582.826 473.889 593.851C479.623 602.335 495.417 601.854 503.693 607.727L519.968 619.268C527.453 624.557 534.836 628.679 543.557 631.598C548.673 633.281 554.27 635.377 558.184 639.12C565.773 646.368 563.85 658.561 555.506 664.4C549.978 668.247 543.935 669.14 536.999 670.033L537.068 669.964ZM128.808 660.69L116.104 652.31C112.086 649.665 109.648 645.131 107.932 640.632C99.6909 619.062 101.751 595.843 117.202 578.429C119.469 575.887 122.319 574.101 124.962 572.212C110.198 565.961 97.974 569.945 90.8664 583.959C86.643 592.271 84.2052 600.961 82.042 610.131C77.3722 629.95 73.6296 651.795 83.3468 669.999C87.3641 677.486 94.7121 682.947 103.193 683.531C111.674 684.115 120.43 679.478 123.864 671.819L128.842 660.656L128.808 660.69ZM512.689 761.224C518.217 759.267 520.037 749.649 519.007 742.196C515.539 717.741 508.706 703.212 497.821 682.192C495.211 677.177 493.701 672.197 494.113 665.946C497.306 667.766 499.194 670.411 500.911 673.433L510.594 690.779C518.388 704.689 522.612 719.87 525.462 735.601C526.046 738.864 527.591 741.2 530.338 742.333C533.084 743.467 536.587 743.02 538.475 740.238C541.428 735.876 541.84 730.209 540.879 724.782C538.132 709.463 533.634 694.797 527.11 680.509C522.303 669.964 515.848 660.725 510.113 650.73C508.191 647.398 507.092 644.169 506.645 640.254C514.44 642.933 519.556 652.653 524.157 659.9L534.767 661.824C544.931 663.679 557.154 657.565 555.815 649.15C555.403 646.642 553.515 643.551 550.905 642.487L540.638 638.365C530.2 635.136 521.307 630.087 513.032 622.943C505.375 616.314 496.516 611.231 486.593 608.964C477.46 606.869 471.245 602.026 464.274 596.049C454.798 587.909 441.132 586.192 429.045 588.527C412.907 591.653 399.722 600.308 390.383 613.635C381.421 626.206 376.717 640.7 375.961 656.157C378.193 676.937 387.086 695.072 400.718 710.665C406.28 717.02 411.602 723.237 415.929 730.484C424.788 745.356 425.406 762.152 438.316 768.643C440.136 769.571 444.222 769.743 445.939 768.746C458.06 761.534 441.2 722.996 433.715 708.776C432.307 706.097 431.037 702.697 432.067 699.812C432.616 698.232 436.393 699.056 437.183 700.499L452.188 728.423L465.476 758.133C467.708 763.114 471.588 767.166 476.223 769.605C480.55 771.906 486.73 770.567 488.276 765.621C491.572 755.076 483.983 733.128 478.455 722L461.871 688.477C460.841 686.382 460.841 683.257 462.798 681.642C465.51 682.947 468.257 685.798 469.734 688.615L479.245 706.269C486.353 719.458 491.331 732.922 495.452 747.348C497.855 755.798 504.86 764.007 512.757 761.19L512.689 761.224ZM597.946 677.246L616.934 654.851L639.836 628.438C653.948 614.528 676.954 598.66 694.671 610.028C691.993 603.09 686.156 598.488 679.254 595.98C667.82 591.824 655.7 593.336 644.643 598.144C635.098 602.3 627.544 608.517 620.196 615.971L605.74 630.637C604.779 625.347 607.938 622.806 609.655 618.409C584.211 632.079 565.773 660.519 562.202 688.889C565.223 700.018 572.022 713.104 580.675 721.622C577.035 705.445 587.817 690.641 597.911 677.246H597.946ZM614.359 727.736C633.209 717.775 648.97 703.624 663.082 687.516C675.889 672.918 686.431 657.496 693.916 639.601C697.796 630.293 699.89 617.963 692.783 612.227C690.07 610.028 686.465 609.925 682.619 610.715C662.91 614.631 647.356 629.503 634.48 644.547L610.307 672.884C599.01 686.107 582.426 706.132 585.962 722.927C587.988 732.613 602.032 734.262 614.359 727.736Z" fill="#161616"/>
<path d="M489.864 247.482C480.87 255.165 461.08 253.204 449.306 245.369C440.635 239.556 439.219 230.01 444.351 221.422C452.436 207.941 468.429 202.824 482.435 210.537C488.975 214.156 494.426 219.726 496.13 227.446C497.68 234.52 495.503 242.642 489.864 247.482ZM453.898 238.638C453.768 229.598 459.202 225.168 456.542 221.556C450.98 221.781 446.391 227.284 447.788 232.893C448.456 235.446 451.716 237.909 453.898 238.638ZM487.537 237.587C487.857 235.603 485.307 232.055 483.469 232.256C479.803 233.808 478.686 239.522 479.698 242.595C482.947 243.704 487.056 240.972 487.568 237.634L487.537 237.587Z" fill="#161616"/>
<path d="M530.953 268.896C536.376 278.541 554.371 283.177 567.22 280.073C576.695 277.749 581.005 269.811 579.261 260.611C576.497 246.161 564.108 236.522 549.34 238.802C542.438 239.883 535.866 243.028 531.891 249.268C528.258 254.989 527.559 262.829 530.953 268.896ZM565.353 272.679C568.371 264.773 565.026 259.132 568.52 256.812C573.329 258.797 575.587 265.11 572.559 269.592C571.153 271.622 567.501 272.74 565.353 272.679ZM536.173 260.944C536.529 259.098 539.907 256.797 541.456 257.565C544.173 260.107 543.318 265.49 541.443 267.867C538.236 267.798 535.508 264.075 536.13 260.976L536.173 260.944Z" fill="#161616"/>
<path d="M503.384 302.725C488.516 297.367 478.352 300.218 472.309 295.237C468.326 291.94 469.081 285.689 472.687 281.911C482.679 271.4 500.019 269.649 512.036 277.48C518.251 281.533 520.071 287.612 518.32 294.276C516.569 300.939 510.491 305.301 503.384 302.725ZM498.336 295.546C495.727 288.368 489.443 284.693 482.885 283.078C480.378 283.147 477.94 283.834 476.429 285.311C475.365 286.341 473.992 289.57 474.953 290.703C477.082 293.176 480.344 293.348 483.194 293.726L498.302 295.581L498.336 295.546Z" fill="#161616"/>
</svg>
