<svg width="1440" height="990" viewBox="0 0 1440 990" fill="none" xmlns="http://www.w3.org/2000/svg">
<path d="M-130.264 -304.938L-128.916 181.554L-38.8641 1053.15M18.6007 -320.364C16.4318 -120.767 27.9724 -16.8195 51.3883 166.817C117.403 728.886 96.6171 743.491 109.397 1028.75M167.299 -328.511C165.228 -129.981 249.963 39.1897 273.194 221.853C322.315 774.245 255.232 735.738 257.612 1013.43M314.712 -331.223C343.028 -134.685 483.88 -42.2609 502.086 228.257C519.481 777.723 436.192 740.421 404.784 1007.13M459.432 -333.754C524.17 -136.092 720.724 -50.7242 717.204 220.988C710.086 770.316 604.12 736.328 549.504 1004.6M604.394 -332.697C695.708 -148.83 885.155 -12.7961 909.214 168.427C980.865 708.133 787.657 759.195 711.888 1008.08M768.587 -332.935C859.929 -147.015 1115.8 8.51608 1111.76 184.27C1099.37 723.61 944.824 769.911 871.165 1018.99M903.566 -336.67C1019.98 -149.872 1233.31 5.4054 1256.99 178.39C1323.49 664.103 1082.28 775.851 1004.94 1026.15M1040.95 -340.51C1157.36 -153.711 1360.7 11.4107 1384.52 171.609C1455.1 646.234 1230.01 782.128 1152.67 1032.43M1185.19 -350.218C1270.47 -159.521 1457.29 31.7909 1484.65 188.299C1555.33 592.632 1338.91 785.612 1302.2 1029.57M1333.87 -365.63C1419.15 -174.934 1540.11 42.4364 1567.47 198.944C1638.15 603.278 1435.19 780.934 1450.88 1014.16M1477.63 -382.514C1536.95 -182.862 1620.2 58.1815 1629.02 216.428C1652.34 634.762 1561.63 758.007 1577.33 991.232M-276.027 -174.382C-276.027 -174.382 306.662 -307.312 813.676 -272.95C1320.69 -238.589 1628.02 -300.724 1628.02 -300.724M-269.037 -70.5203C-269.037 -70.5203 207.276 -241.153 714.29 -206.792C1221.3 -172.43 1635.01 -196.862 1635.01 -196.862M-262.321 29.1333C-262.321 29.1333 -84.8665 -97.131 342.544 -133.114C558.167 -151.268 1019.84 -122.061 1333.24 -88.0604C1620.28 -56.9185 1642.15 -90.825 1642.15 -90.825M-255.073 136.972C-255.073 136.972 -1.90998 -12.5663 425.5 -48.5498C641.124 -66.7031 1049.1 -40.1029 1340.48 19.7783C1618.94 77.0023 1649.4 17.0138 1649.4 17.0138M-245.442 244.189C-245.442 244.189 -24.0262 53.6355 460.637 42.9015C945.299 32.1674 1060.87 45.1828 1344.9 121.202C1630.17 197.554 1653.82 118.506 1653.82 118.506M-241.732 335.2C-241.732 335.2 24.2009 160.261 508.856 149.445C993.51 138.628 1067.43 160.511 1349.83 230.218C1704.54 317.775 1657.52 209.51 1657.52 209.51M-228.937 453.553C-228.937 453.553 3.96342 254.253 521.651 267.798C1039.34 281.343 1084.3 270.948 1362.62 348.572C1667.79 433.682 1670.33 327.863 1670.33 327.863M-221.77 560.044C-221.77 560.044 48.26 374.223 558.69 387.581C1069.12 400.939 1117.27 434.689 1385.93 479.684C1654.59 524.678 1677.49 434.353 1677.49 434.353M-214.799 663.635C-214.799 663.635 14.4532 481.88 533.97 522.605C1053.49 563.33 1157.94 572.521 1403.88 602.825C1649.82 633.129 1684.47 537.944 1684.47 537.944M-212.368 771.518C-212.368 771.518 86.8004 623.95 562.619 661.245C1038.44 698.54 1176.38 738.88 1414.37 722.863C1652.37 706.847 1691.53 642.937 1691.53 642.937M-205.31 876.39C-205.31 876.39 39.9612 753.252 515.78 790.547C991.598 827.843 1215.96 860.408 1421.43 827.736C1626.91 795.063 1698.59 747.809 1698.59 747.809M-198.655 1011.15C-198.655 1011.15 45.0579 900.745 520.876 938.04C996.695 975.335 1226.52 981.48 1432 948.808C1637.47 916.136 1705.24 882.571 1705.24 882.571M546.988 -335.05C249.483 -335.334 -22.6952 -335.595 -285.449 -278.489L-190.702 1093.44C-190.702 1093.44 120.206 976.791 723.887 1012.24C1327.57 1047.69 1342.5 1053.72 1715.06 956.732L1623.29 -406.948C1221.32 -334.405 869.29 -334.742 546.988 -335.05Z" stroke="#161616" stroke-opacity="0.12"/>
</svg>
