<svg width="105" height="124" viewBox="0 0 105 124" fill="none" xmlns="http://www.w3.org/2000/svg">
<g clip-path="url(#clip0_481_157)">
<path d="M11.4128 116.634C-0.798452 110.669 -2.99704 95.3213 3.79477 84.9167C6.56751 80.6737 11.2448 78.5312 16.4121 79.2174C17.1123 75.4925 18.2186 72.3557 20.1651 69.0089L6.02137 39.7838C1.83425 31.1577 2.28237 18.5687 3.99083 8.86435C4.45295 6.25972 7.14167 4.57931 9.63433 5.40551C20.4172 8.99038 30.822 16.1741 35.8913 26.5366L51.0574 57.4981C55.1465 53.2691 59.3616 50.4964 65.1451 49.7963L69.3182 42.2204C66.6575 40.47 66.2794 38.1034 66.9236 35.9469C67.7078 33.3003 70.5646 32.7121 73.5194 33.2582C76.2641 29.4353 75.5359 23.848 72.8052 19.2129L99.1602 0.47632L100.631 0.014208C101.051 -0.111823 101.555 1.10647 101.765 1.6526L102.577 33.9444C97.7038 34.6166 92.9285 37.1372 90.828 41.3382C92.5925 43.0886 94.1749 45.7073 93.4747 47.6677C92.4244 50.6084 89.8617 51.2806 86.6829 50.6645L83.9941 57.3581C89.2175 63.5616 90.926 71.0954 89.4136 79.6515C94.819 79.2034 99.8604 80.8558 102.773 85.6169C105.91 90.8262 105.714 97.3097 102.297 102.519C102.731 107.672 101.149 112.237 97.7318 116.228C88.9375 124.868 72.5111 126.535 64.571 116.27C60.3979 121.76 53.8021 124.966 46.7582 123.748C40.4145 122.656 35.1771 117.881 32.7125 111.439C27.4331 118.441 18.7648 120.233 11.3988 116.634H11.4128ZM98.9221 8.6543L95.0011 16.3422C97.0876 18.5547 97.2697 21.2433 95.7013 23.3859C94.2449 25.3743 91.1781 26.1865 88.8674 24.7722C86.7669 23.4839 85.7026 20.9773 86.5148 18.3726C87.327 15.768 89.6797 15.1239 92.6625 14.8438L96.3315 6.09168L76.5582 20.0391C78.5747 24.9402 78.4067 29.8414 76.6002 34.5466L88.0832 40.1619C90.5059 35.5548 94.8751 33.0342 99.7624 31.3958L98.9221 8.6823V8.6543ZM15.6419 25.0803L24.2262 27.7969L28.3853 20.4311C25.6126 17.5044 22.4758 14.9418 18.9888 13.0654C14.9698 17.2384 11.2168 19.689 5.61526 20.7112L6.42747 32.11L12.7712 32.9782L15.6419 25.0803ZM90.996 17.8685C89.0775 18.3166 88.8254 20.1791 89.3856 21.2153C89.7637 21.9295 91.4301 22.6997 92.2844 22.5036C93.1946 22.2936 94.0068 20.4872 93.7408 19.4089C93.5587 18.6247 91.9623 17.6445 90.996 17.8685ZM47.2063 64.1077L49.1529 60.0747L30.6679 22.9518L26.4808 29.6034L41.7589 61.307L47.1923 64.1077H47.2063ZM38.0479 60.2428L23.8901 30.8777L17.2244 28.6511L15.3619 34.6866L28.8335 61.4891L38.0479 60.2428ZM26.3268 62.9734L12.8412 36.0589L7.23969 35.0087L11.3848 44.489L22.0836 66.3483L26.3268 62.9874V62.9734ZM81.8236 54.9215L84.0222 49.4182L71.8809 43.5087L68.7161 49.5162C74.0935 50.3004 77.9025 51.9808 81.8236 54.9215ZM64.0388 111.593C64.3469 110.977 66.1674 111.313 66.2934 111.887C67.1337 115.444 69.4303 117.965 72.7912 119.141C80.8153 121.928 90.2258 120.065 95.8693 113.918C100.533 108.274 100.869 100.643 95.5612 95.6993L95.2252 93.8509C95.1411 93.4028 97.1297 93.1087 97.4097 93.4588L101.261 98.1219C103.025 93.6549 102.003 88.2075 98.25 84.7907C92.2003 79.2734 85.4225 86.7652 85.6466 82.0601C87.8592 75.6605 87.3971 68.7568 84.2462 62.7354C80.0031 55.0615 71.1247 50.7485 62.6385 53.2551C55.4265 55.3836 51.1554 61.209 48.2846 68.8269C40.6526 61.307 29.6597 61.5171 23.316 69.597C20.3332 73.392 19.507 77.845 18.8908 82.9703C13.9195 81.0378 8.99016 82.1861 6.32945 86.2471C3.8928 89.986 2.85652 94.089 2.94055 98.6261C3.09459 107.266 9.38226 114.884 18.2886 115.556C23.6801 115.962 29.6457 112.615 31.5082 107.406L32.6705 100.811C32.7685 100.264 33.8748 99.4662 34.3929 99.4522C34.813 99.4522 35.8773 99.9424 35.7793 100.348L35.2612 102.421C33.0906 110.991 39.2802 120.135 48.2846 121.045C55.1185 121.732 60.93 117.895 64.0248 111.635L64.0388 111.593Z" fill="#161616"/>
<path d="M59.8377 105.908L53.8021 96.4974L51.4775 99.2281C50.9173 99.8863 48.2706 99.7742 47.7945 99.004L42.3751 85.5888C41.6329 83.7403 42.025 80.9817 43.3693 79.6094L48.7468 74.148C49.489 73.3919 52.4998 73.4759 52.8218 74.5121L56.5608 86.345L59.4176 83.9084C60.0758 83.3483 62.0503 85.0987 62.1203 85.9389L63.4787 104.073C63.5347 104.899 63.1006 106.286 62.5544 106.692C62.0083 107.098 60.2298 106.524 59.8237 105.894L59.8377 105.908Z" fill="#161616"/>
<path d="M64.837 60.7608C57.8492 61.461 57.289 69.765 56.1827 69.0788L54.4183 68.0005C54.9504 62.0211 62.0503 56.5598 65.3412 58.3802C65.8733 58.6743 65.4532 60.7048 64.837 60.7748V60.7608Z" fill="#161616"/>
<path d="M31.2981 73.938C26.6629 77.4528 29.1695 80.8557 27.8952 82.7041C27.6011 83.1242 26.1727 82.34 25.9067 81.7939C24.1842 78.265 26.7469 72.7057 30.3458 71.3754C30.836 71.1933 32.4604 71.9215 32.3204 72.3556C32.1803 72.7897 31.6762 73.6719 31.3121 73.952L31.2981 73.938Z" fill="#161616"/>
</g>
<defs>
<clipPath id="clip0_481_157">
<rect width="105" height="124" fill="white"/>
</clipPath>
</defs>
</svg>
