<svg width="132" height="121" viewBox="0 0 132 121" fill="none" xmlns="http://www.w3.org/2000/svg">
<g clip-path="url(#clip0_481_164)">
<path d="M74.8933 119.524C71.2801 119.214 69.5763 117.398 69.4588 114.092C69.3413 110.785 70.0904 107.508 72.602 105.176C70.3401 100.791 69.8554 96.673 70.5898 91.8313L34.9716 84.5834C33.4147 88.4213 31.1234 91.2113 28.4502 94.1045C28.7293 96.9387 28.6705 100.629 26.9227 103.478C25.4686 105.855 23.2067 107.168 20.3131 106.017L3.98022 99.5368C0.117304 98.0016 -0.661154 94.326 0.484501 90.7094C1.49796 87.5209 3.26051 85.0114 7.00592 85.3214C10.6338 68.449 14.5555 55.208 31.7697 49.3919L40.4208 8.67974C41.5812 3.18846 45.9141 -1.01857 51.9802 0.236159L77.0377 5.40268L89.5518 8.38451C94.3841 10.3625 96.8517 14.7319 95.7501 20.0904L91.6962 39.8117L127.726 59.8136C131.677 62.013 133.028 66.3529 131.265 70.3237C129.635 73.9994 124.553 75.7265 120.47 73.3351L88.5383 54.7356L87.2164 61.8064C93.7966 68.2129 98.2764 76.2726 98.3205 85.6167C98.3645 92.5103 96.2642 99.4482 95.0304 106.253C97.9386 108.025 99.2605 110.564 98.8639 114.077C98.4086 118.048 96.0879 121.384 91.5494 120.985L74.908 119.539L74.8933 119.524ZM73.9239 39.487C74.5114 37.5975 76.9349 35.5604 79.4172 35.3095C82.7073 34.97 85.3951 36.269 88.8468 38.1142L92.7244 20.0461C93.5763 16.0605 92.0781 12.1782 88.1271 11.0859L81.8407 9.32924L80.6656 12.0306C80.4159 12.5915 78.5212 12.9753 77.919 12.8425L60.3082 9.22591C59.427 9.04877 57.8407 8.3107 57.7379 7.57262L57.2972 4.35462L51.9655 3.23274C47.4417 2.27325 44.3278 4.95984 43.4172 9.21115L31.1381 66.7367C38.1883 63.8877 49.3951 58.0274 52.2299 63.7106C53.1846 65.6296 52.8909 67.5929 52.1418 70.3385L61.1161 72.4051C61.498 69.8809 62.3058 67.3419 64.083 66.3234C66.0218 65.2163 69.1797 65.5115 70.7954 67.1796L80.9888 77.7931L85.5714 52.8609C78.9618 49.3772 71.9998 45.6425 73.9239 39.487ZM122.041 70.7666C124.715 72.3313 127.828 70.7961 128.577 68.8476C129.473 66.5153 128.754 63.7844 126.33 62.4411L90.6387 42.6902L86.3645 49.9086L122.027 70.7666H122.041ZM48.9986 69.2757C49.8358 68.7886 50.2617 66.161 49.7183 65.482C49.1748 64.8029 47.6032 64.3749 46.3401 64.242C38.9227 66.4858 32.4747 69.32 25.777 73.2318C25.263 73.276 23.5738 72.7594 23.7795 72.2575L24.7048 70.1319C25.5861 69.9104 27.5836 68.9509 27.7746 68.0505L30.9178 52.9938C21.8407 56.3003 15.7599 64.0206 13.3217 73.0251L9.72318 86.3547L24.9839 92.4365C28.5237 90.178 31.1087 87.019 31.8872 82.9596C32.4894 79.8006 34.3401 77.9259 37.1014 76.3022L48.9839 69.2757H48.9986ZM71.6473 84.0519C73.542 86.9452 74.5114 89.3956 73.7183 92.5841C72.6754 96.7764 73.3658 101.943 76.5971 105.161L91.7256 106.608C95.6326 90.178 98.8933 78.6049 86.3939 65.3196L83.4417 81.1587L85.6889 84.6719C85.968 85.1148 85.9533 86.7533 85.4686 86.709L83.3388 86.5171C79.1528 80.214 74.7758 74.9736 69.3853 69.8514C68.225 69.1723 66.4331 68.5229 65.5812 68.9952C64.7293 69.4676 63.8333 72.1394 64.3621 72.9513L71.6473 84.0519ZM70.8835 88.569L62.2617 75.7707L49.498 72.9218L35.1773 81.3653L70.8982 88.569H70.8835Z" fill="#161616"/>
<path d="M114.888 39.7526C110.893 37.4055 105.4 38.8669 103.021 42.764C102.742 43.2216 101.302 43.7677 100.847 43.5611C98.247 42.3949 103.872 37.8927 96.3523 28.4305L95.3535 27.1758C95.0598 26.8068 95.7501 25.6111 96.2201 25.1683C106.487 28.3715 112.994 19.4408 114.081 20.9908C115.535 23.0869 112.612 26.4377 113.713 32.1209C114.507 36.1656 117.782 36.8446 117.444 38.9112C117.341 39.546 115.52 40.1217 114.903 39.7674L114.888 39.7526ZM103.77 37.3908C106.693 36.2246 109.307 35.6194 111.378 35.3685L110.335 26.4082L100.861 29.1686C102.183 32.0176 103.241 35.1175 103.77 37.3908Z" fill="#161616"/>
<path d="M73.1601 33.0066C65.9484 29.4491 63.8627 34.6156 62.0267 33.4052C59.897 31.9881 65.4784 28.032 60.9545 23.4412C60.6314 23.1164 60.1026 22.2012 60.0292 21.7879C59.941 21.2712 61.2189 20.4298 61.733 20.3412C68.1663 23.3969 71.1332 17.1823 73.9827 19.3818C71.2066 27.0577 76.2593 30.6448 75.2605 32.6966C75.0402 33.1395 73.6595 33.2576 73.1454 33.0066H73.1601ZM70.6926 28.7701L70.0316 23.264L65.449 24.4154L66.0218 28.7553H70.6779L70.6926 28.7701Z" fill="#161616"/>
<path d="M68.4013 53.3922C63.6571 50.9418 60.9104 54.8241 59.8382 53.6432C58.2226 51.8718 62.0855 49.5247 58.9863 45.982C58.6485 45.5982 58.296 44.683 58.2666 44.2401C58.2372 43.6792 59.8529 43.074 60.3964 43.2954C64.5237 44.9782 66.6681 41.3469 68.9594 41.8783C70.296 42.1883 67.7844 45.9082 70.2813 50.9418C70.6485 51.6651 70.8982 52.5361 70.6191 52.9789C70.3401 53.4218 68.9007 53.6432 68.4013 53.3922Z" fill="#161616"/>
<path d="M53.6399 76.494C56.0047 75.5493 58.1197 76.2726 58.7954 78.3539C59.2066 80.1401 59.0745 82.4429 56.2544 83.3728C55.1675 83.7419 53.1112 83.3138 51.9802 81.5424C51.0842 80.1106 51.3927 77.4092 53.6399 76.494Z" fill="#161616"/>
</g>
<defs>
<clipPath id="clip0_481_164">
<rect width="132" height="121" fill="white"/>
</clipPath>
</defs>
</svg>
