<svg width="128" height="124" viewBox="0 0 128 124" fill="none" xmlns="http://www.w3.org/2000/svg">
<path d="M2.48347 123.993C1.01672 123.993 -0.0143709 123.31 0.000151479 122.641C0.0146738 122.03 1.23455 121.012 1.96067 121.012H10.5143C8.13267 106.572 9.14923 92.001 14.5951 78.5496C17.8336 70.566 24.0492 64.8946 32.5012 63.1932C33.7646 57.7545 34.5198 52.563 34.4326 46.9497C29.0449 47.3569 25.6466 44.3467 24.6301 39.4897C16.7154 33.8619 14.1885 20.5414 19.5763 17.2549C20.6219 16.615 22.4662 16.8186 24.0637 17.2694C23.4828 10.9145 32.5157 2.93097 38.0342 2.37837C42.0424 1.97119 44.7145 3.81803 45.5277 8.22427C48.8824 3.26543 54.1395 0.342484 59.4692 0.0371015C65.5686 -0.32645 71.4356 1.98574 74.8919 6.79915C77.2445 10.0857 77.7673 14.2883 74.979 17.4439C74.1077 18.4182 71.697 18.9999 70.0124 19.2762C71.8858 29.0049 72.9024 39.0098 70.7821 48.6511C69.1992 56.8238 63.7387 61.23 55.156 62.8151C63.6952 63.5568 70.2738 67.0759 72.5248 75.3794L120.855 75.5394C122.932 75.5394 125.328 77.0081 126.388 78.0697C127.652 79.3494 128.392 82.2724 127.797 84.2355L118.009 116.824C117.515 118.467 118.081 121.507 116.513 122.772C114.945 124.037 112.679 123.95 110.457 123.95L2.48347 123.993ZM62.2284 23.8861C60.0501 24.2932 56.9568 24.2496 54.8075 22.6354C53.3117 19.5234 54.125 15.7425 52.1209 14.6664C49.3471 13.1686 43.3203 16.7459 40.6627 21.6466C39.7623 23.2898 38.0487 25.3403 36.7272 25.9365L34.1422 24.6422C32.3995 23.7697 29.8291 29.7029 33.7937 36.4504C32.0219 34.9962 28.8125 34.778 27.9266 37.0757C27.1279 39.1552 28.1009 41.8891 29.8871 43.0088C31.3394 43.925 33.3144 43.9832 35.6961 43.9541C36.5965 44.8848 37.6711 48.1276 37.4823 49.7564L35.8268 63.5713C35.4637 66.6542 40.0238 69.4172 42.4635 69.8535C45.7165 70.4351 49.7682 69.5772 51.7723 66.4942C52.3823 65.549 52.7308 63.0187 52.6727 62.0007L46.1667 59.8922C45.6584 59.7322 45.0921 57.8126 45.5422 57.5363C47.8658 56.0821 55.4029 62.088 62.4172 56.9547C71.1742 50.5416 69.417 31.8987 67.0789 20.1487L62.8238 23.7115L63.0272 24.046L65.4233 23.9442C66.0478 23.9151 66.5416 24.6422 67.0353 26.0819L61.0231 27.9578C60.8052 26.9981 60.6019 25.5875 61.0376 25.3257L62.7077 24.3223L62.2284 23.8861ZM34.665 79.5821C34.9264 79.1313 36.2189 78.3169 36.5529 78.6659L37.7873 79.9456L38.3827 99.7373L46.1231 97.6433L50.3782 83.4793C51.6997 79.0731 56.2452 75.932 60.7907 75.6994L69.417 75.2776C67.2241 69.3736 61.8508 65.6217 55.2722 66.4797C53.0648 70.9441 48.7226 72.9945 44.061 73.0672C39.3993 73.14 36.0301 69.9552 33.024 66.3779C26.4018 67.0759 20.5348 72.3256 17.8191 78.5932C12.0392 91.9574 11.0807 106.587 13.5495 121.041L40.2125 120.998L42.0569 114.643L45.0921 100.973L22.7422 108.23C22.0306 108.463 20.3605 108.026 20.2879 107.386C20.2298 106.863 20.8833 105.685 21.3916 105.525L35.2023 100.799C35.667 93.6006 35.4056 86.4023 34.6505 79.5821H34.665ZM85.0721 113.523L115.889 113.581L124.675 84.7881C125.096 83.3776 125.038 81.3417 124.413 80.5128C123.789 79.6839 121.581 78.4333 120.303 78.4333L62.2139 78.3751C57.2327 79.0731 53.82 81.1526 52.5711 85.8497L45.2373 113.567L85.0721 113.523Z" fill="#161616"/>
<path d="M96.0655 64.7057C90.1113 63.9931 81.9933 67.2215 79.4955 65.2437C79.0889 64.9238 79.0598 63.1788 79.3503 62.7134L83.3875 55.9805C75.2695 44.7104 77.1429 29.8339 87.7151 21.7485C98.636 13.4014 113.754 15.4082 122.119 26.5765C130.556 37.8465 127.71 53.2175 115.976 60.8084C109.862 64.7639 103.632 65.6073 96.08 64.7057H96.0655ZM94.0324 52.5049C87.8458 53.6392 89.6611 40.9149 93.0594 33.5566C94.7294 29.9502 97.692 27.1872 100.233 24.2061L104.038 19.7272C95.3975 19.1891 87.7878 23.7553 84.041 30.5028C80.0328 37.6866 80.6282 46.3246 85.2028 53.1593C85.7111 53.9155 86.7131 56.0386 86.2339 56.9112L83.0099 62.6989C87.0762 62.8152 91.7524 61.1429 95.8041 61.6809C103.864 62.7425 111.241 61.7246 117.384 55.9805C123.048 50.6872 125.633 42.4127 122.961 34.72C112.505 45.4375 109.107 49.7565 94.0324 52.534V52.5049ZM104.416 34.2256L114.814 23.4645L108.119 20.1925L98.2729 30.6191L104.401 34.2401L104.416 34.2256ZM121.828 31.4044L118.154 26.3292C117.82 25.8639 116.31 26.0384 115.932 26.4456L106.798 36.1887L111.212 42.1801L121.828 31.4044ZM102.049 47.6624L108.555 44.3177C106.115 38.8063 101.802 35.5489 96.5302 33.324C95.2958 35.8107 94.2793 38.53 93.8726 40.8277C97.4306 42.9363 99.304 44.7685 102.049 47.6624Z" fill="#161616"/>
<path d="M90.547 99.6357C88.0637 103.271 82.5016 104.813 79.5826 101.104C76.5765 97.2799 79.5536 92.0884 83.736 90.5905C86.4662 89.6162 89.2836 90.0234 90.7939 92.0011C92.6527 94.4151 92.4204 96.8872 90.5325 99.6357H90.547Z" fill="#161616"/>
<path d="M59.353 35.4907C59.0625 39.8679 62.9836 40.784 61.2409 43.7506C60.7181 44.6377 58.5833 45.2048 57.2327 44.914C56.6518 44.7976 55.5191 43.7797 55.3158 43.2271C55.0689 42.5727 56.8116 41.7002 57.8427 41.4675C56.7535 39.8533 55.9112 36.7413 56.5211 34.7055C56.6664 34.211 58.2783 33.4258 58.6414 33.7457C59.0045 34.0656 59.382 34.9527 59.353 35.4907Z" fill="#161616"/>
<path d="M55.0544 49.582C58.2057 51.3706 58.4236 48.9276 60.9359 49.4366C61.5313 49.5529 61.4878 51.487 61.0231 51.9087C60.0646 52.7521 57.741 53.6247 56.3904 53.4792C55.0399 53.3338 53.2681 51.9523 52.3532 50.789L53.2827 49.2039C53.4714 48.884 54.7058 49.3784 55.0544 49.582Z" fill="#161616"/>
<path d="M47.6044 27.5071L44.4095 28.3651C43.9738 28.4815 42.5652 29.0486 42.478 28.6269L42.0714 26.6055C43.6834 24.7878 48.0256 23.9589 49.8409 24.9623C50.2475 25.195 50.3927 26.8964 49.9861 26.9836L47.6044 27.5217V27.5071Z" fill="#161616"/>
<path d="M65.3943 35.8688C64.8134 35.7525 64.0147 34.1965 64.0437 33.6293C64.0728 33.0622 65.1765 31.7534 65.6993 31.9134C66.4544 32.1461 67.1225 33.0331 67.2241 33.5421C67.4274 34.4292 66.7304 36.116 65.3798 35.8688H65.3943Z" fill="#161616"/>
</svg>
