<svg width="114" height="112" viewBox="0 0 114 112" fill="none" xmlns="http://www.w3.org/2000/svg">
<g clip-path="url(#clip0_481_142)">
<path d="M19.6817 96.0496C19.2523 96.1747 18.2967 96.2719 18.2136 96.0496L17.5626 94.4796L29.0028 58.2995C29.4598 56.1042 31.3573 54.2285 33.6149 54.2424C39.7504 54.2841 45.429 52.3667 50.1103 48.2263C47.7558 45.7115 46.5093 42.5992 47.645 39.5008C48.7114 36.5692 51.6477 36.0551 54.39 35.7078L61.3566 29.122L76.4809 14.4221C84.5693 6.55802 97.6576 2.47317 108.945 1.08376C111.702 0.750306 114.042 2.88999 114.001 5.64101C113.862 14.9222 111.785 24.134 107.145 32.2898L102.948 38.0003L85.9543 55.0622C83.9183 57.1046 80.5112 59.147 79.5002 61.7035C78.6415 63.8988 78.3091 66.2052 76.7163 67.3028C75.1235 68.4005 72.0073 68.5116 70.4561 67.5946L66.121 64.9964C62.0768 69.0674 59.7361 74.5694 59.8746 80.4605C59.93 83.0309 58.5034 84.8094 56.0797 85.5041L19.6817 96.0219V96.0496ZM95.6771 28.5245L105.054 30.4141C107.256 26.2737 108.71 22.2861 109.624 17.8956C103.862 15.2974 99.7628 11.7961 96.9236 6.33572L85.428 11.1847L86.4252 18.4374L95.5663 18.6459L95.6771 28.5245ZM61.9798 41.0014L83.7244 19.285L82.6026 13.0465L70.4699 24.2591L57.2985 36.9443L61.9798 41.0014ZM81.3976 40.1539L92.8793 28.9691L92.7824 21.2996L85.7189 21.3413L63.9188 43.155L70.7469 50.3243L81.3976 40.14V40.1539ZM82.0209 54.8538L100.954 36.0273L103.184 33.0401L94.7076 31.2617L82.9488 42.6131L72.769 52.5474L78.3229 58.2578L82.0347 54.8677L82.0209 54.8538ZM34.0304 80.8634L23.9613 91.812L56.9384 82.2667C56.6475 74.7362 58.9605 68.1504 64.2097 62.7734L51.9385 50.3938C46.2184 55.4651 39.6673 57.2158 32.3545 57.2296L22.4101 88.7553L32.3822 78.3069C31.0803 74.9029 31.662 71.5266 34.7644 69.6648C37.299 68.1365 41.0939 68.5811 43.1299 71.1237C45.1658 73.6663 44.7088 77.3482 42.8944 79.5852C40.6507 82.3362 37.299 81.6276 34.0581 80.8773L34.0304 80.8634ZM36.5511 71.9851C34.252 73.1661 33.9057 75.5698 35.1938 77.3205C36.0802 78.5292 38.13 79.2239 39.8889 78.3764C41.3293 77.6817 41.9111 75.2086 41.2601 73.5968C40.6091 71.9851 38.3793 71.0542 36.5372 71.999L36.5511 71.9851Z" fill="#161616"/>
<path d="M21.6345 105.831L15.1804 106.192L14.0031 111.333C9.26641 112.139 5.26374 112.347 0.485464 111.097C-0.290141 106.54 -0.0269892 102.524 0.513164 97.842L4.79284 96.6888L4.87594 88.2273L6.84265 87.9772C7.20275 87.9355 7.61826 88.9081 7.61826 89.2832V96.6749L14.4602 97.6891L15.1942 103.094L21.6622 103.177C22.0085 103.177 22.8949 104.011 23.1026 104.289C23.3658 104.664 22.1193 105.803 21.6484 105.831H21.6345Z" fill="#161616"/>
<path d="M8.01991 21.6331C8.00606 22.1194 7.25815 23.2726 6.9119 23.5782C6.56565 23.8839 5.29144 22.7168 5.29144 22.2444L5.24989 15.7559L0.928666 14.3248C0.499314 10.0871 0.360813 5.54376 1.33032 1.19492C5.38839 -0.472371 10.7345 -0.319537 14.8757 1.20881C16.2746 5.57154 15.776 10.1288 14.8757 14.7555L8.19996 15.6864L8.00606 21.6192L8.01991 21.6331Z" fill="#161616"/>
<path d="M94.2228 104.872C90.0539 106.039 86.6191 105.122 87.187 103.525C87.7133 102.038 91.3835 102.08 94.5275 103.08L95.2477 96.397C99.8182 95.1743 104.126 95.3549 109.07 96.4248C109.887 100.676 110.067 105.4 108.835 109.68C104.638 111.208 99.9152 110.916 95.5109 109.916L94.2089 104.872H94.2228Z" fill="#161616"/>
<path d="M51.4814 105.706L44.1686 105.748C43.6839 105.748 42.562 104.997 42.4928 104.594C42.4097 104.094 43.116 103.302 43.6285 102.899L51.0244 102.774C51.5784 102.774 52.6172 103.358 52.8942 103.733C53.2404 104.192 52.174 105.72 51.4953 105.72L51.4814 105.706Z" fill="#161616"/>
<path d="M7.77061 80.919C7.77061 81.5442 7.25815 82.6558 6.89805 83.0031C6.53795 83.3505 4.87594 82.6141 4.87594 82.1L4.84824 74.5833C4.84824 74.1109 5.41609 73.0689 5.80389 72.8049C6.28865 72.4714 7.75676 73.4579 7.75676 74.1248V80.919H7.77061Z" fill="#161616"/>
<path d="M7.85371 66.1913C7.85371 67.0527 6.92575 68.3449 6.34405 68.2893C5.76234 68.2337 4.83439 67.0805 4.84824 66.4553L4.94519 59.5083C4.94519 59.1192 5.52689 58.2439 5.79004 58.0077C6.15015 57.6743 7.74291 58.369 7.74291 58.9247L7.85371 66.2052V66.1913Z" fill="#161616"/>
<path d="M65.7609 105.581L59.1683 105.678C58.545 105.678 57.3816 104.817 57.3677 104.233C57.3539 103.65 58.5588 102.705 59.2098 102.719L66.7581 102.774C67.2429 102.774 67.9077 104.456 67.5614 104.789C67.2151 105.122 66.2456 105.581 65.7609 105.595V105.581Z" fill="#161616"/>
<path d="M7.90911 51.0329C7.90911 51.6998 7.272 53.1448 6.7734 53.2976C6.2748 53.4505 5.52689 52.7836 4.98674 52.0889L5.12524 43.9053C5.12524 43.4745 6.67645 42.5714 6.98115 42.891C7.28585 43.2105 7.85371 44.2109 7.86756 44.7667L7.92296 51.0329H7.90911Z" fill="#161616"/>
<path d="M81.3976 105.414L73.7801 105.47C73.323 105.47 72.2843 104.594 72.2427 104.164C72.2012 103.636 73.323 102.594 73.9324 102.594H80.8298C81.3145 102.594 82.3671 103.302 82.6857 103.608C83.0042 103.914 81.8408 105.414 81.3838 105.414H81.3976Z" fill="#161616"/>
<path d="M37.2159 105.692L29.5568 105.887C29.2105 105.887 28.1441 105.373 27.8532 105.192C27.4516 104.956 27.9225 103.163 28.3934 103.15L37.1466 103.011C37.6868 103.052 37.7699 105.65 37.2297 105.692H37.2159Z" fill="#161616"/>
<path d="M7.86756 38.042L5.83159 38.1809C5.34684 38.2087 5.11139 36.9582 5.12524 36.3747L5.24989 28.858C5.24989 28.1216 7.97836 28.0938 7.96451 28.858L7.86756 38.042Z" fill="#161616"/>
</g>
<defs>
<clipPath id="clip0_481_142">
<rect width="114" height="112" fill="white"/>
</clipPath>
</defs>
</svg>
