<svg width="133" height="128" viewBox="0 0 133 128" fill="none" xmlns="http://www.w3.org/2000/svg">
<g clip-path="url(#clip0_481_231)">
<path d="M74.9198 125.014H103.877C104.495 125.27 105.371 125.813 105.657 126.22C106.019 126.733 104.586 127.849 103.786 128H27.4025C26.648 127.578 25.8181 127.05 25.4409 126.688C24.9731 126.25 26.7386 124.953 27.2969 124.999L61.6861 124.803L44.4236 116.96L4.46627 97.2781C0.316617 95.2421 -1.08672 90.5064 0.859844 86.4644L39.8213 5.3691C41.8735 1.11601 47.0794 -1.29709 51.2743 0.723881L93.9025 21.2202C95.155 20.089 96.9808 18.9126 98.3238 19.0182C100.165 19.169 101.462 20.4812 102.624 22.3513L120.324 17.5402C125.244 16.213 129.891 18.6261 131.913 22.8188C133.679 26.4837 133.618 32.426 129.348 34.7034C125.787 36.6037 121.728 37.2824 117.578 38.4286L115.632 43.4358L79.2052 117.624L74.9348 124.999L74.9198 125.014ZM67.9031 111.877C62.3048 110.369 57.5516 108.559 52.7078 106.192L16.7794 88.6664C13.2937 86.9621 11.7395 83.1313 13.52 79.4212L44.4538 15.0818C46.5965 10.6327 51.1385 9.72777 54.9562 11.5678L89.0286 27.9618L93.978 26.6496C93.5555 24.9906 93.0877 24.2516 91.9107 23.6785L51.1083 4.02681C47.683 2.38289 44.1067 3.58944 42.3563 7.23926L3.8325 87.5201C2.39899 90.5064 3.28927 93.387 6.21666 94.8047L52.8889 117.458L70.1062 124.154C71.7358 123.234 73.7126 121.756 74.5727 120.007L113.866 39.982L108.223 41.0227C108.63 44.5066 107.408 46.4069 104.375 47.5079L74.8443 107.549C73.6975 109.872 70.8305 112.692 67.9182 111.892L67.9031 111.877ZM78.5865 49.4082C75.5686 50.283 73.1844 49.4082 70.408 48.1112C64.8852 50.0567 59.1964 51.0823 58.0043 46.3014C57.6119 44.7027 58.2306 41.8673 59.9961 41.1735L67.1637 38.323C68.0389 35.6083 69.4573 33.7683 72.1433 32.969L84.3659 29.2739L53.8999 14.4484C52.904 13.9658 50.6556 13.5586 49.7804 13.9507C48.9052 14.3428 47.5472 15.6851 46.9587 16.8766L16.6134 80.0094C16.1155 81.05 15.7986 82.9051 16.0702 83.7195C16.2965 84.4284 17.3981 85.5143 18.1827 85.9064L44.2727 98.7562L66.3338 108.574C68.2652 109.434 70.8606 108.454 71.8415 106.448L100.859 47.5381L98.4294 43.662L78.6016 49.4233L78.5865 49.4082ZM126.451 32.8181C128.548 32.245 130.072 29.6509 129.952 27.7355C129.816 25.4582 128.835 23.1959 127.492 22.0195C126.149 20.8431 122.89 19.9231 121.049 20.451L103.243 25.5034L106.955 38.1873L126.451 32.8332V32.8181ZM98.1276 40.6607L94.9135 29.6057L71.3737 36.6791C69.2008 39.1375 71.4039 46.9197 75.2065 46.4974C83.038 45.6227 89.9943 42.4555 98.1276 40.6607Z" fill="#161616"/>
<path d="M55.288 66.8127C54.277 68.8337 51.9532 69.8894 49.8709 68.8638L38.4782 63.2383C37.4219 62.7255 35.9431 60.1465 36.4713 59.0908L43.0956 45.9846C43.9104 44.3708 46.4002 44.0692 47.8036 44.778L59.2868 50.66C61.0523 51.5649 61.9426 53.5557 60.9768 55.4711L55.288 66.7976V66.8127Z" fill="#161616"/>
<path d="M42.4468 89.9935C41.647 91.547 39.2025 92.286 37.6332 91.5017L26.9346 86.1929C24.0676 84.7752 24.5203 81.7739 25.6973 79.572L31.7331 68.2304C32.6687 66.4658 35.8375 67.1445 37.3163 67.9589L48.2261 73.9163C49.6445 74.7005 48.7995 77.7169 48.1506 78.9687L42.4468 89.9935ZM39.4892 88.9227L46.1286 76.0277L34.1173 70.0402L27.5986 83.1011L39.5043 88.9227H39.4892Z" fill="#161616"/>
<path d="M76.2777 79.1194C75.6138 80.4165 72.3695 80.2053 71.1473 79.6021L61.6861 74.9568C60.4638 74.3536 58.1702 71.9103 58.804 70.6585L65.383 57.4166C66.213 55.7576 68.8687 55.1091 70.4381 55.9235L81.876 61.8507C82.8115 62.3333 83.732 64.5654 83.2642 65.5005L76.2928 79.1345L76.2777 79.1194ZM73.7578 77.3549L80.2765 64.4598L68.3859 58.4572L61.7012 71.307L73.7427 77.3398L73.7578 77.3549Z" fill="#161616"/>
<path d="M63.5824 100.546C62.9185 101.843 59.6742 101.632 58.452 101.029L48.9908 96.3838C47.7685 95.7806 45.4749 93.3373 46.1086 92.0855L52.6877 78.8436C53.5177 77.1846 56.1734 76.5361 57.7427 77.3505L69.1807 83.2777C70.1162 83.7603 71.0367 85.9924 70.5689 86.9275L63.5975 100.562L63.5824 100.546ZM61.0625 98.7819L67.5812 85.8868L55.6906 79.8842L49.0058 92.734L61.0474 98.7668L61.0625 98.7819Z" fill="#161616"/>
<path d="M40.7416 109.178L31.9746 105.075C30.9183 104.261 32.4725 100.475 33.8457 100.491L42.1902 104.261C43.5936 104.894 42.658 108.288 40.7416 109.178Z" fill="#161616"/>
<path d="M110.546 29.123C110.018 29.2889 108.192 28.4745 108.298 28.007C108.404 27.5394 109.037 26.3027 109.505 26.167L116.446 24.0404C116.778 23.9349 118.106 24.2365 118.136 24.5683L118.272 26.6496L110.561 29.123H110.546Z" fill="#161616"/>
</g>
<defs>
<clipPath id="clip0_481_231">
<rect width="133" height="128" fill="white"/>
</clipPath>
</defs>
</svg>
