<svg width="105" height="132" viewBox="0 0 105 132" fill="none" xmlns="http://www.w3.org/2000/svg">
<path d="M83.5771 131.986H21.5715C20.9573 131.986 19.7289 131.044 19.8166 130.494C19.9336 129.741 21.2498 129.002 22.1126 129.002L49.006 129.046C44.4872 123.499 40.7435 118.127 37.497 111.986C35.5374 107.222 34.4991 102.443 33.8702 97.2586L34.0311 72.8281C24.6425 69.3525 16.9357 63.6323 9.57985 57.159C3.73027 52.018 -2.98213 46.6453 1.41968 42.3443C8.54155 35.3641 15.9413 29.0501 24.2184 23.4313C27.6843 21.0708 31.3842 19.3475 35.2449 17.7834C55.0896 9.73165 74.5833 17.0449 90.1432 30.5562L102.632 41.4174C104.913 43.3869 105.937 47.297 103.846 49.6575C95.0861 59.5629 84.5715 67.1803 72.068 72.1619L71.7902 91.7411C71.6147 97.1138 70.8396 102.211 69.5527 107.41C66.4817 115.172 62.5624 121.95 57.6195 129.06L83.4308 129.017L85.0248 130.161C85.4636 130.479 84.3083 132 83.5771 132V131.986ZM96.5924 52.8724L100.38 49.1506C101.053 48.4845 101.989 47.0363 101.886 46.2398C101.784 45.4433 100.906 43.72 100.292 43.1987L87.9496 32.685C73.6182 20.4915 56.9615 13.3665 38.4622 19.724C24.9642 24.445 12.7386 35.2772 2.42873 45.704C9.22887 53.4951 16.4385 59.476 24.6718 64.8342C48.3626 80.2427 77.3473 71.7564 96.5924 52.8724ZM68.2365 100.517L69.0555 73.2046L62.6209 74.9858L62.4162 96.4911C64.0687 98.0985 65.7066 99.4164 68.2512 100.517H68.2365ZM45.3062 96.1725L45.7156 75.6086L37.0436 73.9142L36.9559 97.8668L37.6432 101.053L45.3062 96.1725ZM54.1537 102.11L59.4914 96.6359L59.6523 75.3334L48.772 75.9127L48.2456 96.4042L54.1537 102.11ZM67.403 104.036L60.9246 99.5322L54.0952 106.295L46.4761 98.9529L37.9503 104.528C39.559 109.206 41.4601 113.319 44.0631 117.214C50.5269 114.883 56.0109 114.564 62.27 116.287L67.403 104.036Z" fill="#161616"/>
<path d="M14.2156 22.3307C14.669 22.823 14.4789 24.1843 13.9817 24.5898C13.4844 24.9953 12.2999 24.5029 11.7149 23.8802L6.0701 17.9283C5.66063 17.5083 5.48514 16.2194 5.71912 15.785C6.0116 15.2491 7.70798 15.2491 8.2052 15.785L14.2156 22.3451V22.3307Z" fill="#161616"/>
<path d="M93.5506 23.3299C93.1704 23.7354 91.591 23.996 91.0792 23.8657C90.5673 23.7354 90.6404 21.8673 91.0207 21.4762L96.958 15.4519C97.2505 15.1623 98.5959 15.1767 98.8737 15.4084C99.254 15.7126 99.3417 17.0449 98.9761 17.4504L93.5652 23.3299H93.5506Z" fill="#161616"/>
<path d="M70.2985 8.83379C70.0353 9.70269 68.8215 10.5861 68.1342 10.5137C67.4907 10.4557 67.0227 8.81931 67.2713 8.0373L69.4942 1.17301C69.6697 0.651673 70.8103 0 71.2783 0C71.7463 0 72.4482 1.47713 72.302 1.9695L70.2839 8.83379H70.2985Z" fill="#161616"/>
<path d="M38.4183 7.7187C38.7546 8.22556 38.7546 9.78958 38.2867 10.1516C37.7163 10.5716 36.1223 10.0068 35.6836 9.25376L31.7644 2.6791C31.5597 2.33154 32.6418 0.825453 33.022 0.955787C33.5339 1.14405 34.4844 1.67987 34.8354 2.21569L38.4329 7.7187H38.4183Z" fill="#161616"/>
<path d="M72.5652 60.7504C62.7525 72.7267 44.6481 71.6406 34.6014 60.4463C27.9914 53.0896 26.5583 43.0394 31.4719 34.1042C35.6397 26.5159 43.99 20.897 53.0422 20.9694C62.0945 21.0418 69.6258 26.791 74.13 34.1911C79.2191 42.547 79.2045 52.6552 72.5798 60.7504H72.5652ZM67.1544 61.9234C75.9434 55.0881 76.9378 43.0828 70.7957 34.4373C66.5402 28.4564 60.1641 23.7788 52.428 23.9526C44.692 24.1264 38.2282 28.7605 34.6161 34.7269C29.1759 43.72 31.2672 53.7268 38.974 60.5332C46.6808 67.3395 58.5116 68.6429 67.1544 61.9234Z" fill="#161616"/>
<path d="M55.5137 57.8251C48.0701 58.6216 40.9482 53.9006 39.1641 47.0073C37.2922 39.7665 41.4308 33.1629 48.114 30.4693C54.256 27.993 60.6759 30.5273 64.4636 35.8565C67.3591 39.9403 68.646 44.8496 66.2623 49.8023C64.5367 53.3793 60.8222 57.2603 55.5137 57.8251ZM54.5924 43.9952C56.6105 41.4174 55.7769 38.0143 53.4078 36.2041C51.1996 34.5242 48.4649 34.5821 46.2129 36.8847C44.3556 38.7818 43.8584 41.9243 46.1544 44.111C48.4503 46.2977 52.3695 46.8336 54.607 43.9807L54.5924 43.9952Z" fill="#161616"/>
</svg>
