<svg width="119" height="107" viewBox="0 0 119 107" fill="none" xmlns="http://www.w3.org/2000/svg">
<g clip-path="url(#clip0_481_215)">
<path d="M118.999 96.4004L106.221 104.732C104.702 105.721 102.623 106.67 100.502 106.67L6.5938 106.986C3.26925 106.986 0.683479 103.879 0.300402 101.088C-0.0826741 98.2976 -0.082674 95.4106 0.245677 92.6885C0.779248 88.2891 4.32271 85.897 8.646 85.6358L8.71441 11.9332C8.71441 9.5686 10.5203 6.84651 12.9693 6.80527L25.7203 6.51656C26.5411 2.58466 29.2364 0.0137995 32.6977 5.15785e-05C36.1591 -0.0136963 38.9364 2.72214 39.5521 6.68154H81.9367C82.7576 3.87696 84.3173 1.37484 86.8894 0.467481C91.24 -1.07229 95.0161 2.19972 95.919 6.65404L105.564 7.01149C107.644 7.09397 109.847 10.036 111.352 11.3421C113.445 13.1431 114.444 14.8478 114.444 17.7074L114.361 90.0626C114.361 90.7638 113.951 92.2485 114.512 92.5922C115.579 93.2384 117.549 94.6682 119.013 96.4004H118.999ZM36.5832 6.69528C36.1865 4.49562 34.531 2.79088 32.684 2.81837C30.7413 2.84587 28.9354 4.48187 28.7575 6.64029L36.5832 6.69528ZM92.9776 6.83276C92.6218 5.04554 90.9801 3.06584 89.2699 2.92836C87.3272 2.77713 85.5486 4.59185 84.8372 6.65404L92.9776 6.83276ZM92.8271 18.1198C91.7873 20.8694 89.2973 21.598 87.2314 21.3781C85.4665 21.1856 82.8534 19.7008 82.8808 17.5561C82.9218 14.6691 82.6619 12.1807 81.4305 9.55485L28.4018 9.52735L28.566 11.8095C31.398 11.4383 32.9714 11.8095 34.5994 13.418C35.6803 14.4766 36.1865 16.7588 35.5298 18.4223C34.5447 20.9381 31.6306 21.598 29.3321 21.1168C27.7861 20.8006 25.2825 18.546 25.5971 16.6213C26.0349 13.8717 26.076 11.6858 25.1593 9.44487L13.7491 9.49986C12.9556 9.49986 11.5054 10.7784 11.5054 11.8782L11.3686 85.5258L24.9404 85.8283L101.61 85.622L106.891 86.0757L106.96 12.4419C106.96 10.9709 106.071 9.63734 104.415 9.63734L85.1929 9.60984L84.8372 11.5895C84.6456 12.6894 88.6953 10.3797 91.6915 13.5142C92.5534 14.4216 93.3606 16.6625 92.7997 18.1198H92.8271ZM99.271 94.7507L100.256 88.4679L21.0413 88.5504L19.7279 94.8744L99.271 94.7507ZM109.682 99.0675L109.327 92.661L103.307 88.949C101.61 94.0358 102.007 98.3526 103.54 103.082L109.682 99.0675ZM100.598 103.907L99.1068 97.514L19.7005 97.7477C19.6321 99.9886 19.7963 102.051 20.2888 104.14L100.612 103.907H100.598Z" fill="#161616"/>
<path d="M82.1691 79.4905C81.7313 80.3291 79.6928 81.1402 79.0361 80.7553C78.3794 80.3703 77.6543 79.023 77.3807 78.1294L77.4627 66.1962C68.4468 69.427 59.4581 66.7187 53.3016 59.5285C46.2694 63.3229 38.3753 61.7144 33.4774 56.2428C28.5794 50.7711 27.6765 41.9587 32.4923 35.8959C37.5954 29.4618 45.9684 27.3309 53.3563 31.1253C59.8139 24.4301 69.0624 21.4468 77.969 24.705C90.5968 29.3243 95.6999 44.1033 89.557 56.1603L99.476 65.2476C100.42 66.1138 101.337 67.1586 101.2 68.4234C101.063 69.7844 99.3802 70.3619 97.9437 70.2244L87.5185 69.2483L82.1554 79.4905H82.1691ZM55.6958 58.2087C61.9345 64.7252 70.1706 66.3337 77.5722 63.1992L77.8869 52.3658C77.9279 50.8398 79.9528 48.0628 81.7176 49.4375L87.4775 53.9194C90.0769 48.214 90.0769 41.7525 86.9576 35.9233C84.4539 31.2491 79.4192 27.2209 73.3584 26.396C66.7913 25.5024 60.5253 27.9771 55.7642 32.7476C59.4171 35.9371 61.2778 40.0752 61.483 44.6945L68.6794 44.722L68.7204 47.3204L61.4693 47.4716C60.9631 51.8572 58.692 54.978 55.6821 58.2087H55.6958ZM51.3862 57.1226C49.6623 53.7131 48.691 50.7024 47.8838 47.4578C46.8303 47.4853 44.6823 47.3066 44.1625 46.578C43.8341 46.1243 44.6003 44.6395 45.1475 44.6258L47.7059 44.5433C48.5131 40.5426 49.6213 36.8582 51.3725 33.27C46.9808 31.5378 42.2881 31.6615 38.4026 34.2461C35.2833 36.3083 32.3829 39.8003 32.1776 44.4608L37.6228 44.612C38.2384 44.6258 39.374 45.2994 39.4561 45.8768C39.5382 46.4542 38.3753 47.4716 37.6912 47.4578L32.3144 47.3204C32.8617 51.8709 35.8032 55.3217 39.1688 57.1639C43.109 59.3223 47.8427 59.3773 51.3725 57.1226H51.3862ZM50.88 47.7328C51.4546 50.3174 52.3439 52.9158 53.9035 55.6241C60.4979 50.3587 60.3611 40.5289 53.8899 35.0985C51.9061 38.288 51.0168 41.4913 50.9347 44.4883L53.5068 44.942C53.8625 45.0107 54.0404 46.2343 54.1088 46.8804L50.8937 47.7328H50.88Z" fill="#161616"/>
<path d="M23.189 47.3616L15.8558 47.2929C15.4864 47.2929 14.6656 46.6192 14.4603 46.3718C14.1867 46.0418 15.1718 44.6808 15.5959 44.6808L23.3669 44.5983C23.8184 44.5983 24.7624 45.5606 24.8581 45.9731C24.9813 46.4955 23.7636 47.3616 23.1753 47.3616H23.189Z" fill="#161616"/>
<path d="M79.7475 45.6569C79.5286 48.4752 73.2626 47.994 73.3447 45.8218C73.3857 44.3508 77.8732 43.9521 79.7475 45.6569Z" fill="#161616"/>
</g>
<defs>
<clipPath id="clip0_481_215">
<rect width="119" height="107" fill="white"/>
</clipPath>
</defs>
</svg>
