<svg width="670" height="670" viewBox="0 0 670 670" fill="none" xmlns="http://www.w3.org/2000/svg">
<path d="M198.048 447.507C109.749 447.507 53.314 398.323 53.314 314.557C53.314 232.711 116.659 172 206.878 172C239.894 172 278.285 181.606 293.258 191.212L294.794 236.938L290.954 237.707C275.982 202.74 239.51 179.301 193.825 179.301C132.783 179.301 85.5624 220.031 85.5624 298.418C85.1785 370.657 128.944 439.822 208.798 439.822C250.26 439.822 282.508 417.92 297.481 376.421L301.704 376.805L295.561 426.758C277.518 436.748 241.046 447.507 198.048 447.507Z" fill="#1C1C1C" fill-opacity="0.13"/>
<path d="M337.105 443.665V438.669C349.006 435.211 352.461 426.373 352.461 394.865V238.859C352.461 195.055 344.399 184.296 329.043 179.685V174.69H375.496L475.696 340.301L573.977 174.69H617.359V179.685C602.003 184.296 593.941 195.055 593.941 238.859V394.865C593.941 426.373 597.396 435.211 609.297 438.669V443.665H547.104V438.669C558.621 435.211 562.46 426.373 562.46 394.865V205.814L464.947 370.657H457.652L359.371 208.888V379.495C359.371 423.299 368.585 434.058 385.477 438.669V443.665H337.105Z" fill="#1C1C1C" fill-opacity="0.13"/>
<path d="M69.0276 467.333V498.571H64.8657L49.1405 474.478V498.571H45V467.333H49.1405L64.93 491.491V467.333H69.0276Z" fill="#1C1C1C"/>
<path d="M93.147 470.101L82.8065 498.571H78.5803L90.4868 467.333H93.2113L93.147 470.101ZM101.814 498.571L91.4522 470.101L91.3878 467.333H94.1124L106.062 498.571H101.814ZM101.278 487.007V490.397H83.729V487.007H101.278Z" fill="#1C1C1C"/>
<path d="M119.519 467.333V498.571H115.378V467.333H119.519Z" fill="#1C1C1C"/>
<path d="M150.825 495.203V498.571H135.207V495.203H150.825ZM136.022 467.333V498.571H131.882V467.333H136.022Z" fill="#1C1C1C"/>
<path d="M177.047 490.676C177.047 489.946 176.933 489.303 176.704 488.745C176.489 488.173 176.103 487.658 175.545 487.2C175.002 486.742 174.244 486.306 173.271 485.891C172.313 485.477 171.097 485.055 169.624 484.626C168.08 484.168 166.685 483.66 165.441 483.102C164.197 482.53 163.131 481.879 162.244 481.15C161.358 480.42 160.678 479.584 160.206 478.64C159.734 477.696 159.498 476.616 159.498 475.4C159.498 474.184 159.749 473.062 160.249 472.032C160.75 471.002 161.465 470.108 162.394 469.35C163.338 468.578 164.461 467.977 165.763 467.548C167.064 467.119 168.516 466.904 170.118 466.904C172.463 466.904 174.451 467.355 176.082 468.256C177.726 469.143 178.978 470.308 179.836 471.753C180.694 473.183 181.123 474.714 181.123 476.344H177.004C177.004 475.171 176.754 474.134 176.253 473.233C175.753 472.318 174.995 471.603 173.979 471.088C172.964 470.559 171.677 470.294 170.118 470.294C168.644 470.294 167.429 470.516 166.471 470.959C165.512 471.402 164.797 472.003 164.325 472.761C163.868 473.519 163.639 474.385 163.639 475.357C163.639 476.015 163.775 476.616 164.046 477.159C164.332 477.689 164.769 478.182 165.355 478.64C165.956 479.097 166.714 479.519 167.629 479.906C168.559 480.292 169.667 480.664 170.954 481.021C172.728 481.522 174.258 482.08 175.545 482.695C176.832 483.31 177.891 484.003 178.72 484.776C179.564 485.534 180.186 486.399 180.587 487.372C181.002 488.33 181.209 489.417 181.209 490.633C181.209 491.906 180.951 493.057 180.437 494.087C179.922 495.117 179.185 495.996 178.227 496.726C177.269 497.455 176.117 498.02 174.773 498.421C173.443 498.807 171.955 499 170.311 499C168.866 499 167.443 498.8 166.042 498.399C164.654 497.999 163.388 497.398 162.244 496.597C161.114 495.796 160.206 494.809 159.52 493.636C158.848 492.449 158.511 491.076 158.511 489.517H162.63C162.63 490.59 162.838 491.512 163.253 492.285C163.667 493.043 164.232 493.672 164.947 494.173C165.677 494.673 166.499 495.045 167.415 495.288C168.344 495.517 169.31 495.632 170.311 495.632C171.755 495.632 172.978 495.431 173.979 495.031C174.98 494.63 175.738 494.058 176.253 493.315C176.782 492.571 177.047 491.691 177.047 490.676Z" fill="#1C1C1C"/>
<path d="M212.221 481.236L216.898 477.91C217.799 477.295 218.492 476.68 218.979 476.065C219.479 475.436 219.729 474.578 219.729 473.491C219.729 472.647 219.4 471.882 218.743 471.195C218.085 470.494 217.155 470.144 215.954 470.144C215.124 470.144 214.423 470.337 213.851 470.723C213.279 471.109 212.85 471.624 212.564 472.268C212.278 472.897 212.135 473.591 212.135 474.349C212.135 474.993 212.292 475.658 212.607 476.344C212.922 477.031 213.358 477.746 213.916 478.49C214.473 479.233 215.11 480.02 215.825 480.85L230.606 498.571H225.844L213.723 484.068C212.65 482.809 211.692 481.658 210.848 480.614C210.004 479.555 209.339 478.533 208.853 477.546C208.381 476.559 208.145 475.536 208.145 474.478C208.145 472.847 208.466 471.474 209.11 470.358C209.768 469.228 210.683 468.37 211.856 467.784C213.029 467.197 214.402 466.904 215.975 466.904C217.505 466.904 218.821 467.212 219.922 467.827C221.038 468.427 221.896 469.228 222.497 470.23C223.098 471.217 223.398 472.304 223.398 473.491C223.398 474.492 223.219 475.393 222.862 476.194C222.504 476.981 222.003 477.703 221.36 478.361C220.731 479.019 219.994 479.662 219.15 480.292L212.95 484.904C211.92 485.663 211.17 486.385 210.698 487.071C210.226 487.758 209.918 488.366 209.775 488.895C209.646 489.424 209.582 489.846 209.582 490.161C209.582 491.176 209.804 492.106 210.247 492.95C210.69 493.794 211.363 494.473 212.264 494.988C213.179 495.489 214.323 495.739 215.696 495.739C216.898 495.739 218.063 495.467 219.193 494.924C220.337 494.366 221.36 493.579 222.261 492.564C223.162 491.534 223.877 490.311 224.406 488.895C224.95 487.465 225.221 485.884 225.221 484.154H228.783C228.783 485.57 228.647 486.907 228.375 488.166C228.103 489.424 227.681 490.597 227.109 491.684C226.552 492.757 225.836 493.737 224.964 494.623C224.835 494.752 224.735 494.902 224.664 495.074C224.592 495.245 224.492 495.396 224.363 495.524C223.291 496.683 221.968 497.555 220.394 498.142C218.836 498.714 217.269 499 215.696 499C213.622 499 211.827 498.621 210.311 497.863C208.81 497.105 207.651 496.061 206.836 494.731C206.021 493.4 205.613 491.877 205.613 490.161C205.613 488.845 205.892 487.686 206.45 486.685C207.022 485.684 207.801 484.747 208.788 483.875C209.789 483.002 210.934 482.123 212.221 481.236Z" fill="#1C1C1C"/>
<path d="M273.889 495.203V498.571H258.271V495.203H273.889ZM259.087 467.333V498.571H254.946V467.333H259.087Z" fill="#1C1C1C"/>
<path d="M295.456 470.101L285.115 498.571H280.889L292.796 467.333H295.52L295.456 470.101ZM304.123 498.571L293.761 470.101L293.697 467.333H296.421L308.371 498.571H304.123ZM303.587 487.007V490.397H286.038V487.007H303.587Z" fill="#1C1C1C"/>
<path d="M334.035 490.676C334.035 489.946 333.92 489.303 333.691 488.745C333.477 488.173 333.091 487.658 332.533 487.2C331.989 486.742 331.231 486.306 330.259 485.891C329.301 485.477 328.085 485.055 326.612 484.626C325.067 484.168 323.673 483.66 322.428 483.102C321.184 482.53 320.119 481.879 319.232 481.15C318.345 480.42 317.666 479.584 317.194 478.64C316.722 477.696 316.486 476.616 316.486 475.4C316.486 474.184 316.736 473.062 317.237 472.032C317.737 471.002 318.452 470.108 319.382 469.35C320.326 468.578 321.449 467.977 322.75 467.548C324.052 467.119 325.503 466.904 327.105 466.904C329.451 466.904 331.439 467.355 333.069 468.256C334.714 469.143 335.965 470.308 336.824 471.753C337.682 473.183 338.111 474.714 338.111 476.344H333.992C333.992 475.171 333.741 474.134 333.241 473.233C332.74 472.318 331.982 471.603 330.967 471.088C329.951 470.559 328.664 470.294 327.105 470.294C325.632 470.294 324.416 470.516 323.458 470.959C322.5 471.402 321.785 472.003 321.313 472.761C320.855 473.519 320.626 474.385 320.626 475.357C320.626 476.015 320.762 476.616 321.034 477.159C321.32 477.689 321.756 478.182 322.343 478.64C322.943 479.097 323.701 479.519 324.617 479.906C325.546 480.292 326.655 480.664 327.942 481.021C329.715 481.522 331.246 482.08 332.533 482.695C333.82 483.31 334.878 484.003 335.708 484.776C336.552 485.534 337.174 486.399 337.574 487.372C337.989 488.33 338.197 489.417 338.197 490.633C338.197 491.906 337.939 493.057 337.424 494.087C336.909 495.117 336.173 495.996 335.215 496.726C334.256 497.455 333.105 498.02 331.761 498.421C330.43 498.807 328.943 499 327.298 499C325.854 499 324.431 498.8 323.029 498.399C321.642 497.999 320.376 497.398 319.232 496.597C318.102 495.796 317.194 494.809 316.507 493.636C315.835 492.449 315.499 491.076 315.499 489.517H319.618C319.618 490.59 319.825 491.512 320.24 492.285C320.655 493.043 321.22 493.672 321.935 494.173C322.664 494.673 323.487 495.045 324.402 495.288C325.332 495.517 326.297 495.632 327.298 495.632C328.743 495.632 329.966 495.431 330.967 495.031C331.968 494.63 332.726 494.058 333.241 493.315C333.77 492.571 334.035 491.691 334.035 490.676Z" fill="#1C1C1C"/>
<path d="M368.709 480.764V484.132H351.804V480.764H368.709ZM352.447 467.333V498.571H348.307V467.333H352.447ZM372.313 467.333V498.571H368.194V467.333H372.313Z" fill="#1C1C1C"/>
<path d="M404.349 495.203V498.571H387.808V495.203H404.349ZM388.645 467.333V498.571H384.505V467.333H388.645ZM402.161 480.764V484.132H387.808V480.764H402.161ZM404.134 467.333V470.723H387.808V467.333H404.134Z" fill="#1C1C1C"/>
<path d="M430.957 490.676C430.957 489.946 430.842 489.303 430.613 488.745C430.399 488.173 430.013 487.658 429.455 487.2C428.912 486.742 428.154 486.306 427.181 485.891C426.223 485.477 425.007 485.055 423.534 484.626C421.989 484.168 420.595 483.66 419.351 483.102C418.106 482.53 417.041 481.879 416.154 481.15C415.267 480.42 414.588 479.584 414.116 478.64C413.644 477.696 413.408 476.616 413.408 475.4C413.408 474.184 413.658 473.062 414.159 472.032C414.659 471.002 415.375 470.108 416.304 469.35C417.248 468.578 418.371 467.977 419.672 467.548C420.974 467.119 422.426 466.904 424.027 466.904C426.373 466.904 428.361 467.355 429.991 468.256C431.636 469.143 432.888 470.308 433.746 471.753C434.604 473.183 435.033 474.714 435.033 476.344H430.914C430.914 475.171 430.664 474.134 430.163 473.233C429.662 472.318 428.904 471.603 427.889 471.088C426.873 470.559 425.586 470.294 424.027 470.294C422.554 470.294 421.339 470.516 420.38 470.959C419.422 471.402 418.707 472.003 418.235 472.761C417.777 473.519 417.548 474.385 417.548 475.357C417.548 476.015 417.684 476.616 417.956 477.159C418.242 477.689 418.678 478.182 419.265 478.64C419.865 479.097 420.623 479.519 421.539 479.906C422.468 480.292 423.577 480.664 424.864 481.021C426.637 481.522 428.168 482.08 429.455 482.695C430.742 483.31 431.801 484.003 432.63 484.776C433.474 485.534 434.096 486.399 434.497 487.372C434.911 488.33 435.119 489.417 435.119 490.633C435.119 491.906 434.861 493.057 434.346 494.087C433.831 495.117 433.095 495.996 432.137 496.726C431.178 497.455 430.027 498.02 428.683 498.421C427.353 498.807 425.865 499 424.22 499C422.776 499 421.353 498.8 419.951 498.399C418.564 497.999 417.298 497.398 416.154 496.597C415.024 495.796 414.116 494.809 413.429 493.636C412.757 492.449 412.421 491.076 412.421 489.517H416.54C416.54 490.59 416.748 491.512 417.162 492.285C417.577 493.043 418.142 493.672 418.857 494.173C419.587 494.673 420.409 495.045 421.324 495.288C422.254 495.517 423.219 495.632 424.22 495.632C425.665 495.632 426.888 495.431 427.889 495.031C428.89 494.63 429.648 494.058 430.163 493.315C430.692 492.571 430.957 491.691 430.957 490.676Z" fill="#1C1C1C"/>
<path d="M472.524 470.101L462.183 498.571H457.957L469.863 467.333H472.588L472.524 470.101ZM481.191 498.571L470.829 470.101L470.764 467.333H473.489L485.438 498.571H481.191ZM480.654 487.007V490.397H463.106V487.007H480.654Z" fill="#1C1C1C"/>
<path d="M494.455 467.333H504.795C507.141 467.333 509.122 467.691 510.738 468.406C512.368 469.121 513.605 470.18 514.449 471.581C515.307 472.969 515.736 474.678 515.736 476.709C515.736 478.139 515.443 479.448 514.857 480.635C514.285 481.808 513.455 482.809 512.368 483.639C511.296 484.454 510.008 485.062 508.507 485.462L507.348 485.913H497.63L497.587 482.544H504.924C506.411 482.544 507.648 482.287 508.635 481.772C509.622 481.243 510.366 480.535 510.866 479.648C511.367 478.761 511.617 477.782 511.617 476.709C511.617 475.507 511.381 474.456 510.909 473.555C510.437 472.654 509.694 471.96 508.678 471.474C507.677 470.973 506.383 470.723 504.795 470.723H498.595V498.571H494.455V467.333ZM512.711 498.571L505.117 484.411L509.429 484.39L517.131 498.313V498.571H512.711Z" fill="#1C1C1C"/>
<path d="M536.187 467.333V498.571H532.111V467.333H536.187ZM546.227 467.333V470.723H522.092V467.333H546.227Z" fill="#1C1C1C"/>
<path d="M560.135 467.333V498.571H555.995V467.333H560.135Z" fill="#1C1C1C"/>
<path d="M589.146 490.676C589.146 489.946 589.031 489.303 588.803 488.745C588.588 488.173 588.202 487.658 587.644 487.2C587.101 486.742 586.343 486.306 585.37 485.891C584.412 485.477 583.196 485.055 581.723 484.626C580.178 484.168 578.784 483.66 577.54 483.102C576.295 482.53 575.23 481.879 574.343 481.15C573.456 480.42 572.777 479.584 572.305 478.64C571.833 477.696 571.597 476.616 571.597 475.4C571.597 474.184 571.847 473.062 572.348 472.032C572.848 471.002 573.564 470.108 574.493 469.35C575.437 468.578 576.56 467.977 577.861 467.548C579.163 467.119 580.615 466.904 582.216 466.904C584.562 466.904 586.55 467.355 588.18 468.256C589.825 469.143 591.077 470.308 591.935 471.753C592.793 473.183 593.222 474.714 593.222 476.344H589.103C589.103 475.171 588.853 474.134 588.352 473.233C587.851 472.318 587.093 471.603 586.078 471.088C585.062 470.559 583.775 470.294 582.216 470.294C580.743 470.294 579.528 470.516 578.569 470.959C577.611 471.402 576.896 472.003 576.424 472.761C575.966 473.519 575.738 474.385 575.738 475.357C575.738 476.015 575.873 476.616 576.145 477.159C576.431 477.689 576.867 478.182 577.454 478.64C578.054 479.097 578.812 479.519 579.728 479.906C580.657 480.292 581.766 480.664 583.053 481.021C584.827 481.522 586.357 482.08 587.644 482.695C588.931 483.31 589.99 484.003 590.819 484.776C591.663 485.534 592.285 486.399 592.686 487.372C593.1 488.33 593.308 489.417 593.308 490.633C593.308 491.906 593.05 493.057 592.535 494.087C592.02 495.117 591.284 495.996 590.326 496.726C589.367 497.455 588.216 498.02 586.872 498.421C585.542 498.807 584.054 499 582.409 499C580.965 499 579.542 498.8 578.14 498.399C576.753 497.999 575.487 497.398 574.343 496.597C573.213 495.796 572.305 494.809 571.618 493.636C570.946 492.449 570.61 491.076 570.61 489.517H574.729C574.729 490.59 574.937 491.512 575.351 492.285C575.766 493.043 576.331 493.672 577.046 494.173C577.776 494.673 578.598 495.045 579.513 495.288C580.443 495.517 581.408 495.632 582.409 495.632C583.854 495.632 585.077 495.431 586.078 495.031C587.079 494.63 587.837 494.058 588.352 493.315C588.881 492.571 589.146 491.691 589.146 490.676Z" fill="#1C1C1C"/>
<path d="M614.96 467.333V498.571H610.884V467.333H614.96ZM625 467.333V470.723H600.865V467.333H625Z" fill="#1C1C1C"/>
<path d="M49.7503 428.507V426.654C54.0252 425.372 55.4501 422.094 55.4501 410.409V346.852C55.4501 335.167 54.0252 331.889 49.7503 330.607V328.754H83.0943C105.039 328.754 114.016 336.022 114.016 347.565C114.016 357.255 107.746 366.09 91.5015 369.083C114.728 370.223 124.988 381.765 125.13 395.731C125.415 411.691 113.446 428.507 78.8194 428.507H49.7503ZM67.1348 413.971C67.1348 424.232 68.4172 426.369 74.5445 426.369H80.1019C103.329 426.369 112.163 415.111 112.163 399.293C112.163 382.905 103.044 370.935 81.6693 370.935H67.1348V413.971ZM67.1348 368.798H80.3868C94.4939 368.798 101.049 360.532 101.049 350.13C101.049 338.302 92.6415 330.892 77.9644 330.892H67.1348V368.798Z" fill="#1C1C1C"/>
<path d="M148.401 428.507V426.654C152.676 425.372 154.1 422.094 154.1 410.409V346.852C154.1 335.167 152.676 331.889 148.401 330.607V328.754H214.661L216.229 347.28L214.661 347.707C209.674 335.167 201.267 330.892 186.732 330.892H165.785V374.07H184.025C200.269 374.07 204.401 370.793 206.111 364.38H207.821V385.898H206.111C204.401 379.485 200.269 376.208 184.025 376.208H165.785V419.956C165.785 424.089 168.065 426.369 172.197 426.369H190.722C204.401 426.369 213.094 422.521 218.224 409.269L219.791 409.554L218.651 428.507H148.401Z" fill="#1C1C1C"/>
<path d="M234.022 428.507V426.654C238.011 425.372 241.574 422.521 245.991 411.691L274.063 342.149C275.06 339.584 274.918 337.732 273.778 335.452L272.495 332.459L283.183 327.614L318.236 411.834C322.654 422.521 326.074 425.372 329.066 426.654V428.507H306.979V426.654C311.397 425.372 310.257 422.521 305.697 411.834L297.005 390.886H256.821L248.414 411.691C244.709 420.954 245.279 425.657 250.124 426.654V428.507H234.022ZM257.676 388.748H296.15L276.628 341.864L257.676 388.748Z" fill="#1C1C1C"/>
<path d="M390.571 429.932C370.194 429.932 350.245 420.384 350.245 391.741V346.852C350.245 335.167 348.962 331.889 344.545 330.607V328.754H367.629V330.607C363.354 331.889 361.929 335.167 361.929 346.852V390.886C361.929 417.391 376.606 426.939 395.131 426.939C407.385 426.939 423.772 418.816 423.772 390.886V352.552C423.772 336.307 420.352 332.317 414.083 330.607V328.754H431.752V330.607C427.477 331.889 426.052 335.167 426.052 346.852V390.458C426.052 419.101 410.378 429.932 390.571 429.932Z" fill="#1C1C1C"/>
<path d="M475.6 428.507V426.654C480.017 425.372 481.299 422.094 481.299 410.409V331.034H474.317C461.492 331.034 455.935 334.454 451.09 344.714L449.523 344.429L450.378 328.754H523.763L524.618 344.429L523.051 344.714C518.206 334.454 512.648 331.034 499.824 331.034H493.126V410.409C493.126 422.094 494.409 425.372 498.826 426.654V428.507H475.6Z" fill="#1C1C1C"/>
<path d="M565.311 428.507V426.654C569.585 425.372 571.01 422.094 570.868 410.409V383.618L549.351 344.572C543.794 334.454 539.661 331.889 536.669 330.607V328.754H559.183V330.607C554.908 331.889 556.618 334.454 562.318 344.572L582.125 379.913L602.074 344.572C606.919 335.879 607.062 331.604 601.647 330.607V328.754H618.604V330.607C614.757 331.889 610.339 334.454 604.639 344.572L582.838 383.333V410.409C582.838 422.094 584.12 425.372 588.537 426.654V428.507H565.311Z" fill="#1C1C1C"/>
</svg>
