<svg width="670" height="670" viewBox="0 0 670 670" fill="none" xmlns="http://www.w3.org/2000/svg">
<path d="M46.7732 330.987C46.5677 328.784 46.4623 326.553 46.4623 324.297C46.4623 284.921 78.4692 253 117.952 253C157.434 253 189.441 284.921 189.441 324.297C189.441 326.553 189.336 328.784 189.13 330.987H155.476C155.863 328.815 156.069 326.58 156.069 324.297C156.069 303.303 139.003 286.283 117.952 286.283C96.9004 286.283 79.8349 303.303 79.8349 324.297C79.8349 326.58 79.8071 328.699 80.1936 330.87L46.7732 330.987Z" fill="#030709"/>
<path d="M116.08 375.684L151.298 340.807L186.6 375.745L165.819 396.347H66.3417L45.5 375.684L80.8024 340.698L116.08 375.684Z" fill="#030709"/>
<path d="M247.637 308.393H262.349V384.095H306.485V396.547H247.637V308.393Z" fill="#030709"/>
<path d="M364.815 333.545L339.595 400.493C336.01 410.233 331.93 418 319.814 418C316.105 418 313.014 417.384 310.542 416.767V406.904H311.654C317.094 407.643 321.174 407.274 324.017 403.821C326.366 400.986 328.097 396.054 325.748 390.136L302.877 333.545H316.847L334.526 381.752H334.773L350.969 333.545H364.815Z" fill="#030709"/>
<path d="M405.113 331.819C416.858 331.819 426.13 338.6 426.13 353.025V396.547H413.026V356.724C413.026 348.217 409.44 342.792 400.539 342.792C390.525 342.792 384.096 348.833 384.096 358.203V396.547H371.115V333.545H384.096V341.682H384.343C387.681 336.751 394.234 331.819 405.113 331.819Z" fill="#030709"/>
<path d="M476.203 350.066C476.203 345.504 473.483 342.052 464.829 342.052C454.444 342.052 450.611 345.258 449.993 353.395H437.383C438.001 341.312 445.79 331.819 464.829 331.819C478.799 331.819 489.184 337.12 489.184 353.888V383.848C489.184 388.287 490.173 390.629 495.242 390.136V396.301C492.275 397.41 490.173 397.657 487.7 397.657C480.777 397.657 477.563 395.191 476.326 389.026H476.079C472.123 394.575 464.952 398.397 455.185 398.397C442.328 398.397 434.416 390.999 434.416 380.396C434.416 366.587 444.677 362.272 460.502 359.19C470.268 357.34 476.203 356.107 476.203 350.066ZM458.029 388.163C468.785 388.163 476.203 382.862 476.203 372.629V363.135C474.101 364.615 469.032 366.094 462.974 367.327C452.218 369.67 447.52 372.752 447.52 379.163C447.52 384.958 450.982 388.163 458.029 388.163Z" fill="#030709"/>
<path d="M532.877 332.065C535.102 332.065 536.709 332.189 538.564 332.435V344.641H538.316C525.83 342.545 515.816 350.929 515.816 364.368V396.547H502.834V333.545H515.816V345.381H516.063C519.401 337.49 524.593 332.065 532.877 332.065Z" fill="#030709"/>
<path d="M554.196 322.942C550.611 322.942 546.902 320.476 546.902 316.037C546.902 311.599 550.611 309.256 554.196 309.256C558.029 309.256 561.614 311.599 561.614 316.037C561.614 320.476 558.029 322.942 554.196 322.942ZM547.767 333.545H560.749V396.547H547.767V333.545Z" fill="#030709"/>
<path d="M601.268 358.45C612.89 361.162 625.5 363.751 625.5 378.793C625.5 390.876 615.115 398.397 599.785 398.397C579.386 398.397 570.608 388.903 569.99 375.588H582.6C583.218 382.369 586.185 388.163 599.538 388.163C608.563 388.163 612.395 383.725 612.395 379.779C612.395 371.889 604.854 371.272 595.581 369.053C585.567 366.71 571.968 364.738 571.968 350.436C571.968 340.079 581.117 331.819 596.941 331.819C614.126 331.819 622.286 341.066 623.151 352.039H610.541C609.675 347.107 607.203 342.052 597.065 342.052C589.276 342.052 585.073 345.011 585.073 349.45C585.073 355.861 592.12 356.354 601.268 358.45Z" fill="#030709"/>
</svg>
