<svg width="670" height="670" viewBox="0 0 670 670" fill="none" xmlns="http://www.w3.org/2000/svg">
<path d="M76.8287 348.956H60.5324L57.4727 358.929H45.5L62.7275 311.071H74.7002L91.8611 358.929H79.8884L76.8287 348.956ZM63.2596 339.786H74.1681L68.7803 322.115H68.6473L63.2596 339.786Z" fill="#030709"/>
<path d="M97.2 311.071H109.173V349.09H130.325V358.929H97.2V311.071Z" fill="#030709"/>
<path d="M148.778 329.411H169.531V339.25H148.778V349.09H173.256V358.929H136.805V311.071H172.856V320.91H148.778V329.411Z" fill="#030709"/>
<path d="M193.272 334.498L178.838 311.071H191.476L200.19 325.663H200.323L209.103 311.071H221.74L207.307 334.364L223.071 358.929H209.768L200.323 343.4H200.19L190.811 358.929H177.508L193.272 334.498Z" fill="#030709"/>
<path d="M228.619 311.071H240.591V358.929H228.619V311.071Z" fill="#030709"/>
<path d="M269.796 329.21C278.775 331.687 288.021 334.632 288.021 344.873C288.021 354.043 281.103 360 269.197 360C256.825 360 247.513 353.842 247.513 343.199H259.486C259.486 348.286 263.876 350.161 269.197 350.161C273.654 350.161 276.048 348.42 276.048 346.011C276.048 342.195 270.926 341.325 264.208 339.317C256.027 336.908 248.843 333.36 248.843 324.525C248.843 314.083 256.958 310 267.202 310C278.31 310 287.023 315.89 287.356 325.596H275.383C274.851 321.981 271.791 319.839 267.202 319.839C263.61 319.839 260.816 320.977 260.816 323.655C260.816 326.6 263.809 327.537 269.796 329.21Z" fill="#030709"/>
<path d="M308.134 358.929V311.071H322.767L332.545 341.593H332.678L342.456 311.071H357.089V358.929H345.782V329.143H345.648L336.802 358.929H328.421L319.575 329.143H319.441V358.929H308.134Z" fill="#030709"/>
<path d="M365.669 311.071H377.641V358.929H365.669V311.071Z" fill="#030709"/>
<path d="M416.698 328.876C415.833 323.655 413.438 319.839 407.12 319.839C399.204 319.839 396.544 325.997 396.544 334.967C396.544 344.003 399.204 350.161 407.12 350.161C413.505 350.161 415.9 346.345 416.698 340.991H428.67C427.606 352.236 420.689 360 407.652 360C392.619 360 384.571 349.424 384.571 334.967C384.571 320.576 392.619 310 407.652 310C420.622 310 427.54 317.764 428.67 328.876H416.698Z" fill="#030709"/>
<path d="M434.874 311.071H446.847V329.813H463.143V311.071H475.116V358.929H463.143V339.652H446.847V358.929H434.874V311.071Z" fill="#030709"/>
<path d="M483.705 311.071H495.677V358.929H483.705V311.071Z" fill="#030709"/>
<path d="M516.184 329.411H536.936V339.25H516.184V349.09H540.661V358.929H504.211V311.071H540.262V320.91H516.184V329.411Z" fill="#030709"/>
<path d="M547.973 311.071H559.946V349.09H581.098V358.929H547.973V311.071Z" fill="#030709"/>
<path d="M607.275 329.21C616.254 331.687 625.5 334.632 625.5 344.873C625.5 354.043 618.582 360 606.676 360C594.304 360 584.992 353.842 584.992 343.199H596.965C596.965 348.286 601.355 350.161 606.676 350.161C611.133 350.161 613.527 348.42 613.527 346.011C613.527 342.195 608.406 341.325 601.688 339.317C593.506 336.908 586.322 333.36 586.322 324.525C586.322 314.083 594.437 310 604.681 310C615.789 310 624.502 315.89 624.835 325.596H612.862C612.33 321.981 609.27 319.839 604.681 319.839C601.089 319.839 598.295 320.977 598.295 323.655C598.295 326.6 601.288 327.537 607.275 329.21Z" fill="#030709"/>
</svg>
