<svg width="670" height="670" viewBox="0 0 670 670" fill="none" xmlns="http://www.w3.org/2000/svg">
<path d="M70.7112 354.456H45.5V353.748C47.1265 353.259 47.6687 352.007 47.6687 347.544V323.272C47.6687 318.81 47.1265 317.558 45.5 317.068V316.361H54.2833V317.068C52.6025 317.558 52.1145 318.81 52.1145 323.272V351.136C52.1145 352.714 52.982 353.585 54.5543 353.585H61.0062C66.2111 353.585 68.5967 352.279 70.4943 348.197L71.0907 348.306L70.7112 354.456Z" fill="#141414"/>
<path d="M101.668 354.456H74.9385V353.748C76.565 353.259 77.1072 352.007 77.1072 347.544V323.272C77.1072 318.81 76.565 317.558 74.9385 317.068V316.361H100.15L100.746 323.435L100.15 323.599C98.252 318.81 95.0532 317.177 89.523 317.177H81.553V333.667H88.4929C94.6737 333.667 96.246 332.415 96.8966 329.966H97.5472V338.184H96.8966C96.246 335.735 94.6737 334.483 88.4929 334.483H81.553V351.19C81.553 352.769 82.4205 353.639 83.9928 353.639H91.0411C96.246 353.639 99.5533 352.17 101.505 347.109L102.101 347.218L101.668 354.456Z" fill="#141414"/>
<path d="M126.273 354.456V353.748C127.954 353.259 128.442 352.007 128.442 347.544V317.231H125.785C120.906 317.231 118.791 318.537 116.948 322.456L116.351 322.347L116.677 316.361H144.599L144.924 322.347L144.328 322.456C142.484 318.537 140.37 317.231 135.49 317.231H132.942V347.544C132.942 352.007 133.43 353.259 135.111 353.748V354.456H126.273Z" fill="#141414"/>
<path d="M175.317 354.456H148.588V353.748C150.214 353.259 150.756 352.007 150.756 347.544V323.272C150.756 318.81 150.214 317.558 148.588 317.068V316.361H173.799L174.395 323.435L173.799 323.599C171.901 318.81 168.702 317.177 163.172 317.177H155.202V333.667H162.142C168.323 333.667 169.895 332.415 170.546 329.966H171.196V338.184H170.546C169.895 335.735 168.323 334.483 162.142 334.483H155.202V351.19C155.202 352.769 156.07 353.639 157.642 353.639H164.69C169.895 353.639 173.202 352.17 175.154 347.109L175.751 347.218L175.317 354.456Z" fill="#141414"/>
<path d="M180.46 354.456V353.748C182.141 353.259 182.629 352.007 182.629 347.544V325.449C182.629 319.245 181.49 317.721 179.322 317.068V316.361H185.882L200.033 339.816L213.913 316.361H220.039V317.068C217.87 317.721 216.732 319.245 216.732 325.449V347.544C216.732 352.007 217.22 353.259 218.901 353.748V354.456H210.117V353.748C211.744 353.259 212.286 352.007 212.286 347.544V320.769L198.515 344.116H197.485L183.605 321.204V345.367C183.605 351.571 184.906 353.095 187.292 353.748V354.456H180.46Z" fill="#141414"/>
<path d="M225.572 354.456V353.748C227.199 353.259 227.741 352.007 227.741 347.544V323.272C227.741 318.81 227.199 317.558 225.572 317.068V316.361H236.579C247.802 316.361 251.38 321.803 251.38 327.082C251.38 334.32 246.121 339.381 236.036 339.381H232.187V347.544C232.187 352.007 232.675 353.259 234.356 353.748V354.456H225.572ZM235.928 338.565C242.868 338.565 246.609 334.755 246.609 328.333C246.609 322.51 243.193 317.177 234.464 317.177C233.705 317.177 232.838 317.231 232.187 317.286V338.565H235.928Z" fill="#141414"/>
<path d="M268.174 355C262.481 355 257.71 352.986 255.162 351.136L254.891 343.571L255.487 343.463C257.602 349.177 261.722 354.02 269.259 354.02C273.596 354.02 277.337 351.19 277.337 346.782C277.337 341.34 270.668 338.837 266.114 336.986C259.716 334.429 255.65 332.143 255.65 326.374C255.65 320.007 260.909 315.98 268.879 315.98C273.813 315.98 277.337 317.34 279.452 318.483L279.668 324.796L279.126 324.959C277.12 320.224 273.325 316.85 267.144 316.85C262.752 316.85 259.011 319.408 259.011 324.034C259.011 329.15 264.596 331.218 269.204 333.122C275.223 335.517 280.861 337.912 280.861 344.061C280.861 350.864 274.572 355 268.174 355Z" fill="#141414"/>
<path d="M310.938 354.456H296.733V353.748C298.359 353.259 298.902 352.007 298.902 347.544V323.272C298.902 318.81 298.359 317.558 296.733 317.068V316.361H309.691C324.601 316.361 330.456 325.884 330.511 334.701C330.565 346.184 322.866 354.456 310.938 354.456ZM310.83 353.639C320.318 353.639 325.577 348.252 325.577 336.878C325.577 325.993 319.125 317.177 307.034 317.177H303.348V349.667C303.348 352.224 303.89 353.639 306.872 353.639H310.83Z" fill="#141414"/>
<path d="M334.881 327.354C337.7 325.939 338.947 323.272 339.11 320.497C338.676 320.66 338.297 320.769 337.809 320.769C336.345 320.769 335.152 319.571 335.152 318.102C335.152 316.306 336.345 315 338.08 315C340.194 315 341.55 316.524 341.496 319.19C341.496 323.163 338.297 326.701 335.098 327.844L334.881 327.354Z" fill="#141414"/>
<path d="M363.787 355C356.034 355 348.443 351.354 348.443 340.415V323.272C348.443 318.81 347.955 317.558 346.275 317.068V316.361H355.058V317.068C353.431 317.558 352.889 318.81 352.889 323.272V340.088C352.889 350.211 358.474 353.857 365.522 353.857C370.185 353.857 376.42 350.755 376.42 340.088V325.449C376.42 319.245 375.118 317.721 372.733 317.068V316.361H379.456V317.068C377.829 317.558 377.287 318.81 377.287 323.272V339.925C377.287 350.864 371.323 355 363.787 355Z" fill="#141414"/>
<path d="M412.405 354.891L386.868 321.531V345.367C386.868 351.571 388.169 353.095 390.609 353.748V354.456H383.832V353.748C385.458 353.259 386.001 352.007 386.001 347.544V323.272C386.001 318.81 385.35 317.558 383.181 317.068V316.361H388.495L412.188 347.163V325.449C412.188 319.245 410.886 317.721 408.447 317.068V316.361H415.278V317.068C413.597 317.558 413.109 318.81 413.109 323.272V354.891H412.405Z" fill="#141414"/>
<path d="M439.613 354.456V353.748C441.294 353.259 441.782 352.007 441.782 347.544V317.231H439.125C434.245 317.231 432.131 318.537 430.287 322.456L429.691 322.347L430.016 316.361H457.938L458.264 322.347L457.667 322.456C455.824 318.537 453.709 317.231 448.83 317.231H446.282V347.544C446.282 352.007 446.77 353.259 448.45 353.748V354.456H439.613Z" fill="#141414"/>
<path d="M454.64 354.456V353.748C456.158 353.259 457.514 352.17 459.194 348.034L469.875 321.476C470.255 320.497 470.2 319.789 469.767 318.918L469.279 317.776L473.345 315.925L486.683 348.088C488.363 352.17 489.665 353.259 490.803 353.748V354.456H482.399V353.748C484.08 353.259 483.646 352.17 481.911 348.088L478.604 340.088H463.315L460.116 348.034C458.706 351.571 458.869 353.367 460.767 353.748V354.456H454.64ZM463.64 339.272H478.279L470.851 321.367L463.64 339.272Z" fill="#141414"/>
<path d="M521.687 354.891L496.15 321.531V345.367C496.15 351.571 497.452 353.095 499.891 353.748V354.456H493.114V353.748C494.741 353.259 495.283 352.007 495.283 347.544V323.272C495.283 318.81 494.632 317.558 492.464 317.068V316.361H497.777L521.47 347.163V325.449C521.47 319.245 520.169 317.721 517.729 317.068V316.361H524.56V317.068C522.88 317.558 522.392 318.81 522.392 323.272V354.891H521.687Z" fill="#141414"/>
<path d="M537.512 354.456V353.748C539.192 353.259 539.68 352.007 539.68 347.544V317.231H537.024C532.144 317.231 530.03 318.537 528.186 322.456L527.59 322.347L527.915 316.361H555.837L556.162 322.347L555.566 322.456C553.723 318.537 551.608 317.231 546.729 317.231H544.18V347.544C544.18 352.007 544.668 353.259 546.349 353.748V354.456H537.512Z" fill="#141414"/>
<path d="M587.423 354.837C583.248 354.837 582.381 351.789 579.995 346.129C576.85 338.619 576.417 334.81 569.91 334.81H566.441V347.544C566.441 352.007 566.929 353.259 568.609 353.748V354.456H559.826V353.748C561.453 353.259 561.995 352.007 561.995 347.544V323.272C561.995 318.81 561.453 317.558 559.826 317.068V316.361H570.507C581.513 316.361 584.766 320.007 584.766 324.85C584.766 329.966 581.079 333.83 574.031 334.646C580.7 335.517 581.73 338.837 584.332 345.531C586.935 352.061 588.019 353.857 589.863 353.857C590.188 353.857 590.459 353.857 590.73 353.803V354.456C589.917 354.728 588.507 354.837 587.423 354.837ZM570.995 333.993C577.23 333.993 580.158 330.728 580.158 326.102C580.158 321.259 577.013 317.177 568.989 317.177L566.441 317.286V333.993H570.995Z" fill="#141414"/>
<path d="M589.337 354.456V353.748C590.855 353.259 592.21 352.17 593.891 348.034L604.572 321.476C604.952 320.497 604.897 319.789 604.464 318.918L603.976 317.776L608.042 315.925L621.38 348.088C623.06 352.17 624.361 353.259 625.5 353.748V354.456H617.096V353.748C618.777 353.259 618.343 352.17 616.608 348.088L613.301 340.088H598.012L594.813 348.034C593.403 351.571 593.566 353.367 595.463 353.748V354.456H589.337ZM598.337 339.272H612.976L605.548 321.367L598.337 339.272Z" fill="#141414"/>
</svg>
