<svg width="670" height="670" viewBox="0 0 670 670" fill="none" xmlns="http://www.w3.org/2000/svg">
<path d="M70.8575 307.437C69.3541 307.437 67.6002 307.486 65.5958 307.585L98.2934 338.06L98.7444 338.505H86.417L86.3419 338.356L71.985 314.481L64.6938 307.733C63.1904 307.882 62.1381 308.104 61.5367 308.401C60.9354 308.648 60.4092 308.944 59.9582 309.29L59.8831 309.439L59.6576 309.587L59.5072 309.365L59.2066 309.068L59.5072 308.771C60.1086 308.178 61.1359 307.684 62.5891 307.288C64.0924 306.893 66.8486 306.695 70.8575 306.695H73.4883C75.2422 306.448 76.9209 305.929 78.5245 305.138C80.1281 304.347 81.5061 303.334 82.6587 302.098C83.8614 300.862 84.7634 299.503 85.3647 298.02C86.0161 296.488 86.3419 294.906 86.3419 293.274C86.3419 289.963 85.1141 287.021 82.6587 284.451C81.5061 283.265 80.1281 282.276 78.5245 281.485C76.9209 280.694 75.2422 280.15 73.4883 279.854H56.9516V308.846C56.9516 319.721 57.1771 327.135 57.6281 331.09C58.0791 335.045 58.48 337.368 58.8307 338.06L59.2817 338.505H45L45.451 338.06C45.6013 337.912 45.8268 337.096 46.1275 335.613C46.4282 334.13 46.7038 331.238 46.9543 326.938C47.255 322.588 47.4053 316.557 47.4053 308.846C47.4053 301.134 47.255 295.128 46.9543 290.828C46.7038 286.478 46.4282 283.561 46.1275 282.078C45.8268 280.595 45.6013 279.78 45.451 279.631L45 279.186H80.4788C83.3853 279.186 86.0412 279.829 88.4465 281.114C90.902 282.35 92.8313 284.055 94.2344 286.23C95.6876 288.356 96.4143 290.704 96.4143 293.274C96.4143 295.845 95.6876 298.218 94.2344 300.393C92.8313 302.518 90.902 304.224 88.4465 305.509C86.0412 306.794 83.3853 307.437 80.4788 307.437H70.8575Z" fill="#252525"/>
<path d="M152.63 304.545C153.683 303.26 154.61 301.925 155.412 300.541C156.213 299.107 156.639 297.921 156.689 296.982C155.938 293.324 154.209 290.086 151.503 287.268C149.649 285.39 147.519 283.957 145.114 282.968C142.708 281.93 140.228 281.411 137.672 281.411C134.064 281.411 130.381 282.375 126.623 284.303C122.914 286.23 119.231 289.048 115.573 292.755C111.915 296.512 109.209 300.17 107.455 303.729C105.701 307.14 104.724 310.502 104.523 313.813C104.473 314.16 104.448 314.703 104.448 315.445C104.448 318.065 104.924 320.561 105.876 322.934C106.829 325.306 108.232 327.407 110.086 329.236C113.243 332.35 116.901 334.204 121.06 334.797C122.012 334.55 123.591 333.537 125.796 331.757C128.051 329.928 130.682 327.58 133.688 324.713C140.453 318.435 146.767 311.713 152.63 304.545ZM155.562 309.735C156.614 306.769 157.14 303.927 157.14 301.208C157.14 300.665 157.09 299.849 156.99 298.761C156.389 300.689 155.111 302.741 153.157 304.916C147.694 311.589 141.907 317.941 135.793 323.972C129.679 329.953 125.27 333.611 122.564 334.946L123.841 335.02C127.449 335.02 131.133 334.056 134.891 332.128C138.649 330.2 142.358 327.383 146.016 323.675C150.425 319.276 153.608 314.629 155.562 309.735ZM151.954 286.749C154.61 289.468 156.689 292.706 158.193 296.463C159.696 300.17 160.498 304.075 160.598 308.178C160.648 312.083 160.022 315.964 158.719 319.819C157.165 323.823 155.011 327.21 152.255 329.978C149.549 332.697 146.366 334.797 142.708 336.28C139.1 337.763 135.292 338.505 131.283 338.505C127.174 338.505 123.215 337.739 119.407 336.206C115.648 334.674 112.391 332.523 109.635 329.755C106.979 326.987 104.874 323.749 103.321 320.042C101.817 316.285 101.041 312.38 100.991 308.327C100.89 304.174 101.542 300.294 102.945 296.685C104.398 292.681 106.528 289.295 109.334 286.527C112.04 283.759 115.172 281.658 118.73 280.224C122.338 278.741 126.172 278 130.231 278C134.34 278 138.299 278.766 142.107 280.299C145.915 281.782 149.198 283.932 151.954 286.749Z" fill="#252525"/>
<path d="M213.901 320.042C214.151 320.833 214.277 321.772 214.277 322.86C214.277 324.985 213.65 327.061 212.398 329.088C211.145 331.065 209.491 332.746 207.437 334.13C205.683 335.465 203.428 336.478 200.672 337.17C197.915 337.813 195.009 338.183 191.952 338.282C185.488 338.48 180.076 337.566 175.716 335.539C174.914 335.143 174.112 334.946 173.311 334.946C172.058 334.946 170.73 335.267 169.327 335.91C167.974 336.552 166.721 337.343 165.569 338.282L163.99 314.703C166.546 324.886 170.805 331.708 176.768 335.168C180.527 336.849 185.513 337.689 191.727 337.689C193.932 337.59 195.786 337.22 197.289 336.577C198.792 335.885 199.995 334.575 200.897 332.647C201.849 330.818 202.325 328.05 202.325 324.342C202.325 322.069 202.2 320.24 201.949 318.856C201.699 317.422 201.398 316.285 201.047 315.445C200.747 314.555 200.095 313.047 199.093 310.922C196.487 310.032 192.854 308.92 188.194 307.585C186.991 307.288 186.089 307.041 185.488 306.844C181.88 305.608 178.998 304.57 176.844 303.729C174.739 302.84 172.785 301.826 170.981 300.689C169.227 299.602 167.798 298.168 166.696 296.389C165.644 294.56 165.118 292.681 165.118 290.753C165.118 289.518 165.343 288.356 165.794 287.268C166.947 284.253 169.051 282.128 172.108 280.892C175.215 279.607 179.149 278.717 183.909 278.222C185.062 278.074 186.315 278 187.668 278C191.326 278 195.009 278.544 198.717 279.631C202.425 280.669 205.532 282.325 208.038 284.599C210.543 286.873 211.771 289.74 211.721 293.2C211.571 293.2 209.366 295.103 205.106 298.91C205.257 295.005 204.655 291.495 203.302 288.381C201.999 285.217 200.02 282.77 197.364 281.04C194.708 279.31 191.501 278.494 187.743 278.593C185.388 278.494 183.208 278.939 181.203 279.928C179.199 280.916 177.771 282.399 176.919 284.377C176.117 286.403 175.716 288.529 175.716 290.753C175.716 292.978 176.142 295.079 176.994 297.056C177.846 298.984 179.099 300.59 180.752 301.876C182.606 303.062 184.185 304.026 185.488 304.767C186.841 305.459 188.469 306.201 190.374 306.992L194.132 308.327C196.738 309.315 198.742 310.032 200.145 310.477L203.077 311.663C205.332 312.553 207.086 313.319 208.339 313.962C209.591 314.555 210.719 315.346 211.721 316.335C212.723 317.323 213.45 318.559 213.901 320.042Z" fill="#252525"/>
<path d="M262.701 335.242L262.55 335.316C260.696 336.552 258.617 337.393 256.312 337.837C254.006 338.282 251.025 338.505 247.367 338.505H216.548C216.999 338.01 217.375 337.121 217.676 335.835C217.976 334.55 218.252 331.831 218.503 327.679C218.753 323.477 218.903 317.2 218.954 308.846C218.903 300.492 218.753 294.238 218.503 290.086C218.252 285.934 217.976 283.215 217.676 281.93C217.375 280.645 216.999 279.73 216.548 279.186H248.945C251.351 279.186 253.18 279.285 254.432 279.483C255.735 279.681 256.888 280.051 257.89 280.595C258.942 281.09 260.27 281.955 261.874 283.19V294.906C261.774 294.659 261.623 294.362 261.423 294.016C261.273 293.67 261.097 293.274 260.897 292.83C259.544 290.061 258.441 287.936 257.589 286.453C256.788 284.97 255.911 283.833 254.959 283.042C253.505 281.757 252.052 280.916 250.599 280.521C249.146 280.126 247.317 279.903 245.112 279.854H228.5V337.837H247.292C249.597 337.837 251.726 337.071 253.681 335.539C255.635 334.006 257.264 331.807 258.567 328.94L262.701 319.226V335.242ZM246.916 306.844C246.565 306.893 245.913 306.918 244.961 306.918L240.301 306.844C237.996 306.844 236.067 306.967 234.513 307.214C233.01 307.412 232.083 307.832 231.732 308.475C231.832 308.524 232.008 308.673 232.258 308.92C232.208 308.03 235.666 307.585 242.631 307.585H247.066L254.883 308.327H255.109V306.102H254.883L246.916 306.844Z" fill="#252525"/>
<path d="M292.986 299.874C294.038 302.395 295.592 304.669 297.646 306.695C300.052 308.92 303.635 311.836 308.395 315.445L309.823 316.483L326.886 327.086C329.292 322.093 330.494 315.815 330.494 308.252C330.494 299.503 328.941 292.582 325.834 287.491C324.531 285.267 322.953 283.438 321.099 282.004C319.294 280.521 317.315 279.532 315.16 279.038C313.757 278.791 312.529 278.667 311.477 278.667C310.325 278.667 309.047 278.791 307.644 279.038C303.985 280.027 300.954 282.128 298.548 285.341C295.742 289.097 293.888 293.942 292.986 299.874ZM311.477 337.837C312.529 337.837 313.757 337.714 315.16 337.467C318.919 336.577 322.076 334.377 324.631 330.868L310.5 317.817C309.999 317.471 309.172 316.854 308.019 315.964C303.409 312.553 299.801 309.636 297.195 307.214C295.441 305.583 293.988 303.581 292.836 301.208C292.585 303.68 292.46 306.028 292.46 308.252C292.46 316.903 293.988 323.799 297.045 328.94C299.701 333.438 303.234 336.256 307.644 337.393C308.946 337.689 310.224 337.837 311.477 337.837ZM345.152 338.431H332.825L332.749 338.356C332.699 338.307 332.123 337.813 331.021 336.874C329.918 335.885 328.69 334.723 327.337 333.389C323.729 335.811 320.021 337.343 316.213 337.986C314.359 338.332 312.78 338.505 311.477 338.505C310.174 338.505 308.796 338.356 307.343 338.06C303.985 337.566 300.753 336.453 297.646 334.723C294.59 332.993 291.884 330.769 289.528 328.05C287.023 325.232 285.119 322.143 283.816 318.781C282.513 315.371 281.861 311.861 281.861 308.252C281.861 304.644 282.513 301.134 283.816 297.723C285.169 294.313 287.073 291.223 289.528 288.455C291.884 285.736 294.59 283.512 297.646 281.782C300.753 280.051 303.985 278.939 307.343 278.445C308.796 278.148 310.174 278 311.477 278C312.78 278 314.359 278.173 316.213 278.519C319.52 279.112 322.652 280.299 325.609 282.078C328.615 283.808 331.296 286.008 333.651 288.677C336.057 291.446 337.886 294.51 339.139 297.872C340.441 301.233 341.093 304.693 341.093 308.252C341.093 312.454 340.216 316.508 338.462 320.413C336.808 324.021 334.528 327.21 331.622 329.978L344.4 337.912L345.152 338.431Z" fill="#252525"/>
<path d="M404.418 279.186V307.437C404.418 318.608 401.537 326.962 395.774 332.499C393.118 334.97 389.961 336.725 386.303 337.763C384.349 338.258 382.62 338.505 381.116 338.505C377.559 338.505 374.051 337.739 370.593 336.206C367.135 334.624 364.028 332.425 361.272 329.607C358.566 326.888 356.412 323.7 354.808 320.042C353.204 316.186 352.403 312.256 352.403 308.252C352.403 300.689 352.252 294.807 351.952 290.605C351.701 286.354 351.425 283.512 351.125 282.078C350.824 280.595 350.599 279.78 350.448 279.631L350.072 279.186H362.55V308.252C362.55 313.097 363.051 317.447 364.054 321.302C365.056 325.158 366.534 328.371 368.488 330.942C370.092 333.166 371.971 334.872 374.126 336.058C376.331 337.244 378.661 337.837 381.116 337.837H381.192C382.695 337.837 384.775 337.467 387.43 336.725C390.136 335.934 392.767 334.352 395.323 331.98C400.885 326.641 403.667 318.46 403.667 307.437V307.214L394.045 279.483L393.97 279.186H404.418Z" fill="#252525"/>
<path d="M439.377 279.186L439.453 279.335L462.378 338.134L462.454 338.431H453.133L453.058 338.282L446.819 322.415H421.713L421.863 322.118L424.269 317.076L424.344 317.002H444.714L433.815 288.974L433.74 289.345L433.665 289.79C433.615 290.234 433.339 291.396 432.838 293.274C432.437 294.51 431.635 296.759 430.432 300.022C429.48 302.494 428.578 304.669 427.726 306.547L424.795 312.998C423.392 316.013 421.187 320.586 418.18 326.715L412.317 338.356L412.242 338.505H407.056L407.356 338.134L419.608 322.266L420.961 319.3C421.412 318.411 422.44 316.186 424.043 312.627L426.9 306.176L429.53 299.651C430.783 296.092 431.535 293.868 431.785 292.978C432.136 291.594 432.387 290.482 432.537 289.641C432.587 289.542 432.612 289.369 432.612 289.122C432.813 288.331 432.913 287.788 432.913 287.491V287.046L432.838 286.675C432.838 286.527 432.813 286.403 432.763 286.305L430.132 279.557L429.981 279.186H439.377Z" fill="#252525"/>
<path d="M489.782 307.437C488.278 307.437 486.524 307.486 484.52 307.585L517.218 338.06L517.669 338.505H505.341L505.266 338.356L490.909 314.481L483.618 307.733C482.115 307.882 481.062 308.104 480.461 308.401C479.859 308.648 479.333 308.944 478.882 309.29L478.807 309.439L478.582 309.587L478.431 309.365L478.131 309.068L478.431 308.771C479.033 308.178 480.06 307.684 481.513 307.288C483.017 306.893 485.773 306.695 489.782 306.695H492.412C494.166 306.448 495.845 305.929 497.449 305.138C499.052 304.347 500.43 303.334 501.583 302.098C502.785 300.862 503.687 299.503 504.289 298.02C504.94 296.488 505.266 294.906 505.266 293.274C505.266 289.963 504.038 287.021 501.583 284.451C500.43 283.265 499.052 282.276 497.449 281.485C495.845 280.694 494.166 280.15 492.412 279.854H475.876V308.846C475.876 319.721 476.101 327.135 476.552 331.09C477.003 335.045 477.404 337.368 477.755 338.06L478.206 338.505H463.924L464.375 338.06C464.525 337.912 464.751 337.096 465.052 335.613C465.352 334.13 465.628 331.238 465.878 326.938C466.179 322.588 466.329 316.557 466.329 308.846C466.329 301.134 466.179 295.128 465.878 290.828C465.628 286.478 465.352 283.561 465.052 282.078C464.751 280.595 464.525 279.78 464.375 279.631L463.924 279.186H499.403C502.309 279.186 504.965 279.829 507.371 281.114C509.826 282.35 511.755 284.055 513.159 286.23C514.612 288.356 515.338 290.704 515.338 293.274C515.338 295.845 514.612 298.218 513.159 300.393C511.755 302.518 509.826 304.224 507.371 305.509C504.965 306.794 502.309 307.437 499.403 307.437H489.782Z" fill="#252525"/>
<path d="M564.564 279.186V279.409L565.316 287.343V287.936L564.865 287.491L556.22 279.854H547.952V308.846C547.952 319.77 548.152 327.259 548.553 331.312C549.004 335.366 549.405 337.64 549.756 338.134L550.132 338.505H536.827L537.203 338.134C537.203 338.134 537.278 337.936 537.429 337.541C537.579 337.145 537.779 335.885 538.03 333.759C538.681 328.519 539.007 320.215 539.007 308.846C539.007 298.91 538.832 291.816 538.481 287.565C538.13 283.314 537.754 280.743 537.353 279.854H528.333L519.614 287.491L519.163 287.936L519.238 287.343L519.915 279.409V279.186H564.564Z" fill="#252525"/>
<path d="M615.98 335.539C617.934 334.006 619.563 331.807 620.866 328.94L624.549 320.413L625 319.226V335.242L624.925 335.316C623.071 336.503 621.041 337.318 618.836 337.763C616.682 338.208 614.051 338.455 610.944 338.505H567.572L568.55 338.06C569.452 337.467 570.955 335.934 573.06 333.463C577.419 328.371 583.282 320.141 590.649 308.771L608.764 279.854H591.776L571.18 284.451L570.729 284.525L570.88 284.08L572.984 279.335V279.186H622.444L622.219 279.557L584.936 337.837H609.591C611.896 337.837 614.026 337.071 615.98 335.539Z" fill="#252525"/>
<path d="M218.141 379.504V381.315H206.229V379.504H218.141Z" fill="#252525"/>
<path d="M248.179 391.785H246.036L234.185 373.731V391.785H232.042V370.323H234.185L246.036 388.346V370.323H248.179V391.785Z" fill="#252525"/>
<path d="M265.436 386.688H255.698L253.83 391.785H251.564L259.373 370.599H261.792L269.569 391.785H267.303L265.436 386.688ZM264.793 384.907L260.567 373.301L256.341 384.907H264.793Z" fill="#252525"/>
<path d="M275.153 370.323V391.785H273.01V370.323H275.153Z" fill="#252525"/>
<path d="M282.15 390.035H289.836V391.785H280.007V370.323H282.15V390.035Z" fill="#252525"/>
<path d="M307.637 370.323C310.005 370.323 312.036 370.753 313.73 371.613C315.425 372.472 316.721 373.711 317.619 375.328C318.517 376.945 318.967 378.869 318.967 381.1C318.967 383.311 318.517 385.225 317.619 386.842C316.721 388.438 315.425 389.667 313.73 390.526C312.036 391.365 310.005 391.785 307.637 391.785H301.298V370.323H307.637ZM307.637 390.004C310.617 390.004 312.883 389.226 314.435 387.671C316.007 386.095 316.792 383.904 316.792 381.1C316.792 378.275 316.007 376.075 314.435 374.499C312.883 372.902 310.617 372.104 307.637 372.104H303.442V390.004H307.637Z" fill="#252525"/>
<path d="M325.062 372.073V380.087H333.176V381.868H325.062V390.004H334.095V391.785H322.918V370.292H334.095V372.073H325.062Z" fill="#252525"/>
<path d="M344.81 392C343.402 392 342.156 391.754 341.075 391.263C340.013 390.772 339.176 390.086 338.564 389.206C337.951 388.326 337.625 387.343 337.584 386.258H339.85C339.952 387.302 340.411 388.223 341.228 389.022C342.044 389.8 343.238 390.188 344.81 390.188C346.26 390.188 347.403 389.82 348.24 389.083C349.097 388.326 349.526 387.374 349.526 386.228C349.526 385.307 349.291 384.57 348.822 384.017C348.352 383.444 347.77 383.024 347.076 382.758C346.382 382.472 345.423 382.165 344.198 381.837C342.769 381.448 341.636 381.069 340.799 380.701C339.962 380.333 339.247 379.759 338.655 378.982C338.063 378.204 337.767 377.15 337.767 375.819C337.767 374.714 338.053 373.731 338.625 372.871C339.196 371.991 340.003 371.306 341.044 370.814C342.085 370.323 343.279 370.077 344.627 370.077C346.607 370.077 348.199 370.569 349.404 371.551C350.628 372.513 351.333 373.762 351.516 375.297H349.189C349.046 374.417 348.567 373.639 347.75 372.964C346.933 372.268 345.831 371.92 344.443 371.92C343.157 371.92 342.085 372.268 341.228 372.964C340.37 373.639 339.942 374.57 339.942 375.758C339.942 376.658 340.176 377.385 340.646 377.938C341.115 378.49 341.697 378.91 342.391 379.196C343.106 379.483 344.065 379.79 345.27 380.118C346.658 380.507 347.781 380.895 348.638 381.284C349.495 381.653 350.22 382.226 350.812 383.004C351.404 383.782 351.7 384.826 351.7 386.136C351.7 387.139 351.435 388.09 350.904 388.991C350.373 389.892 349.587 390.618 348.546 391.171C347.505 391.724 346.26 392 344.81 392Z" fill="#252525"/>
<path d="M357.986 370.323V391.785H355.842V370.323H357.986Z" fill="#252525"/>
<path d="M379.681 376.587C379.069 375.174 378.13 374.069 376.864 373.271C375.619 372.452 374.149 372.042 372.454 372.042C370.862 372.042 369.433 372.411 368.168 373.148C366.902 373.885 365.902 374.939 365.167 376.31C364.432 377.661 364.064 379.237 364.064 381.039C364.064 382.84 364.432 384.426 365.167 385.798C365.902 387.169 366.902 388.223 368.168 388.96C369.433 389.697 370.862 390.066 372.454 390.066C373.945 390.066 375.282 389.748 376.466 389.114C377.67 388.459 378.63 387.538 379.344 386.35C380.079 385.143 380.498 383.741 380.6 382.144H371.597V380.394H382.866V381.96C382.764 383.843 382.253 385.552 381.335 387.087C380.416 388.602 379.181 389.8 377.629 390.68C376.098 391.56 374.373 392 372.454 392C370.474 392 368.678 391.539 367.065 390.618C365.452 389.677 364.177 388.377 363.238 386.719C362.319 385.04 361.86 383.147 361.86 381.039C361.86 378.93 362.319 377.047 363.238 375.389C364.177 373.711 365.452 372.411 367.065 371.49C368.678 370.548 370.474 370.077 372.454 370.077C374.741 370.077 376.741 370.651 378.456 371.797C380.171 372.943 381.416 374.54 382.192 376.587H379.681Z" fill="#252525"/>
<path d="M402.929 391.785H400.786L388.936 373.731V391.785H386.792V370.323H388.936L400.786 388.346V370.323H402.929V391.785Z" fill="#252525"/>
<path d="M409.928 372.073V380.087H418.042V381.868H409.928V390.004H418.961V391.785H407.784V370.292H418.961V372.073H409.928Z" fill="#252525"/>
<path d="M434.576 391.785L429.278 382.82H425.328V391.785H423.185V370.323H429.615C432.003 370.323 433.81 370.896 435.035 372.042C436.28 373.189 436.903 374.693 436.903 376.556C436.903 378.112 436.454 379.442 435.556 380.547C434.678 381.632 433.371 382.339 431.636 382.666L437.148 391.785H434.576ZM425.328 381.069H429.646C431.32 381.069 432.575 380.66 433.412 379.841C434.269 379.022 434.698 377.927 434.698 376.556C434.698 375.144 434.29 374.059 433.473 373.301C432.657 372.523 431.371 372.135 429.615 372.135H425.328V381.069Z" fill="#252525"/>
<path d="M459.94 379.504V381.315H448.028V379.504H459.94Z" fill="#252525"/>
</svg>
