<svg width="215" height="84" viewBox="0 0 215 84" fill="none" xmlns="http://www.w3.org/2000/svg">
<path d="M188.154 17.8147L189.606 18.0098C189.719 18.0238 189.941 17.9076 190.017 17.8286C190.107 17.7403 190.135 17.4569 190.064 17.3268C189.459 16.1976 187.951 15.5237 187.19 16.244C186.831 16.5832 186.826 17.113 187.237 17.415C187.478 17.5916 187.819 17.7729 188.154 17.8193V17.8147ZM187.36 16.7691C187.814 16.0442 189.256 16.7412 189.658 17.5637C188.783 17.5219 187.426 17.3872 187.36 16.7691Z" fill="#161616"/>
<path d="M173.282 38.7305L173.136 39.474L172.753 41.4583L172.294 43.9211C171.074 43.8514 169.812 44.121 168.928 44.9946C168.096 45.8171 167.813 47.0718 168.073 48.201C168.427 49.7252 169.136 51.096 170.209 52.2391L173.495 55.7569C174.157 56.4678 174.908 57.0022 175.769 57.4483C176.757 57.9595 177.863 58.1733 178.955 57.9595C179.811 57.7922 180.42 57.2532 180.775 56.4911C181.129 55.729 181.304 54.8972 181.233 54.0329L181.04 51.5282C181.659 51.3748 182.113 50.9705 182.151 50.3339L182.302 47.5457C182.269 46.2585 182.354 45.0364 182.529 43.7585L183.115 39.4833H195.624L196.002 42.2808C196.181 43.6005 196.408 44.8598 196.508 46.1935L196.522 49.451C196.522 50.0272 196.645 50.6081 196.924 51.096C197.184 51.5421 197.67 51.7326 198.148 51.8395C197.978 53.768 197.86 56.0171 199.297 57.3508C199.935 57.9409 200.838 58.1175 201.712 58.006C203.438 57.7876 204.856 56.6677 206.142 55.5478L208.075 53.8656C209.593 52.5458 210.671 50.859 211.143 48.9212C211.389 47.6944 211.049 46.5281 210.16 45.6405C209.134 44.6414 207.697 44.2092 206.255 44.3672L205.627 39.7773C198.316 39.8172 212.937 39.7374 205.627 39.7773L205.579 39.256V38.9969L205.466 38.7584C199.686 38.7203 211.246 38.7965 205.466 38.7584L204.813 36.0585C205.669 35.947 206.326 35.487 206.615 34.7527L207.125 34.4275C207.541 34.1626 207.905 33.7444 207.967 33.2378C208.047 32.6059 207.475 32.2527 206.927 32.1644C206.865 31.8066 206.704 31.4255 206.227 31.3744L207.981 30.1988C208.851 29.6179 209.621 28.9487 210.302 28.1634C211.271 27.0435 212.155 25.3659 211.763 23.9626C211.318 22.378 210.018 20.8863 208.624 20.022C206.099 18.456 204.175 17.8519 201.396 16.9922C199.996 16.56 198.583 16.3137 197.16 16.165C198.81 15.6167 200.01 13.7254 199.306 12.3685C199.089 11.9549 198.71 11.7272 198.242 11.7133C199.046 9.56638 198.394 6.8154 197.155 5.01239C195.576 2.71681 192.669 1.82924 189.937 1.57831C189.227 1.51325 188.008 1.55043 187.526 1.93148L187.11 1.45284L185.918 0.388695C185.498 0.0122938 184.916 -0.11782 184.382 0.119173L182.879 0.797625L181.579 1.2205C181.011 1.49466 180.557 1.964 180.16 2.45193L178.525 4.46405C178.321 4.28747 178.047 4.0133 177.806 4.05977C176.553 4.3107 175.433 4.76146 174.313 5.36556C173.017 6.06724 171.807 6.85722 170.639 7.75408C169.335 8.75782 168.002 10.0915 167.813 11.7319C167.562 13.8787 168.777 15.9931 170.238 17.5684C172.682 20.1986 175.698 22.2107 179.04 23.6419L178.076 28.8418L177.74 31.2025C176.766 31.4906 175.948 32.0529 175.301 32.8103C174.842 33.526 174.445 34.2416 174.232 35.0687L173.282 38.7305ZM185.81 1.33667C185.55 1.03462 185.134 0.862682 184.751 0.899857L183.758 0.992796C184.51 0.588513 185.072 0.318991 185.691 0.881269L186.868 1.95471C187.058 2.12665 187.081 2.42405 186.878 2.58669L185.805 1.34596L185.81 1.33667ZM182.004 3.30232C181.924 3.32555 181.815 3.4789 181.843 3.53467C181.867 3.58114 182.013 3.67872 182.07 3.67407L183.153 3.60902C183.441 3.59043 183.673 3.72519 183.81 3.9436L184.609 5.19362C184.736 5.39344 184.628 5.76984 184.382 5.76519C183.692 5.75125 183.46 4.73357 182.779 4.74751C182.529 4.75216 182.212 4.9148 182.099 5.15645L181.815 5.77449C181.649 6.14159 181.356 6.47153 180.955 6.61093L180.104 6.90369C179.74 6.10442 179.376 5.41203 178.846 4.80328C179.9 3.82742 180.557 2.60063 181.668 1.70378L183.105 1.24373L183.134 1.42031C183.143 1.46214 183.318 1.49002 183.37 1.48537L184.878 1.37384C185.025 1.36455 185.304 1.52719 185.394 1.63407L186.519 2.96309C186.708 3.18615 186.533 3.63225 186.244 3.65549L185.001 2.23353C184.755 1.95471 184.439 1.79672 184.032 1.8246C183.455 1.86642 182.571 2.01512 182.477 2.32646C182.463 2.37293 182.637 2.45658 182.689 2.44729L183.857 2.30788C184.136 2.27535 184.434 2.32182 184.618 2.54022L185.715 3.83672C185.847 3.99007 185.895 4.3107 185.791 4.47799C185.195 4.66852 184.614 4.30141 184.316 3.78095C183.819 2.91198 183.02 3.01886 181.999 3.30232H182.004ZM205.712 23.4607C205.778 23.4142 205.82 23.1819 205.749 23.1633L205.494 23.0982C204.497 23.5769 203.532 24.0695 202.7 24.7711L201.906 24.3901C200.876 23.9812 199.812 23.7395 198.729 23.549C198.536 22.8705 198.228 21.6484 197.921 21.8296C197.869 21.8622 197.779 22.0202 197.789 22.0899L197.921 22.773C198.394 24.7944 198.772 26.7786 199.103 28.8279L199.495 31.2443C197.368 31.0956 195.676 31.9878 194.002 33.1542L191.946 32.894C189.383 32.5687 186.845 32.657 184.254 32.8382C182.529 31.4906 180.685 30.7378 178.487 31.0352L179.125 27.0388L179.971 22.4709C180.108 21.7367 180.014 21.1047 179.763 21.2441C179.716 21.272 179.607 21.3742 179.588 21.4439L179.215 22.9263C178.005 22.3176 176.79 21.7599 175.627 21.0396C173.845 19.9383 172.247 18.6418 170.824 17.1269C169.193 15.3843 167.628 12.5544 168.994 10.4539C170.034 8.8554 172.105 7.46132 173.783 6.44364C175.045 5.6769 176.331 5.0728 177.74 4.57093C178.865 5.52355 179.503 7.02451 180.028 8.43718L177.627 10.4261C176.761 11.1417 175.844 11.6947 174.852 12.2244L173.556 12.9168C173.476 12.9586 173.386 13.1678 173.429 13.2514C173.637 13.651 175.234 12.8239 175.977 12.4382L176.653 13.0191C178.269 14.1947 180.567 15.3007 182.628 15.3936C183.432 16.7412 184.524 17.9587 185.975 18.7069C188.206 19.8547 190.854 19.929 193.184 19.0461C194.456 18.5628 195.397 17.7171 196.181 16.6344C198.115 16.797 200.124 17.2385 201.968 17.8472C203.239 18.2654 204.506 18.5861 205.693 19.1948L207.541 20.1428C209.082 20.9328 210.628 22.4663 211.096 24.1392C211.474 25.4961 210.359 27.1597 209.347 28.168C208.888 28.6234 208.425 29.0695 207.877 29.4227L205.272 31.1188C205.168 31.1885 204.955 31.2118 204.818 31.2071C204.516 30.5426 204.076 30.0826 203.547 29.6039C202.686 28.8279 201.689 28.3121 200.478 28.1216C201.67 26.4766 203.14 25.2405 204.752 24.1206L205.716 23.4514L205.712 23.4607ZM176.53 12.0943L178.199 10.8582L180.297 9.06916C180.524 8.87399 180.695 8.52547 180.6 8.24201L180.312 7.36838C181.389 7.26615 182.221 6.64811 182.467 5.5979C182.51 5.41203 182.689 5.25403 182.897 5.27727C182.146 6.4297 181.725 7.68902 181.758 9.06916C181.224 8.90652 180.78 9.06451 180.453 9.43162C179.305 10.7235 180.279 13.2886 182.018 13.8601L182.311 14.7477C180.141 14.3109 178.236 13.3862 176.53 12.085V12.0943ZM195.217 16.9178C194.427 17.81 193.477 18.4048 192.286 18.7208C190.353 19.232 188.23 19.1112 186.419 18.205C184.84 17.415 183.696 16.0674 182.949 14.5247C182.429 13.1678 182.264 11.7644 182.529 10.3471C183.38 9.74761 183.971 8.99481 184.467 8.07472C185.483 8.52082 186.523 8.74387 187.587 8.5487L189.502 8.19089L189.156 8.79499C189.005 9.05522 189.19 9.33403 189.445 9.43162C191.355 10.2309 194.002 10.0404 195.893 9.07381C196.03 10.4075 196.479 11.611 197.283 12.7077C197.009 14.2923 196.285 15.7143 195.217 16.9225V16.9178ZM180.846 9.88237C180.964 9.6965 181.21 9.57103 181.404 9.57568C181.626 9.58497 181.82 9.70114 181.976 9.90561C181.659 10.9512 181.687 12.006 181.848 13.1166C180.851 12.3638 180.203 10.8768 180.841 9.88237H180.846ZM196.843 15.6074C197.292 14.6362 197.633 13.6696 197.774 12.6148C197.831 12.4661 197.954 12.2755 198.068 12.2523C198.195 12.2244 198.446 12.2755 198.554 12.3545C198.866 12.5776 198.914 12.9447 198.904 13.3165C198.744 14.3945 197.978 15.2868 196.843 15.612V15.6074ZM199.717 28.0193L198.914 24.1949C200.044 24.4505 201.14 24.7293 202.204 25.2033C201.244 26.0212 200.45 26.9413 199.717 28.0193ZM206.203 32.8103C206.567 32.6756 207.064 32.6523 207.319 32.9358C207.877 33.5399 205.749 34.8782 204.308 34.6226C203.49 32.7406 202.384 31.6347 200.27 31.328L199.958 29.5575C199.916 29.3158 200.11 28.9627 200.214 28.7071C201.206 28.7954 202.091 29.195 202.842 29.827L203.49 30.3753C203.291 30.3614 203.05 30.366 203.027 30.459C203.041 30.5659 203.211 30.7285 203.296 30.7889C204.804 31.7787 204.128 33.368 204.771 33.7397C204.809 33.7629 204.946 33.6932 204.951 33.6468L205.003 33.2471L206.194 32.8057L206.203 32.8103ZM197.037 44.2836L196.474 40.8123C196.243 39.3764 196.186 37.9963 196.366 36.5418C196.38 36.4396 196.271 36.263 196.186 36.2537C195.761 36.2212 195.666 37.8708 195.6 38.7305H183.153C183.158 37.843 183.058 36.9972 182.86 36.1701C182.841 36.0818 182.628 35.9516 182.576 36.0121C182.533 36.0632 182.481 36.1747 182.434 36.2769C182.628 38.0753 182.477 39.7947 182.141 41.5651C181.919 43.0382 181.602 44.4416 181.588 45.9379L181.564 49.0095C181.082 48.2288 180.529 47.5783 179.801 47.0067C178.586 45.9379 177.073 45.3245 175.452 45.2966C174.686 44.7576 173.911 44.3022 172.975 44.0791L174.034 38.9396L174.885 35.6635C175.107 34.8178 175.452 34.0418 175.939 33.3122C176.426 32.5826 177.239 32.104 178.128 31.8856C180.472 31.3047 182.614 32.341 184.396 33.8419L186.23 35.6868L186.452 35.7147C186.504 35.7193 186.504 35.5381 186.5 35.4916C186.14 34.7249 185.611 34.1161 184.973 33.5074C187.852 33.2983 190.631 33.3354 193.473 33.6514C192.839 34.2276 191.487 35.8029 191.865 36.0446C191.936 36.0911 192.139 36.0585 192.206 35.9935L193.983 34.1672C194.763 33.4562 195.628 32.9079 196.593 32.4757C197.93 31.8763 199.382 31.7973 200.786 32.1876C201.816 32.4757 202.653 33.1124 203.164 34.0464C204.189 35.9331 204.7 38.7723 205.069 40.9517L205.674 44.5252C204.837 44.739 204.085 45.1665 203.424 45.7567C201.835 45.7195 200.37 46.2167 199.221 47.2809C198.427 47.9128 197.765 48.6099 197.24 49.5253V47.2948C197.236 46.2911 197.202 45.3245 197.032 44.2882L197.037 44.2836ZM204.988 32.7034L204.899 32.0947L205.627 31.8809C205.929 31.7926 206.284 31.8531 206.435 32.1644L204.988 32.7034ZM204.52 35.1896L205.801 35.0734C205.452 35.3568 205.073 35.5055 204.62 35.5474L204.52 35.1896ZM180.52 54.9483C180.198 54.2791 179.896 53.7076 179.413 53.2011L177.924 51.6257C176.653 50.1806 176.104 48.5681 174.719 47.1461C173.575 45.9704 171.85 44.8877 170.143 45.041C172.119 43.9676 174.497 45.0689 175.925 46.7L177.423 48.4101C177.475 48.4658 177.669 48.5216 177.73 48.4705C178.047 48.201 176.913 46.7279 176.341 46.0913C177.953 46.3282 179.418 47.4575 180.482 48.7168C180.099 50.8451 180.718 52.8665 180.52 54.953V54.9483ZM198.654 48.7586L199.642 47.8106C200.502 47.0625 201.514 46.542 202.724 46.4026C202.228 47.002 201.202 48.3636 201.641 48.4705C201.712 48.4891 201.883 48.4379 201.93 48.3822L203.315 46.8255C204.851 45.1015 207.158 44.3858 209.177 45.7241C208.132 45.5894 207.22 45.7056 206.307 46.1238C205.447 46.5141 204.752 47.1182 204.095 47.7967L202.681 49.6554C201.982 50.8218 201.088 51.7837 200.1 52.7178C199.509 53.2754 199.131 53.8935 198.796 54.6834C198.45 52.6527 199.202 50.7196 198.654 48.7539V48.7586ZM174.421 55.6732L172.171 53.359L170.205 51.1053C169.609 50.3014 169.169 49.451 168.867 48.4984C168.498 47.3366 168.659 46.1238 169.831 45.8078C171.632 45.3245 173.807 46.9091 174.885 48.3868L176.085 50.2503C176.568 50.9984 177.036 51.714 177.655 52.3553L179.031 53.7726C179.555 54.3117 179.886 54.9948 180 55.729C180.113 56.4632 179.669 57.0998 178.945 57.2857C177.433 57.6807 175.438 56.7281 174.412 55.6732H174.421ZM199.424 56.3424C199.202 55.5942 199.405 54.8554 199.769 54.2234C200.412 53.1128 201.561 52.3785 202.369 51.24L204.01 48.9352C205.055 47.4667 206.799 46.0587 208.666 46.2539C209.333 46.3236 209.985 46.621 210.321 47.2019C211.186 48.6935 209.319 51.8209 207.915 53.0431L204.563 55.9567C203.877 56.5561 203.06 56.9418 202.204 57.2114C201.571 57.4112 200.928 57.4298 200.318 57.1742C199.958 57.0208 199.547 56.756 199.424 56.3377V56.3424Z" fill="#161616"/>
<path d="M184.193 13.3025C184.916 13.9577 186.575 13.8555 187.582 13.2514C188.325 12.8006 188.471 12.0246 188.069 11.309C187.441 10.1798 186.122 9.71509 184.926 10.3052C184.368 10.5794 183.9 11.0255 183.734 11.6482C183.583 12.2244 183.734 12.8936 184.198 13.3072L184.193 13.3025ZM187.223 12.6891C187.261 11.9503 186.821 11.5739 187.053 11.2857C187.516 11.3229 187.885 11.7876 187.748 12.2384C187.686 12.4428 187.407 12.638 187.223 12.6891ZM184.424 12.5032C184.406 12.3406 184.628 12.0571 184.784 12.0804C185.086 12.2151 185.162 12.6891 185.067 12.9354C184.793 13.0144 184.458 12.7821 184.424 12.5032Z" fill="#161616"/>
<path d="M195.619 12.6473C195.576 12.006 195.203 11.4809 194.706 11.1092C193.647 10.3052 192.262 10.519 191.426 11.5041C190.896 12.1315 190.887 12.9261 191.53 13.5023C192.399 14.2877 194.007 14.6966 194.843 14.1901C195.373 13.8694 195.657 13.2421 195.619 12.6473ZM191.563 12.48C191.515 12.0107 191.965 11.625 192.428 11.6761C192.598 12.0014 192.097 12.2895 191.993 13.0237C191.823 12.9354 191.586 12.6984 191.567 12.4846L191.563 12.48ZM194.063 13.665C194.021 13.4047 194.186 12.954 194.508 12.8796C194.664 12.8889 194.829 13.2049 194.777 13.3629C194.692 13.6278 194.319 13.7951 194.063 13.665Z" fill="#161616"/>
<path d="M15.5671 60.5708V60.6174C15.5671 65.8878 11.7715 69.3393 6.41028 69.3393C3.75339 69.3393 1.85561 68.7796 0.859273 68.1732C0.289939 67.8001 0.0527161 67.3803 0.00527164 64.3487C0.00527164 63.2293 -0.042173 61.2704 0.147605 60.2443C0.242494 59.7779 0.384828 59.7313 0.669494 59.7313C1.23883 59.7313 1.23883 59.9645 1.33372 60.4309C2.51983 66.1677 4.60739 68.2199 7.40661 68.2199C10.538 68.2199 12.7204 65.4681 12.7204 61.97C12.7204 58.472 10.4905 56.5131 7.83361 54.834C7.16939 54.4142 6.45772 53.9478 5.7935 53.528C2.89939 51.7091 0.19505 49.6102 0.19505 45.5991C0.19505 41.7746 3.80083 38.6496 8.26061 38.6496C10.2533 38.6496 12.8627 39.4425 13.4795 40.0489C13.6693 40.2354 13.7167 40.422 13.7642 41.4947V44.4797C13.7642 46.9051 13.7642 46.9983 13.2897 46.9983C12.6255 46.9983 12.7678 46.2521 12.4832 45.2726C11.2971 41.1682 9.58906 39.769 7.5015 39.769C5.12928 39.769 3.04172 41.8212 3.04172 44.2465C3.04172 48.4908 6.31539 50.2165 9.54162 52.1288C12.5781 53.9944 15.5671 56 15.5671 60.5708Z" fill="#161616"/>
<path d="M28.2192 56.0933L24.2338 67.9867C23.9492 68.8262 23.8068 69.3393 23.285 69.3393C22.7631 69.3393 22.6207 68.7796 22.004 66.7274L15.1245 43.2204C14.6026 41.4014 14.2231 40.7018 13.7961 40.5153C13.2267 40.2821 12.6574 40.1421 12.6574 39.8157C12.6574 39.4892 12.7997 39.2093 13.4165 39.2093C14.4603 39.2093 15.4566 39.3959 16.1683 39.3959C17.2121 39.3959 18.0661 39.2093 18.7303 39.2093C19.5368 39.2093 19.6792 39.3493 19.6792 39.8157C19.6792 40.3287 19.2522 40.3753 18.7777 40.422C18.3507 40.4686 17.8763 40.6552 17.8763 41.4014C17.8763 41.7746 17.9712 42.2876 18.3507 43.5936L23.5222 60.6174C23.8543 61.6902 24.0915 62.4364 24.3762 62.4364C24.566 62.4364 24.7557 62.1099 24.9455 61.5036L27.2703 54.8806C27.5075 54.2743 27.6024 53.8545 27.6024 53.6213C27.6024 53.3881 27.2703 52.4553 27.0805 51.849L23.8543 42.1477C23.5222 41.1216 23.0477 40.6086 22.4784 40.5153C21.7667 40.422 21.3872 40.3287 21.3872 39.769C21.3872 39.4425 21.7193 39.2093 22.3361 39.2093C22.9054 39.2093 23.712 39.3959 25.1827 39.3959C26.6535 39.3959 27.7447 39.2093 28.0768 39.2093C28.6462 39.2093 28.836 39.3493 28.836 39.8623C28.836 40.2821 28.5038 40.422 27.6498 40.5153C27.2228 40.5619 26.9856 40.9817 26.9856 41.5414C26.9856 42.6607 28.3615 46.2521 28.7411 47.558C29.0732 48.6774 29.1681 49.0505 29.3578 49.0505C29.5476 49.0505 29.8797 47.9778 30.1644 47.2315C30.4965 46.3454 31.9673 42.4742 31.9673 41.4014C31.9673 40.6552 31.5403 40.4686 31.0658 40.422C30.6388 40.3753 30.1644 40.2821 30.1644 39.7224C30.1644 39.3959 30.4016 39.2093 30.7337 39.2093C31.1607 39.2093 31.9673 39.3959 32.5841 39.3959C33.6753 39.3959 34.6716 39.2093 35.1935 39.2093C35.5256 39.2093 35.7629 39.3959 35.7629 39.769C35.7629 40.3287 35.3359 40.3287 34.814 40.422C34.2921 40.5619 33.6753 40.7951 33.2483 41.9611L30.5914 49.2371C30.4016 49.7968 29.9746 50.7296 29.9746 50.9628C29.9746 51.2426 30.2118 51.849 30.4016 52.5019L33.0111 60.8973C33.2483 61.7368 33.4855 62.4364 33.6279 62.4364C33.8176 62.4364 34.0074 61.7368 34.3395 60.6174L39.2738 43.8268C39.511 43.0339 39.7007 42.1011 39.7007 41.4947C39.7007 40.7485 39.1314 40.6086 38.5621 40.5153C37.9927 40.422 37.4234 40.3753 37.4234 39.8623C37.4234 39.4425 37.6132 39.2093 38.0402 39.2093C38.7519 39.2093 39.5584 39.3959 40.6496 39.3959C41.4562 39.3959 42.2628 39.2093 42.8795 39.2093C43.2591 39.2093 43.4963 39.3959 43.4963 39.8157C43.4963 40.2821 43.1168 40.422 42.5 40.5153C41.5036 40.6552 41.0292 42.4742 40.4124 44.573L33.533 67.94C33.2957 68.7796 33.1534 69.3393 32.6315 69.3393C32.1096 69.3393 32.0147 69.0594 31.7775 68.1732L28.3141 56.0933H28.2192Z" fill="#161616"/>
<path d="M48.1651 58.2388H42.709C41.9499 58.2388 41.7127 58.3787 41.1434 60.6641C40.0996 64.9084 39.9098 65.7013 39.9098 66.3543C39.9098 66.9139 40.0996 67.427 41.2857 67.6135C42.1871 67.7535 42.8039 67.7535 42.8039 68.2665C42.8039 68.6863 42.5192 68.7796 41.9974 68.7796C41.1908 68.7796 40.1945 68.593 39.1032 68.593C37.7748 68.593 36.6361 68.7796 36.4464 68.7796C36.1142 68.7796 35.9245 68.593 35.9245 68.2665C35.9245 67.8934 36.1617 67.7535 36.5412 67.6602C36.9682 67.5669 37.6325 67.427 37.8697 66.6807C40.4791 58.4253 42.6616 49.9833 44.7966 41.588C44.9389 41.0283 45.0813 40.5153 45.1761 40.0489C45.3185 39.3026 45.4608 38.6496 46.0301 38.6496C46.552 38.6496 46.6469 39.0228 46.8367 39.769C49.3038 48.4442 51.7709 57.166 54.238 65.8412C54.4753 66.6807 54.9023 67.4736 55.4241 67.6602C56.0409 67.8468 56.8475 67.94 56.8475 68.4064C56.8475 68.6863 56.5628 68.7796 55.8512 68.7796C54.8074 68.7796 54.0483 68.593 52.957 68.593C51.7235 68.593 50.4899 68.7796 49.5885 68.7796C49.1615 68.7796 48.7819 68.6396 48.7819 68.2665C48.7819 67.8934 49.2564 67.6602 50.0155 67.6602C50.6797 67.6602 51.249 67.4736 51.249 66.4942C51.249 66.0278 50.822 64.6752 49.7308 60.5708C49.2089 58.6119 49.0191 58.2388 48.1651 58.2388ZM43.2309 57.1194H47.5958C48.4973 57.1194 48.5447 56.9795 48.5447 56.7463C48.5447 56.5597 48.4973 56.2332 48.3549 55.7202C47.9754 54.3209 47.0739 51.4758 45.9352 46.9983C45.7455 46.2521 45.5557 46.0655 45.271 46.0655C44.9389 46.0655 44.8915 46.2987 44.5594 47.6047C43.6105 51.3826 43.0411 53.6213 42.709 54.9739C42.3769 56.2798 42.282 56.653 42.282 56.7929C42.282 56.9795 42.3295 57.1194 43.2309 57.1194Z" fill="#161616"/>
<path d="M57.5947 65.2349V56.1866C57.5947 55.487 57.4998 55.1138 56.8831 53.7612C55.1751 50.03 53.562 46.1588 51.8065 42.5208C51.0474 40.935 50.6678 40.7018 50.0511 40.5153C49.4817 40.3754 48.9598 40.3753 48.9598 39.9089C48.9598 39.4892 49.2445 39.2093 49.7189 39.2093C50.2408 39.2093 51.7116 39.3959 53.0875 39.3959C55.2225 39.3959 56.2663 39.2093 56.5035 39.2093C56.9305 39.2093 57.4524 39.3959 57.4524 39.8623C57.4524 40.4686 56.8831 40.3287 56.124 40.5153C55.0327 40.7951 54.843 40.9817 54.843 41.588C54.843 42.0078 55.3648 43.3137 56.8831 46.8584C59.3976 52.7818 59.6823 53.2016 60.0144 53.2016C60.4414 53.2016 60.5363 52.6419 62.6239 48.3509C64.7114 44.06 65.3282 42.1477 65.3282 41.6347C65.3282 41.0283 64.9961 40.7485 63.4779 40.5153C62.8611 40.422 62.4815 40.3287 62.4815 39.9556C62.4815 39.4892 62.8136 39.2093 63.3355 39.2093C64.237 39.2093 65.2333 39.3959 66.1822 39.3959C67.7953 39.3959 68.08 39.2093 68.8865 39.2093C69.2661 39.2093 69.4084 39.3959 69.4084 39.8157C69.4084 40.3754 69.1712 40.3754 68.6967 40.5153C67.8427 40.7485 67.4157 41.0283 66.3245 43.1738C64.664 46.4853 63.1457 49.8901 61.5326 53.2948C60.7735 54.8806 60.7261 55.2071 60.7261 55.8134V65.5147C60.7261 66.6341 61.0582 67.3337 62.0071 67.4736C62.9085 67.6136 63.81 67.6135 63.81 68.2199C63.81 68.7329 63.4304 68.7796 62.6713 68.7796C61.8647 68.7796 60.8684 68.593 59.2553 68.593C57.5473 68.593 56.2663 68.7796 55.27 68.7796C54.416 68.7796 54.3211 68.593 54.3211 68.2199C54.3211 67.7535 54.8904 67.6136 56.124 67.4736C57.3575 67.3337 57.5947 66.8673 57.5947 65.2349Z" fill="#161616"/>
<path d="M71.8125 43.2204V61.8301C71.8125 64.5353 72.3344 65.5147 73.141 66.4009C74.2796 67.7068 75.9876 68.2199 77.411 68.2199C79.4985 68.2199 81.5386 67.3337 82.7722 65.1882C83.4364 63.9756 83.8634 62.1099 83.8634 60.1044V44.1999C83.8634 41.3082 83.3415 40.5619 81.9656 40.5153C80.9693 40.4686 80.6372 40.422 80.6372 39.8157C80.6372 39.4892 80.9219 39.2093 81.4912 39.2093C82.108 39.2093 82.6299 39.3959 84.243 39.3959C86.3305 39.3959 86.8524 39.2093 87.4218 39.2093C87.8962 39.2093 88.0385 39.3959 88.0385 39.8157C88.0385 40.3754 87.5166 40.2821 86.4729 40.5153C85.4765 40.7485 85.1919 41.1682 85.1919 43.7335V59.4981C85.1919 62.0167 84.7649 64.0689 83.816 65.7479C82.3452 68.3598 79.9255 69.3393 76.9365 69.3393C74.849 69.3393 72.5242 68.8262 70.8636 67.3803C69.5826 66.2143 68.6812 64.442 68.6812 61.8301V42.3343C68.6812 40.8884 68.6812 40.5619 67.6848 40.422C66.4987 40.2354 66.309 40.0955 66.309 39.6757C66.309 39.3493 66.7834 39.2093 67.163 39.2093C68.2542 39.2093 69.298 39.3959 70.3892 39.3959C72.5242 39.3959 73.3782 39.2093 74.1373 39.2093C74.8964 39.2093 75.276 39.256 75.276 39.7224C75.276 40.1421 74.8015 40.2354 73.8052 40.3754C72.7614 40.5153 71.8125 40.5153 71.8125 43.2204Z" fill="#161616"/>
<path d="M92.783 55.6735V65.095C92.783 66.6341 93.1625 67.3337 94.1589 67.4736C95.772 67.7068 96.5785 67.6602 96.5785 68.1732C96.5785 68.4997 96.2939 68.7796 95.7245 68.7796C95.0129 68.7796 94.1589 68.593 91.4545 68.593C88.7028 68.593 88.1334 68.7796 87.6115 68.7796C86.8524 68.7796 86.6152 68.6396 86.6152 68.3132C86.6152 67.7535 86.9473 67.6602 88.513 67.4736C89.367 67.3803 89.6516 66.774 89.6516 65.5614V42.754C89.6516 41.1682 89.2246 40.6086 88.3706 40.5153C86.8999 40.3287 86.6152 40.3287 86.6152 39.8157C86.6152 39.4892 86.7101 39.2093 87.3743 39.2093C88.7502 39.2093 90.0312 39.3959 91.2173 39.3959C92.9728 39.3959 94.918 39.2093 96.626 39.2093C101.513 39.2093 105.403 42.1477 105.403 47.6513C105.403 52.2687 101.608 55.4403 97.0055 55.4403C95.8194 55.4403 95.0603 55.347 94.5384 55.2071C94.0165 55.0672 93.6844 54.9739 93.2574 54.9739C92.8779 54.9739 92.783 55.2538 92.783 55.6735ZM92.783 41.8679V52.4553C92.783 52.9217 92.9728 53.2948 93.3998 53.668C93.8268 54.0411 94.5384 54.3209 95.5348 54.3209C99.7099 54.3209 101.892 51.5225 101.892 47.4181C101.892 43.1272 99.615 40.3287 95.3924 40.3287C93.4472 40.3287 92.783 40.7951 92.783 41.8679Z" fill="#161616"/>
<path d="M126.406 60.5708V60.6174C126.406 65.8878 122.61 69.3393 117.249 69.3393C114.592 69.3393 112.694 68.7796 111.698 68.1732C111.128 67.8001 110.891 67.3803 110.844 64.3487C110.844 63.2293 110.796 61.2704 110.986 60.2443C111.081 59.7779 111.223 59.7313 111.508 59.7313C112.077 59.7313 112.077 59.9645 112.172 60.4309C113.358 66.1677 115.446 68.2199 118.245 68.2199C121.376 68.2199 123.559 65.4681 123.559 61.97C123.559 58.472 121.329 56.5131 118.672 54.834C118.008 54.4142 117.296 53.9478 116.632 53.528C113.738 51.7091 111.034 49.6102 111.034 45.5991C111.034 41.7746 114.639 38.6496 119.099 38.6496C121.092 38.6496 123.701 39.4425 124.318 40.0489C124.508 40.2354 124.555 40.422 124.603 41.4947V44.4797C124.603 46.9051 124.603 46.9983 124.128 46.9983C123.464 46.9983 123.606 46.2521 123.322 45.2726C122.136 41.1682 120.428 39.769 118.34 39.769C115.968 39.769 113.88 41.8212 113.88 44.2465C113.88 48.4908 117.154 50.2165 120.38 52.1288C123.417 53.9944 126.406 56 126.406 60.5708Z" fill="#161616"/>
<path d="M133.222 65.0483V41.1682C133.222 40.5619 133.08 40.5153 130.85 40.5153C128.525 40.5153 127.386 42.4742 126.675 44.2465C126.058 45.739 125.773 47.1383 125.251 47.1383C124.872 47.1383 124.729 47.045 124.729 46.0655C124.729 45.9256 124.777 45.5525 124.824 45.0394C124.919 43.7335 125.204 41.4947 125.536 39.9089C125.773 38.8362 126.01 38.09 126.343 38.09C126.77 38.09 126.912 38.4164 127.102 38.7429C127.291 39.0694 127.481 39.3959 128.051 39.3959H141.952C143.185 39.3959 143.612 39.0694 143.802 38.7429C143.992 38.4164 144.087 38.09 144.561 38.09C144.988 38.09 145.131 38.3698 145.131 39.3959C145.131 40.0489 145.083 40.6086 145.083 41.1682C145.036 42.3343 144.893 44.2465 144.751 45.4126C144.609 46.7651 144.324 47.1383 143.992 47.1383C143.423 47.1383 143.328 45.9256 143.043 44.5264C142.616 42.7074 141.857 40.5153 138.963 40.5153H137.445C136.448 40.5153 136.353 40.7485 136.353 41.1682V65.1416C136.353 66.6341 136.828 67.3337 137.539 67.4736C138.773 67.7068 139.864 67.6602 139.864 68.2199C139.864 68.7329 139.39 68.7796 138.868 68.7796C138.299 68.7796 137.397 68.593 134.788 68.593C131.799 68.593 131.372 68.7796 130.755 68.7796C129.996 68.7796 129.806 68.593 129.806 68.2199C129.806 67.8467 129.948 67.6136 131.799 67.4736C132.985 67.3803 133.222 66.8207 133.222 65.0483Z" fill="#161616"/>
<path d="M148.752 43.2204V61.8301C148.752 64.5353 149.274 65.5147 150.081 66.4009C151.219 67.7068 152.927 68.2199 154.351 68.2199C156.438 68.2199 158.478 67.3337 159.712 65.1882C160.376 63.9756 160.803 62.1099 160.803 60.1044V44.1999C160.803 41.3082 160.281 40.5619 158.905 40.5153C157.909 40.4686 157.577 40.422 157.577 39.8157C157.577 39.4892 157.862 39.2093 158.431 39.2093C159.048 39.2093 159.57 39.3959 161.183 39.3959C163.27 39.3959 163.792 39.2093 164.362 39.2093C164.836 39.2093 164.978 39.3959 164.978 39.8157C164.978 40.3754 164.456 40.2821 163.413 40.5153C162.416 40.7485 162.132 41.1682 162.132 43.7335V59.4981C162.132 62.0167 161.705 64.0689 160.756 65.7479C159.285 68.3598 156.865 69.3393 153.876 69.3393C151.789 69.3393 149.464 68.8262 147.803 67.3803C146.522 66.2143 145.621 64.442 145.621 61.8301V42.3343C145.621 40.8884 145.621 40.5619 144.625 40.422C143.439 40.2354 143.249 40.0955 143.249 39.6757C143.249 39.3493 143.723 39.2093 144.103 39.2093C145.194 39.2093 146.238 39.3959 147.329 39.3959C149.464 39.3959 150.318 39.2093 151.077 39.2093C151.836 39.2093 152.216 39.256 152.216 39.7224C152.216 40.1421 151.741 40.2354 150.745 40.3754C149.701 40.5153 148.752 40.5153 148.752 43.2204Z" fill="#161616"/>
<path d="M166.402 64.955V42.4275C166.402 41.4481 166.07 41.1216 165.216 40.935C164.883 40.8884 164.456 40.8418 163.935 40.7951C163.365 40.7485 163.081 40.7018 163.081 40.3754C163.081 39.9556 163.223 39.9556 164.646 39.4892C166.639 38.8362 168.821 38.6496 171.905 38.6496C175.748 38.6496 178.927 40.0955 181.157 42.6607C183.434 45.226 184.715 48.9106 184.715 53.2948C184.715 62.9961 180.73 68.7796 172.522 68.7796C171.051 68.7796 169.533 68.593 167.445 68.593C165.785 68.593 164.646 68.7796 163.982 68.7796C163.365 68.7796 163.081 68.6396 163.081 68.2199C163.081 67.7068 163.365 67.6602 164.599 67.4736C165.975 67.2404 166.402 66.5408 166.402 64.955ZM169.533 42.2876V64.3953C169.533 66.261 170.292 67.6602 172.617 67.6602C175.369 67.6602 177.504 66.774 178.974 64.6285C180.445 62.4831 181.204 59.0317 181.204 53.8545C181.204 43.407 177.219 39.769 172.38 39.769C170.007 39.769 169.533 40.5153 169.533 42.2876Z" fill="#161616"/>
<path d="M190.978 42.1943V65.0483C190.978 66.3542 191.215 67.1938 192.496 67.4736C193.398 67.6602 194.394 67.7068 194.394 68.3598C194.394 68.593 194.204 68.7796 193.35 68.7796C192.923 68.7796 192.686 68.593 189.412 68.593C186.139 68.593 185.949 68.7796 185.474 68.7796C184.905 68.7796 184.573 68.7796 184.573 68.2665C184.573 67.7068 185.427 67.6602 186.281 67.4736C187.704 67.1471 187.847 66.9139 187.847 65.2815V42.1943C187.847 40.935 187.467 40.6552 186.518 40.5153C184.952 40.2821 184.525 40.4686 184.525 39.769C184.525 39.4892 184.763 39.2093 185.522 39.2093C186.708 39.2093 188.036 39.3959 189.412 39.3959C190.883 39.3959 192.401 39.2093 193.445 39.2093C194.109 39.2093 194.489 39.3959 194.489 39.8157C194.489 40.3754 193.919 40.2821 192.306 40.5153C191.31 40.6552 190.978 41.3082 190.978 42.1943Z" fill="#161616"/>
<path d="M194.124 53.9944V53.9478C194.124 45.226 199.106 38.6496 204.562 38.6496C210.018 38.6496 215 45.226 215 53.9944C215 62.7629 210.018 69.3393 204.562 69.3393C199.106 69.3393 194.124 62.7629 194.124 53.9944ZM211.204 53.9944V53.9478C211.204 43.4536 207.646 39.769 204.562 39.769C201.478 39.769 197.92 43.4536 197.92 53.9944C197.92 64.5353 201.478 68.2199 204.562 68.2199C207.646 68.2199 211.204 64.5353 211.204 53.9944Z" fill="#161616"/>
<path d="M22.2652 82.6578V78.3046H20.7744V77.8984H24.221V78.3046H22.7302V82.6578H22.2652Z" fill="#161616"/>
<path d="M24.9757 82.6578V77.8984H28.0459V78.3046H25.4406V79.9879H27.3448V80.3869H25.4406V82.2587H28.1566V82.6578H24.9757Z" fill="#161616"/>
<path d="M30.4404 82.7448C29.5769 82.7448 28.9127 82.3313 28.7061 81.5695L29.1341 81.4026C29.2891 82.0701 29.8721 82.3603 30.4552 82.3603C31.1637 82.3603 31.636 81.9758 31.636 81.4389C31.636 80.8004 31.0677 80.6118 30.3223 80.3869C29.4958 80.1402 28.9127 79.8428 28.9201 79.0302C28.9201 78.3119 29.5696 77.804 30.4921 77.804C31.3261 77.804 31.9017 78.1378 32.101 78.8198L31.6877 79.0012C31.5548 78.428 31.0973 78.1958 30.4921 78.1958C29.8279 78.1958 29.3777 78.5223 29.3777 79.0012C29.3777 79.5816 29.8057 79.7702 30.5659 80.0024C31.363 80.2491 32.101 80.5247 32.101 81.3954C32.101 82.1862 31.4146 82.7448 30.4404 82.7448Z" fill="#161616"/>
<path d="M34.0636 82.6578V78.3046H32.5727V77.8984H36.0193V78.3046H34.5285V82.6578H34.0636Z" fill="#161616"/>
<path d="M36.774 82.6578V77.8984H39.8442V78.3046H37.239V79.9879H39.1431V80.3869H37.239V82.2587H39.9549V82.6578H36.774Z" fill="#161616"/>
<path d="M40.6115 82.6578V82.2878L42.9289 79.0737L43.6005 78.2611L42.6705 78.3046H40.7738V77.8984H44.0433V78.2756L41.7111 81.5115L41.0543 82.295L41.9399 82.2587H44.0876V82.6578H40.6115Z" fill="#161616"/>
<path d="M45.9985 82.6578L47.7845 77.8984H48.4045L50.1757 82.6578H49.6886L49.172 81.2285H47.0096L46.4856 82.6578H45.9985ZM47.1425 80.844H49.0392L48.4266 79.1898L48.1019 78.1886H48.0798L47.755 79.1898L47.1425 80.844Z" fill="#161616"/>
<path d="M51.8906 82.6578L50.1415 77.8984H50.636L51.898 81.4171L52.1489 82.2733H52.1711L52.4146 81.4171L53.684 77.8984H54.1711L52.4146 82.6578H51.8906Z" fill="#161616"/>
<path d="M54.1427 82.6578L55.9288 77.8984H56.5487L58.32 82.6578H57.8329L57.3163 81.2285H55.1538L54.6298 82.6578H54.1427ZM55.2867 80.844H57.1834L56.5709 79.1898L56.2461 78.1886H56.224L55.8992 79.1898L55.2867 80.844Z" fill="#161616"/>
<path d="M59.2391 82.6578V77.8984H59.7926L61.8517 81.0399L62.4938 82.1717L62.4126 81.0326V77.8984H62.8702V82.6578H62.42L60.2354 79.3421L59.6007 78.2466L59.6893 79.3494V82.6578H59.2391Z" fill="#161616"/>
<path d="M65.1125 82.6578V78.3046H63.6217V77.8984H67.0683V78.3046H65.5775V82.6578H65.1125Z" fill="#161616"/>
<path d="M69.3869 82.6578V77.8984H70.8482C72.3021 77.8984 73.1214 78.7182 73.1214 80.2636C73.1214 81.7872 72.2653 82.6578 70.7744 82.6578H69.3869ZM70.8409 82.266C71.9479 82.266 72.6269 81.5695 72.6269 80.2708V80.249C72.6269 78.9504 72.0217 78.2829 70.8482 78.2829H69.8445V82.266H70.8409Z" fill="#161616"/>
<path d="M74.3239 82.6578V77.8984H77.3941V78.3046H74.7889V79.9879H76.693V80.3869H74.7889V82.2587H77.5048V82.6578H74.3239Z" fill="#161616"/>
<path d="M80.097 82.6578V77.8984H81.4476C82.6727 77.8984 83.241 78.3699 83.241 79.3276C83.241 80.3506 82.5029 80.9093 81.3811 80.9093H80.5546V82.6578H80.097ZM81.3516 80.5247C82.3775 80.5247 82.7686 80.0241 82.7686 79.3712C82.7686 78.5731 82.3332 78.2756 81.3959 78.2756H80.5546V80.5247H81.3516Z" fill="#161616"/>
<path d="M83.3971 82.6578L85.1831 77.8984H85.8031L87.5743 82.6578H87.0872L86.5706 81.2285H84.4082L83.8842 82.6578H83.3971ZM84.541 80.844H86.4378L85.8252 79.1898L85.5005 78.1886H85.4783L85.1536 79.1898L84.541 80.844Z" fill="#161616"/>
<path d="M89.1213 82.6578V80.7569L87.4091 77.8984H87.9405L88.9147 79.5671L89.3354 80.4594H89.3723L89.8003 79.5671L90.7598 77.8984H91.2985L89.5863 80.7569V82.6578H89.1213Z" fill="#161616"/>
<path d="M92.0899 82.6578V77.8984H95.1601V78.3046H92.5548V79.9879H94.4589V80.3869H92.5548V82.2587H95.2708V82.6578H92.0899Z" fill="#161616"/>
<path d="M96.2557 82.6578V77.8984H97.7244C98.9569 77.8984 99.503 78.3554 99.503 79.139C99.503 79.7122 99.1561 80.249 98.3074 80.3796C99.0233 80.5393 99.4956 81.1632 99.6432 82.4329C99.6506 82.5054 99.6728 82.6505 99.6728 82.6578H99.1857C99.1783 82.5997 99.1709 82.5344 99.1709 82.4546C99.038 81.1632 98.4993 80.6046 97.6801 80.6046H96.7133V82.6578H96.2557ZM97.7096 80.2345C98.6248 80.2345 99.0307 79.8065 99.0307 79.1898C99.0307 78.5876 98.669 78.2756 97.7022 78.2756H96.7133V80.2345H97.7096Z" fill="#161616"/>
<path d="M100.4 83.7751C100.895 83.5719 100.968 83.2092 100.976 82.6143H100.821C100.799 82.6143 100.784 82.5997 100.784 82.578V81.8379C100.784 81.8162 100.813 81.8017 100.836 81.8017H101.286C101.315 81.8017 101.33 81.8162 101.33 81.8379V82.4691C101.33 83.2527 101.16 83.7606 100.526 84L100.4 83.7751Z" fill="#161616"/>
<path d="M105.468 82.7448C104.605 82.7448 103.94 82.3313 103.734 81.5695L104.162 81.4026C104.317 82.0701 104.9 82.3603 105.483 82.3603C106.191 82.3603 106.664 81.9758 106.664 81.4389C106.664 80.8004 106.096 80.6118 105.35 80.3869C104.524 80.1402 103.94 79.8428 103.948 79.0302C103.948 78.3119 104.597 77.804 105.52 77.804C106.354 77.804 106.93 78.1378 107.129 78.8198L106.715 79.0012C106.583 78.428 106.125 78.1958 105.52 78.1958C104.856 78.1958 104.405 78.5223 104.405 79.0012C104.405 79.5816 104.834 79.7702 105.594 80.0024C106.391 80.2491 107.129 80.5247 107.129 81.3954C107.129 82.1862 106.442 82.7448 105.468 82.7448Z" fill="#161616"/>
<path d="M107.664 82.6578L109.45 77.8984H110.07L111.841 82.6578H111.354L110.838 81.2285H108.675L108.151 82.6578H107.664ZM108.808 80.844H110.705L110.092 79.1898L109.767 78.1886H109.745L109.421 79.1898L108.808 80.844Z" fill="#161616"/>
<path d="M112.76 82.6578V77.8984H113.314L115.373 81.0399L116.015 82.1717L115.934 81.0326V77.8984H116.391V82.6578H115.941L113.757 79.3421L113.122 78.2466L113.211 79.3494V82.6578H112.76Z" fill="#161616"/>
<path d="M119.234 82.7448C118.371 82.7448 117.706 82.3313 117.5 81.5695L117.928 81.4026C118.083 82.0701 118.666 82.3603 119.249 82.3603C119.957 82.3603 120.43 81.9758 120.43 81.4389C120.43 80.8004 119.861 80.6118 119.116 80.3869C118.289 80.1402 117.706 79.8428 117.714 79.0302C117.714 78.3119 118.363 77.804 119.286 77.804C120.12 77.804 120.695 78.1378 120.895 78.8198L120.481 79.0012C120.349 78.428 119.891 78.1958 119.286 78.1958C118.622 78.1958 118.171 78.5223 118.171 79.0012C118.171 79.5816 118.599 79.7702 119.36 80.0024C120.157 80.2491 120.895 80.5247 120.895 81.3954C120.895 82.1862 120.208 82.7448 119.234 82.7448Z" fill="#161616"/>
<path d="M122.893 82.6578L124.679 77.8984H125.299L127.07 82.6578H126.583L126.067 81.2285H123.904L123.38 82.6578H122.893ZM124.037 80.844H125.934L125.321 79.1898L124.996 78.1886H124.974L124.649 79.1898L124.037 80.844Z" fill="#161616"/>
<path d="M129.578 82.7448C128.368 82.7448 127.748 82.0774 127.748 80.7134V77.8984H128.213V80.7279C128.213 81.8234 128.67 82.3458 129.578 82.3458C130.471 82.3458 130.944 81.8379 130.944 80.7279V77.8984H131.408V80.7134C131.408 82.0919 130.715 82.7448 129.578 82.7448Z" fill="#161616"/>
<path d="M134.648 82.7448C133.283 82.7448 132.493 81.7364 132.493 80.2853C132.493 78.7617 133.408 77.804 134.707 77.804C135.681 77.804 136.286 78.2756 136.567 79.2188L136.102 79.3131C135.858 78.5223 135.423 78.1958 134.7 78.1958C133.666 78.1958 132.973 78.9794 132.973 80.2708V80.2926C132.973 81.526 133.57 82.3603 134.655 82.3603C135.475 82.3603 135.947 81.925 136.139 81.1632L136.596 81.2503C136.36 82.2225 135.689 82.7448 134.648 82.7448Z" fill="#161616"/>
<path d="M139.387 82.7448C138.177 82.7448 137.557 82.0774 137.557 80.7134V77.8984H138.022V80.7279C138.022 81.8234 138.48 82.3458 139.387 82.3458C140.28 82.3458 140.753 81.8379 140.753 80.7279V77.8984H141.218V80.7134C141.218 82.0919 140.524 82.7448 139.387 82.7448Z" fill="#161616"/>
<path d="M142.649 82.6578V77.8984H143.202L145.262 81.0399L145.904 82.1717L145.822 81.0326V77.8984H146.28V82.6578H145.83L143.645 79.3421L143.011 78.2466L143.099 79.3494V82.6578H142.649Z" fill="#161616"/>
<path d="M149.33 82.6578V77.8984H152.4V78.3046H149.795V79.9879H151.699V80.3869H149.795V82.2587H152.511V82.6578H149.33Z" fill="#161616"/>
<path d="M153.496 82.6578V77.8984H154.049L156.109 81.0399L156.751 82.1717L156.669 81.0326V77.8984H157.127V82.6578H156.677L154.492 79.3421L153.858 78.2466L153.946 79.3494V82.6578H153.496Z" fill="#161616"/>
<path d="M160.427 82.7448C159.195 82.7448 158.331 81.8162 158.331 80.2926C158.331 78.7835 159.231 77.804 160.589 77.804C161.564 77.804 162.198 78.2248 162.486 79.0302L162.021 79.1753C161.807 78.5296 161.327 78.1958 160.589 78.1958C159.505 78.1958 158.803 78.9649 158.803 80.2708V80.2926C158.803 81.584 159.482 82.3603 160.501 82.3603C161.305 82.3603 162.029 81.8379 162.088 80.6336H160.767V80.22H162.56V82.6578H162.198L162.169 81.1124C162.029 82.2152 161.335 82.7448 160.427 82.7448Z" fill="#161616"/>
<path d="M163.297 82.6578L165.083 77.8984H165.703L167.474 82.6578H166.987L166.471 81.2285H164.308L163.784 82.6578H163.297ZM164.441 80.844H166.338L165.725 79.1898L165.4 78.1886H165.378L165.053 79.1898L164.441 80.844Z" fill="#161616"/>
<path d="M170.07 82.7448C168.838 82.7448 167.974 81.8162 167.974 80.2926C167.974 78.7835 168.875 77.804 170.233 77.804C171.207 77.804 171.842 78.2248 172.129 79.0302L171.665 79.1753C171.451 78.5296 170.971 78.1958 170.233 78.1958C169.148 78.1958 168.447 78.9649 168.447 80.2708V80.2926C168.447 81.584 169.126 82.3603 170.144 82.3603C170.949 82.3603 171.672 81.8379 171.731 80.6336H170.41V80.22H172.203V82.6578H171.842L171.812 81.1124C171.672 82.2152 170.978 82.7448 170.07 82.7448Z" fill="#161616"/>
<path d="M173.511 82.6578V77.8984H176.581V78.3046H173.975V79.9879H175.88V80.3869H173.975V82.2587H176.691V82.6578H173.511Z" fill="#161616"/>
<path d="M177.676 82.6578V77.8984H178.422L179.883 81.5405L180.09 82.2515H180.127L180.311 81.5405L181.787 77.8984H182.533V82.6578H182.09V79.9081L182.127 78.1886H182.09L181.617 79.4437L180.304 82.6578H179.905L178.606 79.5308L178.097 78.1886H178.06L178.119 79.9081V82.6578H177.676Z" fill="#161616"/>
<path d="M184.055 82.6578V77.8984H187.125V78.3046H184.52V79.9879H186.424V80.3869H184.52V82.2587H187.236V82.6578H184.055Z" fill="#161616"/>
<path d="M188.221 82.6578V77.8984H188.774L190.833 81.0399L191.475 82.1717L191.394 81.0326V77.8984H191.852V82.6578H191.401L189.217 79.3421L188.582 78.2466L188.671 79.3494V82.6578H188.221Z" fill="#161616"/>
<path d="M194.094 82.6578V78.3046H192.603V77.8984H196.05V78.3046H194.559V82.6578H194.094Z" fill="#161616"/>
<path d="M196.346 82.6578C196.324 82.6578 196.309 82.6433 196.309 82.6215V81.8379C196.309 81.8162 196.324 81.8017 196.353 81.8017H196.811C196.841 81.8017 196.855 81.8162 196.855 81.8379V82.6215C196.855 82.6433 196.841 82.6578 196.811 82.6578H196.346Z" fill="#161616"/>
</svg>
