<svg width="670" height="670" viewBox="0 0 670 670" fill="none" xmlns="http://www.w3.org/2000/svg">
<path d="M172.874 374.964V376.397H163.424V374.964H172.874Z" fill="#0F172B"/>
<path d="M204.501 367.7L199.691 384.68H197.797L193.521 370.202L189.149 384.68L187.303 384.705L182.59 367.7H184.412L188.298 382.591L192.647 367.7H194.542L198.768 382.591L202.679 367.7H204.501Z" fill="#0F172B"/>
<path d="M213.418 371.174C214.422 371.174 215.321 371.385 216.115 371.806C216.924 372.227 217.556 372.875 218.01 373.749C218.479 374.607 218.714 375.66 218.714 376.907V384.68H217.038V377.101C217.038 375.66 216.673 374.559 215.945 373.798C215.232 373.036 214.252 372.656 213.005 372.656C211.726 372.656 210.706 373.061 209.945 373.87C209.183 374.68 208.803 375.871 208.803 377.441V384.68H207.102V366.704H208.803V373.676C209.224 372.883 209.839 372.267 210.649 371.83C211.475 371.393 212.398 371.174 213.418 371.174Z" fill="#0F172B"/>
<path d="M234.475 377.369C234.475 377.952 234.459 378.397 234.426 378.705H223.422C223.471 379.709 223.714 380.567 224.151 381.28C224.588 381.992 225.163 382.535 225.876 382.907C226.588 383.263 227.365 383.442 228.208 383.442C229.309 383.442 230.232 383.174 230.977 382.64C231.738 382.105 232.24 381.385 232.483 380.478H234.281C233.957 381.773 233.26 382.834 232.191 383.66C231.139 384.47 229.811 384.875 228.208 384.875C226.961 384.875 225.843 384.599 224.855 384.049C223.867 383.482 223.09 382.688 222.523 381.668C221.973 380.632 221.697 379.425 221.697 378.049C221.697 376.672 221.973 375.466 222.523 374.429C223.074 373.393 223.843 372.599 224.831 372.049C225.819 371.498 226.944 371.223 228.208 371.223C229.471 371.223 230.572 371.498 231.511 372.049C232.467 372.599 233.196 373.344 233.698 374.283C234.216 375.207 234.475 376.235 234.475 377.369ZM232.75 377.32C232.766 376.332 232.564 375.49 232.143 374.794C231.738 374.097 231.179 373.571 230.467 373.215C229.754 372.858 228.977 372.68 228.135 372.68C226.872 372.68 225.795 373.085 224.904 373.895C224.013 374.705 223.519 375.846 223.422 377.32H232.75Z" fill="#0F172B"/>
<path d="M239.286 373.773C239.659 372.947 240.226 372.308 240.987 371.854C241.764 371.401 242.712 371.174 243.829 371.174V372.947H243.368C242.137 372.947 241.149 373.279 240.404 373.943C239.659 374.607 239.286 375.717 239.286 377.271V384.68H237.586V371.417H239.286V373.773Z" fill="#0F172B"/>
<path d="M258.387 377.369C258.387 377.952 258.371 378.397 258.339 378.705H247.335C247.383 379.709 247.626 380.567 248.063 381.28C248.501 381.992 249.075 382.535 249.788 382.907C250.501 383.263 251.278 383.442 252.12 383.442C253.221 383.442 254.144 383.174 254.889 382.64C255.65 382.105 256.153 381.385 256.395 380.478H258.193C257.869 381.773 257.173 382.834 256.104 383.66C255.051 384.47 253.723 384.875 252.12 384.875C250.873 384.875 249.756 384.599 248.768 384.049C247.78 383.482 247.003 382.688 246.436 381.668C245.885 380.632 245.61 379.425 245.61 378.049C245.61 376.672 245.885 375.466 246.436 374.429C246.986 373.393 247.756 372.599 248.743 372.049C249.731 371.498 250.857 371.223 252.12 371.223C253.383 371.223 254.484 371.498 255.424 372.049C256.379 372.599 257.108 373.344 257.61 374.283C258.128 375.207 258.387 376.235 258.387 377.369ZM256.663 377.32C256.679 376.332 256.476 375.49 256.055 374.794C255.65 374.097 255.092 373.571 254.379 373.215C253.667 372.858 252.889 372.68 252.047 372.68C250.784 372.68 249.707 373.085 248.816 373.895C247.926 374.705 247.432 375.846 247.335 377.32H256.663Z" fill="#0F172B"/>
<path d="M269.015 368.915C268.675 368.915 268.383 368.793 268.14 368.551C267.897 368.308 267.776 368.008 267.776 367.652C267.776 367.295 267.897 367.004 268.14 366.777C268.383 366.534 268.675 366.413 269.015 366.413C269.355 366.413 269.646 366.534 269.889 366.777C270.132 367.004 270.254 367.295 270.254 367.652C270.254 368.008 270.132 368.308 269.889 368.551C269.646 368.793 269.355 368.915 269.015 368.915ZM269.865 371.417V384.68H268.165V371.417H269.865Z" fill="#0F172B"/>
<path d="M289.505 371.174C291.06 371.174 292.323 371.668 293.295 372.656C294.283 373.628 294.777 375.045 294.777 376.907V384.68H293.101V377.101C293.101 375.66 292.752 374.559 292.056 373.798C291.36 373.036 290.412 372.656 289.214 372.656C287.967 372.656 286.971 373.069 286.226 373.895C285.481 374.721 285.109 375.919 285.109 377.49V384.68H283.432V377.101C283.432 375.66 283.084 374.559 282.388 373.798C281.692 373.036 280.736 372.656 279.521 372.656C278.274 372.656 277.278 373.069 276.533 373.895C275.789 374.721 275.416 375.919 275.416 377.49V384.68H273.716V371.417H275.416V373.7C275.837 372.875 276.436 372.251 277.214 371.83C277.991 371.393 278.857 371.174 279.813 371.174C280.963 371.174 281.967 371.449 282.825 372C283.7 372.551 284.331 373.36 284.72 374.429C285.076 373.377 285.684 372.575 286.542 372.024C287.416 371.457 288.404 371.174 289.505 371.174Z" fill="#0F172B"/>
<path d="M297.776 378.024C297.776 376.664 298.043 375.474 298.578 374.454C299.128 373.417 299.881 372.624 300.837 372.073C301.808 371.506 302.902 371.223 304.116 371.223C305.379 371.223 306.464 371.514 307.371 372.097C308.294 372.68 308.958 373.425 309.363 374.332V371.417H311.064V384.68H309.363V381.741C308.942 382.648 308.27 383.401 307.347 384C306.44 384.583 305.355 384.875 304.092 384.875C302.893 384.875 301.808 384.591 300.837 384.025C299.881 383.458 299.128 382.656 298.578 381.62C298.043 380.583 297.776 379.385 297.776 378.024ZM309.363 378.049C309.363 376.98 309.145 376.041 308.707 375.231C308.27 374.421 307.671 373.798 306.91 373.36C306.165 372.923 305.339 372.704 304.432 372.704C303.493 372.704 302.651 372.915 301.906 373.336C301.161 373.757 300.57 374.373 300.132 375.182C299.711 375.976 299.501 376.923 299.501 378.024C299.501 379.109 299.711 380.065 300.132 380.891C300.57 381.701 301.161 382.324 301.906 382.761C302.651 383.182 303.493 383.393 304.432 383.393C305.339 383.393 306.165 383.174 306.91 382.737C307.671 382.3 308.27 381.676 308.707 380.867C309.145 380.057 309.363 379.118 309.363 378.049Z" fill="#0F172B"/>
<path d="M320.508 371.223C321.755 371.223 322.841 371.514 323.764 372.097C324.687 372.68 325.351 373.417 325.756 374.308V371.417H327.456V385.021C327.456 386.235 327.189 387.312 326.654 388.251C326.136 389.191 325.407 389.911 324.468 390.413C323.529 390.932 322.46 391.191 321.262 391.191C319.561 391.191 318.144 390.786 317.01 389.976C315.893 389.166 315.197 388.065 314.921 386.672H316.597C316.889 387.595 317.44 388.332 318.249 388.883C319.075 389.434 320.079 389.709 321.262 389.709C322.12 389.709 322.889 389.523 323.569 389.15C324.249 388.794 324.784 388.259 325.173 387.547C325.561 386.834 325.756 385.992 325.756 385.021V381.741C325.335 382.648 324.662 383.401 323.739 384C322.832 384.583 321.755 384.875 320.508 384.875C319.294 384.875 318.201 384.591 317.229 384.025C316.274 383.458 315.521 382.656 314.97 381.62C314.435 380.583 314.168 379.385 314.168 378.024C314.168 376.664 314.435 375.474 314.97 374.454C315.521 373.417 316.274 372.624 317.229 372.073C318.201 371.506 319.294 371.223 320.508 371.223ZM325.756 378.049C325.756 376.98 325.537 376.041 325.1 375.231C324.662 374.421 324.063 373.798 323.302 373.36C322.557 372.923 321.731 372.704 320.824 372.704C319.885 372.704 319.043 372.915 318.298 373.336C317.553 373.757 316.962 374.373 316.525 375.182C316.104 375.976 315.893 376.923 315.893 378.024C315.893 379.109 316.104 380.065 316.525 380.891C316.962 381.701 317.553 382.324 318.298 382.761C319.043 383.182 319.885 383.393 320.824 383.393C321.731 383.393 322.557 383.174 323.302 382.737C324.063 382.3 324.662 381.676 325.1 380.867C325.537 380.057 325.756 379.118 325.756 378.049Z" fill="#0F172B"/>
<path d="M332.188 368.915C331.848 368.915 331.557 368.793 331.314 368.551C331.071 368.308 330.949 368.008 330.949 367.652C330.949 367.295 331.071 367.004 331.314 366.777C331.557 366.534 331.848 366.413 332.188 366.413C332.528 366.413 332.82 366.534 333.063 366.777C333.306 367.004 333.427 367.295 333.427 367.652C333.427 368.008 333.306 368.308 333.063 368.551C332.82 368.793 332.528 368.915 332.188 368.915ZM333.038 371.417V384.68H331.338V371.417H333.038Z" fill="#0F172B"/>
<path d="M343.108 371.174C344.695 371.174 345.99 371.668 346.995 372.656C347.999 373.628 348.501 375.045 348.501 376.907V384.68H346.825V377.101C346.825 375.66 346.46 374.559 345.731 373.798C345.019 373.036 344.039 372.656 342.792 372.656C341.513 372.656 340.492 373.061 339.731 373.87C338.97 374.68 338.59 375.871 338.59 377.441V384.68H336.889V371.417H338.59V373.676C339.011 372.866 339.618 372.251 340.411 371.83C341.205 371.393 342.104 371.174 343.108 371.174Z" fill="#0F172B"/>
<path d="M351.484 378.024C351.484 376.664 351.751 375.474 352.286 374.454C352.836 373.417 353.589 372.624 354.545 372.073C355.517 371.506 356.61 371.223 357.824 371.223C359.087 371.223 360.172 371.514 361.079 372.097C362.002 372.68 362.666 373.425 363.071 374.332V371.417H364.772V384.68H363.071V381.741C362.65 382.648 361.978 383.401 361.055 384C360.148 384.583 359.063 384.875 357.8 384.875C356.602 384.875 355.517 384.591 354.545 384.025C353.589 383.458 352.836 382.656 352.286 381.62C351.751 380.583 351.484 379.385 351.484 378.024ZM363.071 378.049C363.071 376.98 362.853 376.041 362.415 375.231C361.978 374.421 361.379 373.798 360.618 373.36C359.873 372.923 359.047 372.704 358.14 372.704C357.201 372.704 356.359 372.915 355.614 373.336C354.869 373.757 354.278 374.373 353.84 375.182C353.419 375.976 353.209 376.923 353.209 378.024C353.209 379.109 353.419 380.065 353.84 380.891C354.278 381.701 354.869 382.324 355.614 382.761C356.359 383.182 357.201 383.393 358.14 383.393C359.047 383.393 359.873 383.174 360.618 382.737C361.379 382.3 361.978 381.676 362.415 380.867C362.853 380.057 363.071 379.118 363.071 378.049Z" fill="#0F172B"/>
<path d="M370.864 372.85V381.085C370.864 381.895 371.018 382.454 371.326 382.761C371.634 383.069 372.176 383.223 372.953 383.223H374.508V384.68H372.686C371.488 384.68 370.597 384.405 370.014 383.855C369.431 383.288 369.14 382.365 369.14 381.085V372.85H367.293V371.417H369.14V368.089H370.864V371.417H374.508V372.85H370.864Z" fill="#0F172B"/>
<path d="M378.163 368.915C377.823 368.915 377.531 368.793 377.288 368.551C377.045 368.308 376.924 368.008 376.924 367.652C376.924 367.295 377.045 367.004 377.288 366.777C377.531 366.534 377.823 366.413 378.163 366.413C378.503 366.413 378.794 366.534 379.037 366.777C379.28 367.004 379.402 367.295 379.402 367.652C379.402 368.008 379.28 368.308 379.037 368.551C378.794 368.793 378.503 368.915 378.163 368.915ZM379.013 371.417V384.68H377.313V371.417H379.013Z" fill="#0F172B"/>
<path d="M388.669 384.875C387.422 384.875 386.297 384.599 385.293 384.049C384.305 383.482 383.52 382.688 382.936 381.668C382.37 380.632 382.086 379.425 382.086 378.049C382.086 376.672 382.378 375.474 382.961 374.454C383.544 373.417 384.337 372.624 385.341 372.073C386.345 371.506 387.471 371.223 388.718 371.223C389.965 371.223 391.091 371.506 392.095 372.073C393.115 372.624 393.908 373.417 394.475 374.454C395.058 375.474 395.35 376.672 395.35 378.049C395.35 379.409 395.058 380.607 394.475 381.644C393.892 382.68 393.091 383.482 392.07 384.049C391.05 384.599 389.916 384.875 388.669 384.875ZM388.669 383.393C389.544 383.393 390.354 383.199 391.099 382.81C391.844 382.405 392.443 381.806 392.896 381.012C393.366 380.203 393.601 379.215 393.601 378.049C393.601 376.883 393.374 375.903 392.921 375.109C392.467 374.3 391.868 373.7 391.123 373.312C390.378 372.907 389.568 372.704 388.694 372.704C387.819 372.704 387.009 372.907 386.264 373.312C385.52 373.7 384.92 374.3 384.467 375.109C384.03 375.903 383.811 376.883 383.811 378.049C383.811 379.215 384.03 380.203 384.467 381.012C384.92 381.806 385.511 382.405 386.24 382.81C386.985 383.199 387.795 383.393 388.669 383.393Z" fill="#0F172B"/>
<path d="M404.668 371.174C406.255 371.174 407.551 371.668 408.555 372.656C409.559 373.628 410.061 375.045 410.061 376.907V384.68H408.385V377.101C408.385 375.66 408.02 374.559 407.292 373.798C406.579 373.036 405.599 372.656 404.352 372.656C403.073 372.656 402.053 373.061 401.292 373.87C400.53 374.68 400.15 375.871 400.15 377.441V384.68H398.449V371.417H400.15V373.676C400.571 372.866 401.178 372.251 401.972 371.83C402.765 371.393 403.664 371.174 404.668 371.174Z" fill="#0F172B"/>
<path d="M422.188 366.704V384.68H420.488V366.704H422.188Z" fill="#0F172B"/>
<path d="M438.039 377.369C438.039 377.952 438.023 378.397 437.991 378.705H426.986C427.035 379.709 427.278 380.567 427.715 381.28C428.152 381.992 428.727 382.535 429.44 382.907C430.152 383.263 430.93 383.442 431.772 383.442C432.873 383.442 433.796 383.174 434.541 382.64C435.302 382.105 435.804 381.385 436.047 380.478H437.845C437.521 381.773 436.824 382.834 435.756 383.66C434.703 384.47 433.375 384.875 431.772 384.875C430.525 384.875 429.407 384.599 428.419 384.049C427.432 383.482 426.654 382.688 426.087 381.668C425.537 380.632 425.262 379.425 425.262 378.049C425.262 376.672 425.537 375.466 426.087 374.429C426.638 373.393 427.407 372.599 428.395 372.049C429.383 371.498 430.509 371.223 431.772 371.223C433.035 371.223 434.136 371.498 435.075 372.049C436.031 372.599 436.76 373.344 437.262 374.283C437.78 375.207 438.039 376.235 438.039 377.369ZM436.314 377.32C436.331 376.332 436.128 375.49 435.707 374.794C435.302 374.097 434.743 373.571 434.031 373.215C433.318 372.858 432.541 372.68 431.699 372.68C430.436 372.68 429.359 373.085 428.468 373.895C427.577 374.705 427.083 375.846 426.986 377.32H436.314Z" fill="#0F172B"/>
<path d="M440.373 378.024C440.373 376.664 440.64 375.474 441.174 374.454C441.725 373.417 442.478 372.624 443.434 372.073C444.405 371.506 445.498 371.223 446.713 371.223C447.976 371.223 449.061 371.514 449.968 372.097C450.891 372.68 451.555 373.425 451.96 374.332V371.417H453.661V384.68H451.96V381.741C451.539 382.648 450.867 383.401 449.944 384C449.037 384.583 447.952 384.875 446.689 384.875C445.49 384.875 444.405 384.591 443.434 384.025C442.478 383.458 441.725 382.656 441.174 381.62C440.64 380.583 440.373 379.385 440.373 378.024ZM451.96 378.049C451.96 376.98 451.741 376.041 451.304 375.231C450.867 374.421 450.268 373.798 449.507 373.36C448.762 372.923 447.936 372.704 447.029 372.704C446.09 372.704 445.247 372.915 444.503 373.336C443.758 373.757 443.166 374.373 442.729 375.182C442.308 375.976 442.098 376.923 442.098 378.024C442.098 379.109 442.308 380.065 442.729 380.891C443.166 381.701 443.758 382.324 444.503 382.761C445.247 383.182 446.09 383.393 447.029 383.393C447.936 383.393 448.762 383.174 449.507 382.737C450.268 382.3 450.867 381.676 451.304 380.867C451.741 380.057 451.96 379.118 451.96 378.049Z" fill="#0F172B"/>
<path d="M459.243 373.773C459.615 372.947 460.182 372.308 460.943 371.854C461.721 371.401 462.668 371.174 463.786 371.174V372.947H463.324C462.093 372.947 461.105 373.279 460.36 373.943C459.615 374.607 459.243 375.717 459.243 377.271V384.68H457.543V371.417H459.243V373.773Z" fill="#0F172B"/>
<path d="M472.562 371.174C474.149 371.174 475.445 371.668 476.449 372.656C477.453 373.628 477.955 375.045 477.955 376.907V384.68H476.279V377.101C476.279 375.66 475.915 374.559 475.186 373.798C474.473 373.036 473.494 372.656 472.247 372.656C470.967 372.656 469.947 373.061 469.186 373.87C468.425 374.68 468.044 375.871 468.044 377.441V384.68H466.344V371.417H468.044V373.676C468.465 372.866 469.072 372.251 469.866 371.83C470.66 371.393 471.558 371.174 472.562 371.174Z" fill="#0F172B"/>
<path d="M486.283 384.875C484.761 384.875 483.514 384.527 482.542 383.83C481.586 383.118 481.052 382.154 480.939 380.939H482.688C482.769 381.684 483.117 382.292 483.732 382.761C484.364 383.215 485.206 383.442 486.259 383.442C487.182 383.442 487.902 383.223 488.421 382.786C488.955 382.348 489.222 381.806 489.222 381.158C489.222 380.705 489.076 380.332 488.785 380.041C488.493 379.749 488.121 379.522 487.668 379.36C487.23 379.182 486.631 378.996 485.87 378.802C484.882 378.543 484.08 378.284 483.465 378.024C482.85 377.765 482.323 377.385 481.886 376.883C481.465 376.364 481.254 375.676 481.254 374.818C481.254 374.17 481.449 373.571 481.837 373.02C482.226 372.47 482.777 372.032 483.489 371.709C484.202 371.385 485.012 371.223 485.918 371.223C487.344 371.223 488.493 371.587 489.368 372.316C490.242 373.028 490.712 374.016 490.777 375.279H489.076C489.028 374.502 488.72 373.879 488.153 373.409C487.603 372.923 486.842 372.68 485.87 372.68C485.012 372.68 484.315 372.883 483.781 373.287C483.246 373.692 482.979 374.194 482.979 374.794C482.979 375.312 483.133 375.741 483.441 376.081C483.765 376.405 484.161 376.664 484.631 376.858C485.101 377.037 485.732 377.239 486.526 377.466C487.481 377.725 488.242 377.976 488.809 378.219C489.376 378.462 489.862 378.818 490.267 379.288C490.672 379.757 490.882 380.381 490.898 381.158C490.898 381.871 490.704 382.51 490.315 383.077C489.927 383.628 489.384 384.065 488.688 384.389C487.991 384.713 487.19 384.875 486.283 384.875Z" fill="#0F172B"/>
<path d="M509 374.964V376.397H499.551V374.964H509Z" fill="#0F172B"/>
<path d="M65.289 290.302L81.3483 278L88.8284 296.796L105.752 308.184L89.3418 320.977L84.7763 339.375L67.372 328.663L46.9379 328.933L52.471 310.724L45 291.421L65.289 290.302Z" fill="#0F172B"/>
<path d="M169.315 334.302C169.315 335.669 168.974 336.768 168.29 337.599C167.606 338.478 166.556 338.917 165.14 338.917C164.016 338.917 162.966 338.575 161.989 337.892C161.061 337.208 160.182 336.378 159.352 335.401C158.571 334.375 157.862 333.301 157.227 332.177C156.641 331.054 156.153 330.077 155.762 329.247C154.737 327.196 153.711 325.144 152.685 323.093C151.708 321.042 150.732 318.966 149.755 316.866L145.359 319.576C145.408 320.993 145.335 322.409 145.139 323.826C144.944 325.242 144.797 326.658 144.7 328.075C144.602 329.051 144.431 330.126 144.187 331.298C143.992 332.422 143.65 333.496 143.161 334.522C142.673 335.498 142.013 336.329 141.183 337.013C140.353 337.696 139.327 338.038 138.106 338.038C136.983 338.038 136.055 337.818 135.322 337.379C134.59 336.89 133.979 336.28 133.491 335.547C133.051 334.815 132.734 333.984 132.538 333.056C132.343 332.128 132.245 331.176 132.245 330.199V329.613C132.245 326.732 132.392 323.85 132.685 320.968C133.027 318.038 133.247 315.107 133.344 312.177C133.442 308.319 133.564 304.46 133.711 300.602C133.857 296.743 134.052 292.885 134.297 289.026C134.345 288.147 134.492 287.293 134.736 286.462C134.98 285.632 135.347 284.899 135.835 284.264C136.324 283.581 136.91 283.043 137.593 282.653C138.326 282.262 139.181 282.067 140.158 282.067C141.672 282.067 142.795 282.604 143.528 283.678C144.309 284.753 144.846 286.047 145.139 287.561C145.432 289.075 145.554 290.638 145.506 292.25C145.506 293.862 145.506 295.205 145.506 296.279C145.506 299.356 145.432 302.433 145.286 305.51C146.702 304.338 148.07 302.995 149.388 301.481C150.756 299.967 151.953 298.428 152.978 296.865C153.613 295.937 154.346 294.668 155.176 293.056C156.006 291.395 156.91 289.808 157.887 288.294C158.864 286.731 159.938 285.388 161.11 284.264C162.282 283.092 163.528 282.506 164.847 282.506C166.263 282.506 167.289 282.921 167.924 283.752C168.607 284.533 168.949 285.583 168.949 286.902C168.949 288.856 168.632 290.858 167.997 292.909C167.411 294.961 166.605 296.988 165.579 298.99C164.554 300.944 163.381 302.824 162.063 304.631C160.793 306.389 159.498 307.928 158.18 309.247C159.547 311.542 160.842 313.862 162.063 316.206C163.284 318.502 164.505 320.822 165.726 323.166C166.165 323.948 166.58 324.802 166.971 325.73C167.411 326.658 167.801 327.611 168.143 328.588C168.485 329.564 168.754 330.541 168.949 331.518C169.193 332.495 169.315 333.423 169.315 334.302Z" fill="#0F172B"/>
<path d="M197.301 287.781C197.301 288.709 197.081 289.539 196.642 290.272C196.251 291.005 195.714 291.639 195.03 292.177C194.346 292.665 193.589 293.08 192.759 293.422C191.929 293.764 191.123 294.008 190.341 294.155C190.244 299.674 190.024 304.997 189.682 310.126C189.389 315.254 188.901 320.553 188.217 326.023H188.656C189.438 326.023 190.195 326.121 190.928 326.316C191.709 326.463 192.393 326.756 192.979 327.196C193.614 327.586 194.102 328.099 194.444 328.734C194.835 329.32 195.03 330.053 195.03 330.932C195.03 332.055 194.664 333.032 193.931 333.862C193.247 334.693 192.319 335.401 191.147 335.987C190.024 336.573 188.754 337.061 187.338 337.452C185.921 337.843 184.505 338.136 183.089 338.331C181.672 338.575 180.329 338.746 179.059 338.844C177.789 338.942 176.764 338.991 175.982 338.991C175.396 338.991 174.664 338.966 173.784 338.917C172.954 338.868 172.148 338.722 171.367 338.478C170.634 338.234 169.999 337.867 169.462 337.379C168.925 336.89 168.656 336.231 168.656 335.401C168.656 334.375 168.876 333.472 169.315 332.69C169.706 331.86 170.243 331.127 170.927 330.492C171.611 329.857 172.368 329.345 173.198 328.954C174.077 328.563 174.957 328.27 175.836 328.075C176.178 325.388 176.495 322.727 176.788 320.089C177.081 317.403 177.277 314.692 177.374 311.957C177.472 309.173 177.57 306.438 177.667 303.752C177.765 301.017 177.863 298.282 177.96 295.547C177.618 295.596 177.301 295.644 177.008 295.693C176.715 295.693 176.446 295.693 176.202 295.693C175.518 295.693 174.786 295.62 174.004 295.473C173.223 295.327 172.49 295.083 171.806 294.741C171.123 294.35 170.536 293.886 170.048 293.349C169.609 292.812 169.389 292.128 169.389 291.298C169.389 289.637 170.073 288.269 171.44 287.195C172.856 286.12 174.517 285.29 176.422 284.704C178.375 284.118 180.353 283.727 182.356 283.532C184.358 283.288 185.97 283.166 187.191 283.166C187.875 283.166 188.779 283.214 189.902 283.312C191.025 283.41 192.124 283.63 193.199 283.971C194.322 284.313 195.274 284.777 196.056 285.363C196.886 285.95 197.301 286.755 197.301 287.781Z" fill="#0F172B"/>
<path d="M236.056 304.558C236.056 308.856 235.177 313.007 233.419 317.012C231.661 320.968 229.292 324.485 226.313 327.562C223.382 330.639 219.939 333.105 215.983 334.961C212.076 336.768 207.949 337.672 203.602 337.672H203.455C202.576 337.672 201.843 337.281 201.257 336.5C200.72 335.669 200.256 334.644 199.865 333.423C199.475 332.202 199.182 330.834 198.986 329.32C198.791 327.806 198.644 326.341 198.547 324.924C198.449 323.459 198.4 322.165 198.4 321.042C198.4 319.869 198.4 318.99 198.4 318.404C198.4 316.744 198.425 315.107 198.473 313.496C198.522 311.835 198.596 310.175 198.693 308.514C198.693 307.977 198.718 307.195 198.766 306.17C198.864 305.095 198.962 303.898 199.06 302.58C199.157 301.261 199.279 299.894 199.426 298.477C199.572 297.012 199.719 295.669 199.865 294.448C200.061 293.178 200.232 292.079 200.378 291.151C200.574 290.174 200.793 289.515 201.038 289.173C201.672 288.098 202.649 287.146 203.968 286.316C205.287 285.486 206.703 284.802 208.217 284.264C209.78 283.727 211.343 283.337 212.906 283.092C214.518 282.799 215.91 282.653 217.082 282.653C220.305 282.653 223.089 283.263 225.434 284.484C227.827 285.656 229.805 287.268 231.368 289.32C232.979 291.322 234.152 293.642 234.884 296.279C235.666 298.917 236.056 301.676 236.056 304.558ZM223.749 306.682C223.749 305.608 223.553 304.509 223.162 303.386C222.772 302.262 222.21 301.237 221.477 300.309C220.794 299.381 219.939 298.648 218.913 298.111C217.936 297.525 216.838 297.232 215.617 297.232C214.591 297.232 213.541 297.476 212.466 297.964C212.222 298.111 212.002 298.575 211.807 299.356C211.612 300.089 211.441 300.992 211.294 302.067C211.196 303.141 211.099 304.314 211.001 305.583C210.903 306.853 210.83 308.074 210.781 309.247C210.781 310.37 210.757 311.371 210.708 312.25C210.708 313.129 210.708 313.715 210.708 314.009C210.708 314.497 210.708 315.23 210.708 316.206C210.708 317.134 210.732 318.062 210.781 318.99C210.879 319.918 210.977 320.724 211.074 321.408C211.172 322.092 211.343 322.434 211.587 322.434C213.052 322.434 214.493 321.872 215.91 320.749C217.375 319.576 218.694 318.16 219.866 316.499C221.038 314.839 221.966 313.105 222.65 311.298C223.382 309.491 223.749 307.952 223.749 306.682Z" fill="#0F172B"/>
<path d="M263.31 286.096C263.31 287.219 262.943 288.196 262.211 289.026C261.527 289.857 260.697 290.541 259.72 291.078C258.841 291.615 257.937 292.201 257.009 292.836C256.081 293.422 255.226 294.106 254.445 294.887C253.663 295.62 253.029 296.45 252.54 297.378C252.052 298.306 251.808 299.356 251.808 300.528C251.808 301.554 252.052 302.482 252.54 303.312C253.029 304.143 253.615 304.973 254.298 305.803C255.031 306.585 255.812 307.415 256.643 308.294C257.522 309.124 258.303 310.077 258.987 311.151C259.72 312.177 260.33 313.349 260.819 314.668C261.307 315.987 261.551 317.525 261.551 319.283C261.551 320.504 261.283 321.896 260.745 323.459C260.257 324.973 259.573 326.512 258.694 328.075C257.815 329.638 256.765 331.152 255.544 332.617C254.372 334.082 253.102 335.401 251.734 336.573C250.416 337.696 249.024 338.6 247.558 339.284C246.093 340.016 244.677 340.383 243.309 340.383C241.795 340.383 240.452 339.967 239.28 339.137C238.108 338.307 237.522 337.061 237.522 335.401C237.522 334.277 237.79 333.252 238.327 332.324C238.865 331.347 239.524 330.419 240.306 329.54C241.087 328.661 241.942 327.806 242.87 326.976C243.846 326.145 244.726 325.315 245.507 324.485C246.289 323.655 246.948 322.8 247.485 321.921C248.022 320.993 248.291 320.016 248.291 318.99C248.291 317.574 247.778 316.133 246.753 314.668C245.776 313.154 244.677 311.615 243.456 310.052C242.235 308.441 241.111 306.805 240.086 305.144C239.109 303.483 238.621 301.798 238.621 300.089C238.621 297.989 239.182 295.791 240.306 293.495C241.429 291.151 242.87 289.026 244.628 287.122C246.386 285.168 248.364 283.556 250.562 282.286C252.76 281.017 254.933 280.382 257.082 280.382C258.792 280.382 260.257 280.894 261.478 281.92C262.699 282.946 263.31 284.338 263.31 286.096Z" fill="#0F172B"/>
<path d="M315.984 329.54C315.838 330.81 315.618 332.055 315.325 333.276C315.081 334.497 314.763 335.596 314.373 336.573C313.982 337.501 313.469 338.234 312.834 338.771C312.248 339.357 311.564 339.65 310.783 339.65C310.001 339.65 309.293 339.039 308.658 337.818C308.023 336.646 307.413 335.083 306.827 333.13C306.289 331.127 305.777 328.881 305.288 326.39C304.849 323.899 304.433 321.383 304.043 318.844C303.701 316.255 303.408 313.74 303.164 311.298C302.919 308.856 302.724 306.731 302.578 304.924C302.284 306.78 301.943 308.856 301.552 311.151C301.161 313.447 300.697 315.791 300.16 318.184C299.623 320.529 299.037 322.849 298.402 325.144C297.767 327.391 297.083 329.418 296.35 331.225C295.618 332.983 294.836 334.4 294.006 335.474C293.176 336.549 292.297 337.086 291.369 337.086C290.538 337.086 289.708 336.524 288.878 335.401C288.047 334.277 287.242 332.812 286.46 331.005C285.679 329.149 284.946 327.098 284.262 324.851C283.578 322.605 282.944 320.358 282.357 318.111C281.771 315.816 281.259 313.667 280.819 311.664C280.379 309.613 280.038 307.903 279.793 306.536C279.793 307.562 279.769 308.709 279.72 309.979C279.72 311.2 279.72 312.079 279.72 312.617C279.72 312.861 279.696 313.667 279.647 315.034C279.647 316.402 279.574 318.038 279.427 319.943C279.28 321.847 279.061 323.899 278.768 326.097C278.475 328.246 278.035 330.248 277.449 332.104C276.912 333.96 276.228 335.523 275.398 336.793C274.567 338.063 273.542 338.746 272.321 338.844C271.344 338.405 270.514 337.672 269.83 336.646C269.195 335.572 268.658 334.326 268.218 332.91C267.778 331.494 267.437 329.979 267.192 328.368C266.948 326.756 266.753 325.193 266.606 323.679C266.46 322.116 266.362 320.675 266.313 319.357C266.313 318.038 266.313 316.963 266.313 316.133C266.313 314.668 266.387 312.836 266.533 310.639C266.728 308.392 267.021 306.047 267.412 303.605C267.803 301.163 268.316 298.721 268.951 296.279C269.586 293.837 270.343 291.664 271.222 289.759C272.15 287.805 273.2 286.218 274.372 284.997C275.593 283.776 276.985 283.166 278.548 283.166C279.28 283.166 280.062 283.581 280.892 284.411C281.723 285.241 282.553 286.34 283.383 287.708C284.213 289.026 285.019 290.516 285.801 292.177C286.582 293.837 287.315 295.522 287.999 297.232C288.731 298.892 289.366 300.504 289.903 302.067C290.441 303.581 290.88 304.875 291.222 305.95C291.613 304.778 292.101 303.41 292.687 301.847C293.273 300.284 293.908 298.673 294.592 297.012C295.325 295.303 296.106 293.642 296.936 292.03C297.816 290.37 298.719 288.904 299.647 287.635C300.575 286.316 301.503 285.266 302.431 284.484C303.408 283.654 304.385 283.239 305.361 283.239C307.071 283.239 308.536 283.874 309.757 285.144C310.978 286.413 312.004 288.074 312.834 290.125C313.664 292.128 314.324 294.399 314.812 296.939C315.301 299.43 315.667 301.92 315.911 304.411C316.204 306.853 316.375 309.149 316.424 311.298C316.522 313.447 316.57 315.181 316.57 316.499C316.57 317.037 316.57 317.769 316.57 318.697C316.57 319.625 316.546 320.675 316.497 321.847C316.497 323.02 316.448 324.265 316.351 325.584C316.253 326.903 316.131 328.221 315.984 329.54Z" fill="#0F172B"/>
<path d="M347.12 287.781C347.12 288.709 346.901 289.539 346.461 290.272C346.07 291.005 345.533 291.639 344.849 292.177C344.165 292.665 343.408 293.08 342.578 293.422C341.748 293.764 340.942 294.008 340.161 294.155C340.063 299.674 339.843 304.997 339.501 310.126C339.208 315.254 338.72 320.553 338.036 326.023H338.476C339.257 326.023 340.014 326.121 340.747 326.316C341.528 326.463 342.212 326.756 342.798 327.196C343.433 327.586 343.921 328.099 344.263 328.734C344.654 329.32 344.849 330.053 344.849 330.932C344.849 332.055 344.483 333.032 343.75 333.862C343.067 334.693 342.139 335.401 340.966 335.987C339.843 336.573 338.573 337.061 337.157 337.452C335.74 337.843 334.324 338.136 332.908 338.331C331.491 338.575 330.148 338.746 328.878 338.844C327.608 338.942 326.583 338.991 325.801 338.991C325.215 338.991 324.483 338.966 323.603 338.917C322.773 338.868 321.967 338.722 321.186 338.478C320.453 338.234 319.818 337.867 319.281 337.379C318.744 336.89 318.475 336.231 318.475 335.401C318.475 334.375 318.695 333.472 319.135 332.69C319.525 331.86 320.063 331.127 320.746 330.492C321.43 329.857 322.187 329.345 323.017 328.954C323.897 328.563 324.776 328.27 325.655 328.075C325.997 325.388 326.314 322.727 326.607 320.089C326.9 317.403 327.096 314.692 327.193 311.957C327.291 309.173 327.389 306.438 327.486 303.752C327.584 301.017 327.682 298.282 327.779 295.547C327.437 295.596 327.12 295.644 326.827 295.693C326.534 295.693 326.265 295.693 326.021 295.693C325.337 295.693 324.605 295.62 323.823 295.473C323.042 295.327 322.309 295.083 321.625 294.741C320.942 294.35 320.356 293.886 319.867 293.349C319.428 292.812 319.208 292.128 319.208 291.298C319.208 289.637 319.892 288.269 321.259 287.195C322.676 286.12 324.336 285.29 326.241 284.704C328.195 284.118 330.173 283.727 332.175 283.532C334.178 283.288 335.789 283.166 337.01 283.166C337.694 283.166 338.598 283.214 339.721 283.312C340.844 283.41 341.943 283.63 343.018 283.971C344.141 284.313 345.093 284.777 345.875 285.363C346.705 285.95 347.12 286.755 347.12 287.781Z" fill="#0F172B"/>
<path d="M390.784 306.096C390.784 307.171 390.735 308.709 390.637 310.712C390.54 312.665 390.344 314.839 390.051 317.232C389.807 319.576 389.441 321.994 388.952 324.485C388.464 326.927 387.829 329.149 387.048 331.152C386.266 333.154 385.314 334.815 384.19 336.133C383.067 337.403 381.724 338.038 380.161 338.038C378.696 338.038 377.353 337.623 376.132 336.793C374.911 335.914 373.812 334.864 372.835 333.643C371.858 332.373 371.003 331.03 370.271 329.613C369.538 328.197 368.928 326.903 368.439 325.73C367.414 323.239 366.388 320.797 365.362 318.404C364.337 315.962 363.36 313.496 362.432 311.005V313.056C362.432 315.156 362.407 317.256 362.359 319.357C362.359 321.408 362.212 323.459 361.919 325.511C361.821 326.341 361.699 327.318 361.553 328.441C361.455 329.515 361.284 330.59 361.04 331.664C360.796 332.739 360.429 333.74 359.941 334.668C359.501 335.596 358.891 336.28 358.11 336.72C357.67 336.964 357.255 337.11 356.864 337.159C356.522 337.208 356.131 337.281 355.692 337.379H355.472C354.349 337.379 353.396 337.013 352.615 336.28C351.833 335.498 351.174 334.522 350.637 333.349C350.1 332.128 349.66 330.785 349.318 329.32C349.025 327.806 348.781 326.341 348.586 324.924C348.439 323.459 348.341 322.116 348.293 320.895C348.244 319.674 348.219 318.697 348.219 317.965C348.219 316.841 348.268 315.205 348.366 313.056C348.463 310.858 348.659 308.441 348.952 305.803C349.294 303.166 349.709 300.455 350.197 297.671C350.735 294.887 351.418 292.372 352.249 290.125C353.079 287.83 354.08 285.974 355.252 284.558C356.425 283.092 357.792 282.36 359.355 282.36C360.869 282.36 362.212 282.946 363.384 284.118C364.605 285.29 365.68 286.682 366.608 288.294C367.536 289.906 368.317 291.591 368.952 293.349C369.587 295.107 370.124 296.572 370.564 297.745C371.394 300.04 372.2 302.336 372.982 304.631C373.763 306.878 374.52 309.173 375.253 311.518C375.301 311.615 375.399 311.884 375.546 312.324C375.692 312.763 375.863 313.252 376.058 313.789C376.254 314.375 376.498 315.034 376.791 315.767C376.791 315.132 376.767 314.692 376.718 314.448C376.718 314.155 376.718 313.911 376.718 313.715C376.718 313.471 376.718 313.178 376.718 312.836C376.718 312.494 376.718 311.957 376.718 311.225C376.669 309.613 376.62 308.001 376.571 306.389C376.571 304.778 376.571 303.19 376.571 301.627C376.571 300.944 376.571 299.991 376.571 298.77C376.62 297.549 376.693 296.255 376.791 294.887C376.938 293.471 377.133 292.055 377.377 290.638C377.621 289.222 377.963 287.952 378.403 286.829C378.891 285.656 379.477 284.704 380.161 283.971C380.894 283.239 381.773 282.873 382.799 282.873C384.02 282.873 385.07 283.337 385.949 284.264C386.828 285.192 387.56 286.389 388.147 287.854C388.733 289.271 389.197 290.882 389.539 292.69C389.88 294.448 390.149 296.182 390.344 297.891C390.54 299.601 390.662 301.188 390.711 302.653C390.76 304.118 390.784 305.266 390.784 306.096Z" fill="#0F172B"/>
<path d="M433.349 304.558C433.349 308.856 432.47 313.007 430.711 317.012C428.953 320.968 426.584 324.485 423.605 327.562C420.675 330.639 417.231 333.105 413.275 334.961C409.368 336.768 405.241 337.672 400.894 337.672H400.748C399.868 337.672 399.136 337.281 398.55 336.5C398.012 335.669 397.548 334.644 397.158 333.423C396.767 332.202 396.474 330.834 396.279 329.32C396.083 327.806 395.937 326.341 395.839 324.924C395.741 323.459 395.692 322.165 395.692 321.042C395.692 319.869 395.692 318.99 395.692 318.404C395.692 316.744 395.717 315.107 395.766 313.496C395.815 311.835 395.888 310.175 395.986 308.514C395.986 307.977 396.01 307.195 396.059 306.17C396.156 305.095 396.254 303.898 396.352 302.58C396.45 301.261 396.572 299.894 396.718 298.477C396.865 297.012 397.011 295.669 397.158 294.448C397.353 293.178 397.524 292.079 397.671 291.151C397.866 290.174 398.086 289.515 398.33 289.173C398.965 288.098 399.942 287.146 401.26 286.316C402.579 285.486 403.995 284.802 405.509 284.264C407.072 283.727 408.635 283.337 410.198 283.092C411.81 282.799 413.202 282.653 414.374 282.653C417.598 282.653 420.382 283.263 422.726 284.484C425.119 285.656 427.097 287.268 428.66 289.32C430.272 291.322 431.444 293.642 432.177 296.279C432.958 298.917 433.349 301.676 433.349 304.558ZM421.041 306.682C421.041 305.608 420.846 304.509 420.455 303.386C420.064 302.262 419.502 301.237 418.77 300.309C418.086 299.381 417.231 298.648 416.206 298.111C415.229 297.525 414.13 297.232 412.909 297.232C411.883 297.232 410.833 297.476 409.759 297.964C409.514 298.111 409.295 298.575 409.099 299.356C408.904 300.089 408.733 300.992 408.586 302.067C408.489 303.141 408.391 304.314 408.293 305.583C408.196 306.853 408.122 308.074 408.074 309.247C408.074 310.37 408.049 311.371 408 312.25C408 313.129 408 313.715 408 314.009C408 314.497 408 315.23 408 316.206C408 317.134 408.025 318.062 408.074 318.99C408.171 319.918 408.269 320.724 408.367 321.408C408.464 322.092 408.635 322.434 408.88 322.434C410.345 322.434 411.786 321.872 413.202 320.749C414.667 319.576 415.986 318.16 417.158 316.499C418.33 314.839 419.258 313.105 419.942 311.298C420.675 309.491 421.041 307.952 421.041 306.682Z" fill="#0F172B"/>
<path d="M460.602 286.096C460.602 287.219 460.236 288.196 459.503 289.026C458.819 289.857 457.989 290.541 457.012 291.078C456.133 291.615 455.229 292.201 454.301 292.836C453.373 293.422 452.519 294.106 451.737 294.887C450.956 295.62 450.321 296.45 449.833 297.378C449.344 298.306 449.1 299.356 449.1 300.528C449.1 301.554 449.344 302.482 449.833 303.312C450.321 304.143 450.907 304.973 451.591 305.803C452.323 306.585 453.105 307.415 453.935 308.294C454.814 309.124 455.596 310.077 456.28 311.151C457.012 312.177 457.623 313.349 458.111 314.668C458.599 315.987 458.844 317.525 458.844 319.283C458.844 320.504 458.575 321.896 458.038 323.459C457.549 324.973 456.866 326.512 455.986 328.075C455.107 329.638 454.057 331.152 452.836 332.617C451.664 334.082 450.394 335.401 449.027 336.573C447.708 337.696 446.316 338.6 444.851 339.284C443.386 340.016 441.969 340.383 440.602 340.383C439.088 340.383 437.744 339.967 436.572 339.137C435.4 338.307 434.814 337.061 434.814 335.401C434.814 334.277 435.083 333.252 435.62 332.324C436.157 331.347 436.816 330.419 437.598 329.54C438.379 328.661 439.234 327.806 440.162 326.976C441.139 326.145 442.018 325.315 442.799 324.485C443.581 323.655 444.24 322.8 444.777 321.921C445.315 320.993 445.583 320.016 445.583 318.99C445.583 317.574 445.071 316.133 444.045 314.668C443.068 313.154 441.969 311.615 440.748 310.052C439.527 308.441 438.404 306.805 437.378 305.144C436.401 303.483 435.913 301.798 435.913 300.089C435.913 297.989 436.475 295.791 437.598 293.495C438.721 291.151 440.162 289.026 441.92 287.122C443.679 285.168 445.657 283.556 447.854 282.286C450.052 281.017 452.226 280.382 454.375 280.382C456.084 280.382 457.549 280.894 458.77 281.92C459.991 282.946 460.602 284.338 460.602 286.096Z" fill="#0F172B"/>
<path d="M495.987 319.943C495.547 322.141 494.839 324.436 493.862 326.829C492.935 329.174 491.713 331.323 490.199 333.276C488.734 335.23 486.976 336.817 484.925 338.038C482.873 339.308 480.529 339.943 477.892 339.943C475.938 339.943 474.18 339.552 472.617 338.771C471.054 337.989 469.637 336.939 468.368 335.621C467.098 334.302 465.999 332.788 465.071 331.078C464.143 329.369 463.361 327.611 462.726 325.804C462.14 323.948 461.701 322.116 461.408 320.309C461.115 318.502 460.968 316.817 460.968 315.254C460.968 313.056 461.164 310.712 461.554 308.221C461.994 305.681 462.629 303.19 463.459 300.748C464.289 298.257 465.339 295.889 466.609 293.642C467.879 291.346 469.369 289.344 471.078 287.635C472.837 285.876 474.79 284.484 476.939 283.459C479.137 282.384 481.579 281.847 484.265 281.847C485.975 281.847 487.562 282.189 489.027 282.873C490.492 283.507 491.762 284.387 492.837 285.51C493.911 286.584 494.742 287.879 495.328 289.393C495.963 290.907 496.28 292.494 496.28 294.155V294.814C496.28 295.693 496.231 296.792 496.134 298.111C496.085 299.381 495.865 300.602 495.474 301.774C495.084 302.946 494.497 303.972 493.716 304.851C492.935 305.681 491.836 306.096 490.419 306.096C488.71 306.096 487.415 305.706 486.536 304.924C485.657 304.143 485.218 302.848 485.218 301.041C485.218 300.358 485.242 299.674 485.291 298.99C485.34 298.306 485.364 297.622 485.364 296.939C485.364 295.913 485.193 295.132 484.851 294.594C484.509 294.008 483.801 293.715 482.727 293.715C481.506 293.715 480.407 294.106 479.43 294.887C478.453 295.669 477.599 296.694 476.866 297.964C476.133 299.234 475.498 300.675 474.961 302.287C474.424 303.898 473.984 305.535 473.642 307.195C473.301 308.807 473.056 310.37 472.91 311.884C472.763 313.398 472.69 314.692 472.69 315.767C472.69 316.646 472.739 317.672 472.837 318.844C472.934 319.967 473.13 321.066 473.423 322.141C473.765 323.166 474.253 324.045 474.888 324.778C475.523 325.511 476.353 325.877 477.379 325.877C479.137 325.877 480.553 325.34 481.628 324.265C482.702 323.142 483.435 321.725 483.826 320.016C483.142 319.918 482.458 319.772 481.774 319.576C481.139 319.332 480.529 319.015 479.943 318.624C479.406 318.184 478.966 317.672 478.624 317.086C478.282 316.451 478.111 315.718 478.111 314.888C478.111 313.374 478.624 312.201 479.65 311.371C480.675 310.492 481.872 309.833 483.24 309.393C484.656 308.954 486.097 308.685 487.562 308.587C489.027 308.441 490.199 308.367 491.079 308.367C491.713 308.367 492.641 308.416 493.862 308.514C495.084 308.612 496.28 308.831 497.452 309.173C498.673 309.466 499.723 309.906 500.603 310.492C501.482 311.078 501.921 311.835 501.921 312.763C501.921 314.619 501.408 316.231 500.383 317.598C499.406 318.917 497.941 319.698 495.987 319.943Z" fill="#0F172B"/>
<path d="M537.966 298.99C537.966 302.36 537.184 305.388 535.621 308.074C534.058 310.761 531.983 313.129 529.394 315.181C530.176 316.353 530.981 317.72 531.812 319.283C532.642 320.846 533.375 322.507 534.01 324.265C534.693 325.975 535.231 327.708 535.621 329.467C536.061 331.176 536.281 332.763 536.281 334.229C536.281 335.792 535.89 337.183 535.109 338.405C534.376 339.674 533.106 340.309 531.299 340.309C529.785 340.309 528.466 339.577 527.343 338.111C526.268 336.646 525.292 334.912 524.412 332.91C523.582 330.859 522.801 328.783 522.068 326.683C521.384 324.583 520.725 322.898 520.09 321.628C519.211 321.921 518.356 322.263 517.526 322.653C516.696 322.995 515.841 323.337 514.962 323.679C514.913 324.754 514.815 326.243 514.669 328.148C514.571 330.004 514.302 331.86 513.863 333.716C513.472 335.572 512.862 337.183 512.031 338.551C511.201 339.919 510.053 340.602 508.588 340.602C506.976 340.602 505.731 339.943 504.852 338.624C503.973 337.306 503.338 335.743 502.947 333.936C502.605 332.128 502.41 330.297 502.361 328.441C502.312 326.536 502.288 325.047 502.288 323.972C502.288 321.677 502.336 319.43 502.434 317.232C502.532 314.985 502.581 312.714 502.581 310.419C502.581 308.319 502.532 306.218 502.434 304.118C502.385 302.018 502.361 299.894 502.361 297.745C502.361 297.256 502.361 296.646 502.361 295.913C502.361 295.132 502.385 294.35 502.434 293.569C502.532 292.738 502.629 291.957 502.727 291.224C502.825 290.492 502.996 289.906 503.24 289.466C503.728 288.44 504.827 287.464 506.537 286.536C508.295 285.608 510.2 284.802 512.251 284.118C514.351 283.385 516.378 282.824 518.332 282.433C520.334 281.993 521.824 281.774 522.801 281.774C525.292 281.774 527.489 282.238 529.394 283.166C531.299 284.094 532.886 285.363 534.156 286.975C535.426 288.538 536.378 290.37 537.013 292.47C537.648 294.521 537.966 296.694 537.966 298.99ZM524.412 300.016C524.412 298.746 524.119 297.793 523.533 297.158C522.947 296.475 521.995 296.133 520.676 296.133C519.699 296.133 518.698 296.304 517.672 296.646C516.696 296.988 515.792 297.378 514.962 297.818C515.157 301.676 515.23 305.51 515.181 309.32C516.207 308.978 517.257 308.538 518.332 308.001C519.406 307.464 520.383 306.805 521.262 306.023C522.19 305.242 522.947 304.362 523.533 303.386C524.119 302.409 524.412 301.286 524.412 300.016Z" fill="#0F172B"/>
<path d="M557.307 339.943C554.327 339.943 551.739 339.186 549.541 337.672C547.343 336.207 545.512 334.229 544.046 331.738C542.63 329.198 541.556 326.268 540.823 322.946C540.139 319.625 539.797 316.133 539.797 312.47C539.797 309.051 540.164 305.583 540.896 302.067C541.678 298.55 542.85 295.376 544.413 292.543C545.976 289.71 547.954 287.39 550.347 285.583C552.74 283.776 555.597 282.873 558.918 282.873C562.142 282.873 564.828 283.752 566.977 285.51C569.175 287.219 570.909 289.466 572.179 292.25C573.497 294.985 574.425 298.062 574.963 301.481C575.549 304.9 575.842 308.319 575.842 311.737C575.842 315.547 575.451 319.161 574.67 322.58C573.937 325.95 572.789 328.929 571.226 331.518C569.712 334.107 567.783 336.158 565.439 337.672C563.143 339.186 560.432 339.943 557.307 339.943ZM558.186 299.063C557.258 299.063 556.452 299.43 555.768 300.162C555.133 300.895 554.596 301.872 554.156 303.093C553.717 304.265 553.399 305.608 553.204 307.122C553.009 308.587 552.911 310.077 552.911 311.591C552.911 313.3 553.009 315.01 553.204 316.719C553.448 318.429 553.79 319.967 554.23 321.335C554.669 322.702 555.207 323.801 555.841 324.631C556.525 325.462 557.331 325.877 558.259 325.877C559.334 325.877 560.188 325.34 560.823 324.265C561.458 323.191 561.947 321.896 562.288 320.382C562.679 318.868 562.923 317.305 563.021 315.694C563.168 314.082 563.241 312.739 563.241 311.664C563.241 310.345 563.143 308.954 562.948 307.488C562.801 306.023 562.533 304.68 562.142 303.459C561.751 302.189 561.238 301.139 560.603 300.309C559.968 299.478 559.163 299.063 558.186 299.063Z" fill="#0F172B"/>
<path d="M625 294.521C625 297.452 624.805 300.358 624.414 303.239C624.023 306.072 623.559 308.88 623.022 311.664C622.875 312.397 622.656 313.593 622.363 315.254C622.07 316.866 621.703 318.673 621.264 320.675C620.873 322.678 620.385 324.754 619.798 326.903C619.212 329.051 618.553 331.005 617.82 332.763C617.137 334.522 616.355 335.987 615.476 337.159C614.646 338.282 613.742 338.844 612.765 338.844C611.789 338.844 610.836 338.356 609.908 337.379C609.029 336.402 608.199 335.181 607.417 333.716C606.685 332.202 606.001 330.517 605.366 328.661C604.731 326.805 604.169 325.022 603.681 323.313C603.241 321.554 602.851 319.967 602.509 318.551C602.216 317.086 601.996 315.987 601.849 315.254C601.654 315.889 601.337 316.915 600.897 318.331C600.506 319.698 599.994 321.261 599.359 323.02C598.724 324.729 598.015 326.487 597.234 328.294C596.453 330.102 595.622 331.762 594.743 333.276C593.913 334.79 593.034 336.036 592.106 337.013C591.178 337.989 590.25 338.478 589.322 338.478C588.101 338.478 587.026 337.941 586.098 336.866C585.17 335.792 584.389 334.424 583.754 332.763C583.119 331.054 582.582 329.174 582.142 327.122C581.703 325.022 581.361 322.971 581.117 320.968C580.872 318.917 580.677 317.012 580.53 315.254C580.384 313.496 580.286 312.104 580.237 311.078C580.091 308.734 579.944 306.438 579.798 304.192C579.7 301.945 579.651 299.649 579.651 297.305C579.651 296.475 579.676 295.351 579.725 293.935C579.773 292.47 579.944 291.053 580.237 289.686C580.579 288.269 581.068 287.048 581.703 286.023C582.386 284.948 583.363 284.362 584.633 284.264C585.708 284.216 586.636 284.655 587.417 285.583C588.198 286.511 588.858 287.757 589.395 289.32C589.932 290.834 590.347 292.543 590.64 294.448C590.982 296.304 591.227 298.111 591.373 299.869C591.568 301.627 591.691 303.239 591.739 304.704C591.788 306.17 591.788 307.244 591.739 307.928L591.666 309.833C591.813 309.198 592.057 308.196 592.399 306.829C592.789 305.461 593.253 303.923 593.791 302.213C594.328 300.455 594.89 298.673 595.476 296.865C596.111 295.009 596.77 293.324 597.454 291.81C598.138 290.296 598.821 289.051 599.505 288.074C600.189 287.048 600.848 286.511 601.483 286.462C602.313 286.413 603.095 286.902 603.828 287.928C604.609 288.953 605.293 290.296 605.879 291.957C606.514 293.569 607.075 295.376 607.564 297.378C608.052 299.381 608.467 301.334 608.809 303.239C609.2 305.095 609.493 306.78 609.688 308.294C609.884 309.808 610.03 310.883 610.128 311.518C610.177 310.736 610.299 309.515 610.494 307.855C610.69 306.145 610.958 304.265 611.3 302.213C611.642 300.113 612.057 297.989 612.546 295.84C613.083 293.642 613.693 291.639 614.377 289.832C615.061 288.025 615.842 286.56 616.721 285.437C617.601 284.264 618.577 283.678 619.652 283.678C620.873 283.678 621.85 284.094 622.582 284.924C623.315 285.705 623.852 286.682 624.194 287.854C624.536 288.978 624.756 290.174 624.853 291.444C624.951 292.665 625 293.691 625 294.521Z" fill="#0F172B"/>
</svg>
