<svg width="670" height="670" viewBox="0 0 670 670" fill="none" xmlns="http://www.w3.org/2000/svg">
<path d="M68.7336 403.758L54.3401 363.632V393.625C54.3401 396.543 56.8468 400.434 58.545 402.623C60.89 405.622 60.1622 406.108 57.6555 406.108H46.7391C44.3132 406.108 43.5855 405.622 45.9305 402.623C47.5477 400.434 50.1353 396.543 50.1353 393.625V359.498C50.1353 356.661 47.5477 352.689 45.9305 350.581C43.5855 347.501 44.3132 347.014 46.7391 347.014H62.7498C64.8522 347.014 66.712 348.392 67.4398 350.419L78.8414 382.114L90.3238 350.419C91.0515 348.392 92.9114 347.014 95.0138 347.014H108.356C110.863 347.014 111.591 348.392 110.135 351.473C109.246 353.499 108.356 356.661 108.356 359.498V393.625C108.356 396.543 109.246 399.623 110.135 401.65C111.591 404.811 110.863 406.108 108.356 406.108H91.5367C89.1109 406.108 88.3831 404.811 89.7578 401.65C90.7281 399.623 91.5367 396.543 91.5367 393.625V359.174L75.526 403.758C75.0408 405.217 73.6662 406.108 72.1298 406.108C70.5934 406.108 69.2188 405.217 68.7336 403.758Z" fill="#161616"/>
<path d="M147.766 378.061L147.685 378.223V393.625C147.685 396.543 148.494 399.623 149.464 401.65C150.839 404.811 150.111 406.108 147.685 406.108H130.785C128.359 406.108 127.632 404.811 129.087 401.65C129.977 399.623 130.785 396.543 130.785 393.625V382.763L120.839 359.498C119.545 356.58 116.715 353.58 114.532 351.473C111.459 348.392 111.54 347.014 113.966 347.014H132.322C134.747 347.014 136.203 348.392 136.446 351.473C136.607 353.499 137.901 356.661 139.195 359.498L145.34 373.846L152.699 359.498C154.316 356.417 154.72 353.499 154.478 351.635C154.154 348.392 155.448 347.014 157.874 347.014H167.739C170.165 347.014 170.327 348.473 166.041 351.392C162.807 353.58 159.087 356.498 157.551 359.498L147.766 378.061Z" fill="#161616"/>
<path d="M200.449 395.489C200.449 383.897 167.861 385.032 167.861 364.361C167.861 352.283 179.02 346.204 191.877 346.204C204.573 346.204 213.791 352.202 213.791 361.038C213.791 366.712 209.99 369.955 204.977 369.955C199.721 369.955 195.435 366.388 196.486 359.498C197.457 354.148 195.031 350.419 190.826 350.419C187.025 350.419 183.791 353.337 183.791 357.958C183.791 371.981 215.004 368.577 215.004 389.815C215.004 402.704 203.602 407 191.069 407C176.352 407 167.133 401.001 167.133 392.085C167.133 386.491 170.934 383.168 175.947 383.168C181.203 383.168 185.489 386.816 184.438 393.625C183.468 399.056 185.893 402.785 191.392 402.785C196.325 402.785 200.449 399.623 200.449 395.489Z" fill="#161616"/>
<path d="M232.771 351.229H231.72C224.846 351.229 222.582 358.849 219.186 360.876C217.569 361.849 216.76 360.957 216.76 358.849V349.527C216.76 348.068 217.73 347.014 219.267 347.014H263.094C264.63 347.014 265.601 348.068 265.601 349.527V358.849C265.601 360.957 264.792 361.849 263.175 360.876C259.779 358.849 257.515 351.229 250.641 351.229H249.59V393.625C249.59 396.543 250.48 399.623 251.369 401.65C252.825 404.811 252.016 406.108 249.59 406.108H232.771C230.345 406.108 229.536 404.811 230.992 401.65C231.881 399.623 232.771 396.543 232.771 393.625V351.229Z" fill="#161616"/>
<path d="M268.55 401.65C269.439 399.623 270.329 396.543 270.329 393.625V359.498C270.329 356.661 269.439 353.499 268.55 351.473C267.094 348.392 267.903 347.014 270.329 347.014H287.148C289.574 347.014 290.382 348.392 288.927 351.473C288.037 353.499 287.148 356.661 287.148 359.498V393.625C287.148 396.543 288.037 399.623 288.927 401.65C290.382 404.811 289.574 406.108 287.148 406.108H270.329C267.903 406.108 267.094 404.811 268.55 401.65Z" fill="#161616"/>
<path d="M344.582 386.816C343.369 398.245 333.423 407 320.404 407C306.01 407 293.234 396.219 293.234 376.845C293.234 358.363 304.959 346.204 322.506 346.204C334.959 346.204 344.096 352.202 344.096 361.038C344.096 366.712 340.296 369.955 335.282 369.955C330.026 369.955 325.741 366.388 326.873 359.498C327.762 354.148 325.336 350.419 321.212 350.419C315.956 350.419 310.539 356.498 310.539 370.928C310.539 385.681 316.199 394.273 325.983 394.273C332.695 394.273 339.245 390.139 340.619 384.141C341.185 381.79 342.075 381.384 343.207 381.79C344.339 382.276 345.067 383.33 344.582 386.816Z" fill="#161616"/>
<path d="M418.272 406.108H418.191C416.817 406.108 415.2 405.541 414.31 404.487L408.165 398.164C406.466 403.271 401.453 407 394.418 407C382.45 407 369.674 396.219 369.674 376.845C369.674 358.363 381.399 346.204 398.946 346.204C411.399 346.204 420.536 352.202 420.536 361.038C420.536 366.712 416.736 369.955 411.722 369.955C406.466 369.955 402.181 366.388 403.313 359.498C404.202 354.148 401.776 350.419 397.652 350.419C392.396 350.419 386.979 356.498 386.979 370.928C386.979 385.681 392.639 397.678 398.946 397.678C401.534 397.678 403.717 395.813 403.717 393.949V386.897C403.717 382.844 401.534 379.52 399.512 377.818C397.167 375.71 397.895 374.413 400.321 374.413H420.536C422.962 374.413 423.771 375.71 422.315 378.872C421.345 380.898 420.536 383.978 420.536 386.897V403.839C420.536 405.217 419.647 406.108 418.272 406.108Z" fill="#161616"/>
<path d="M446.109 351.229V374.494H447.16C454.68 374.494 455.812 369.063 455.812 362.821C455.812 356.742 454.761 351.229 447.16 351.229H446.109ZM473.036 389.896C473.036 395.084 470.852 401.082 475.461 399.38C478.534 398.164 479.828 400.029 477.645 402.947C475.623 405.622 472.146 407 467.618 407C456.944 407 455.812 399.461 455.812 390.463C455.812 384.059 456.378 378.709 448.777 378.709H446.109V393.625C446.109 396.543 446.998 399.623 447.887 401.65C449.343 404.811 448.534 406.108 446.109 406.108H429.289C426.863 406.108 426.055 404.811 427.51 401.65C428.4 399.623 429.289 396.543 429.289 393.625V359.498C429.289 356.661 428.4 353.499 427.51 351.473C426.055 348.392 426.863 347.014 429.289 347.014H457.429C466.728 347.014 473.036 353.256 473.036 362.254C473.036 370.441 467.78 375.143 460.987 375.872C467.86 376.602 473.036 382.033 473.036 389.896Z" fill="#161616"/>
<path d="M500.517 378.709V401.893H507.228C514.182 401.893 516.447 394.273 519.843 392.247C521.379 391.274 522.269 392.166 522.269 394.273V403.595C522.269 405.136 521.217 406.108 519.762 406.108H483.697C481.272 406.108 480.463 404.811 481.918 401.65C482.808 399.623 483.697 396.543 483.697 393.625V359.498C483.697 356.661 482.808 353.499 481.918 351.473C480.463 348.392 481.272 347.014 483.697 347.014H519.762C521.217 347.014 522.269 348.068 522.269 349.527V358.849C522.269 360.957 521.379 361.849 519.843 360.876C516.447 358.849 514.182 351.229 507.228 351.229H500.517V374.494H506.015C508.846 374.494 512.808 371.9 514.91 370.279C517.983 367.847 518.468 368.658 518.468 371.09V382.033C518.468 384.546 517.983 385.275 514.91 382.925C512.808 381.222 508.846 378.709 506.015 378.709H500.517Z" fill="#161616"/>
<path d="M546.081 378.709V401.893H552.792C559.746 401.893 562.011 394.273 565.407 392.247C566.943 391.274 567.833 392.166 567.833 394.273V403.595C567.833 405.136 566.781 406.108 565.326 406.108H529.261C526.836 406.108 526.027 404.811 527.482 401.65C528.372 399.623 529.261 396.543 529.261 393.625V359.498C529.261 356.661 528.372 353.499 527.482 351.473C526.027 348.392 526.836 347.014 529.261 347.014H565.326C566.781 347.014 567.833 348.068 567.833 349.527V358.849C567.833 360.957 566.943 361.849 565.407 360.876C562.011 358.849 559.746 351.229 552.792 351.229H546.081V374.494H551.579C554.409 374.494 558.372 371.9 560.474 370.279C563.547 367.847 564.032 368.658 564.032 371.09V382.033C564.032 384.546 563.547 385.275 560.474 382.925C558.372 381.222 554.409 378.709 551.579 378.709H546.081Z" fill="#161616"/>
<path d="M614.933 406.108H607.17C604.825 406.108 602.399 404.73 601.429 402.623L580.971 361.119V393.625C580.971 396.543 583.478 400.434 585.176 402.623C587.521 405.622 586.793 406.108 584.286 406.108H573.37C570.944 406.108 570.216 405.622 572.561 402.623C574.178 400.434 576.766 396.543 576.766 393.625V359.498C576.766 356.661 574.178 352.689 572.561 350.581C570.216 347.501 570.944 347.014 573.37 347.014H588.814C591.159 347.014 593.504 348.473 594.475 350.581L614.61 391.274V359.498C614.61 356.661 612.103 352.689 610.405 350.581C608.06 347.501 608.868 347.014 611.294 347.014H622.211C624.636 347.014 625.445 347.501 623.1 350.581C621.402 352.689 618.814 356.661 618.814 359.498V402.136C618.814 404.487 617.278 406.108 614.933 406.108Z" fill="#161616"/>
<path d="M583.281 340.259C583.281 336.109 571.613 336.515 571.613 329.115C571.613 324.79 575.609 322.614 580.212 322.614C584.757 322.614 588.057 324.761 588.057 327.925C588.057 329.956 586.697 331.117 584.902 331.117C583.02 331.117 581.486 329.84 581.862 327.373C582.209 325.458 581.341 324.123 579.835 324.123C578.475 324.123 577.317 325.168 577.317 326.822C577.317 331.843 588.492 330.624 588.492 338.228C588.492 342.842 584.41 344.38 579.922 344.38C574.653 344.38 571.353 342.233 571.353 339.04C571.353 337.038 572.714 335.848 574.509 335.848C576.39 335.848 577.925 337.154 577.548 339.592C577.201 341.536 578.069 342.871 580.038 342.871C581.804 342.871 583.281 341.739 583.281 340.259Z" fill="#161616"/>
<path d="M596.792 324.413V332.742H597.169C599.861 332.742 600.266 330.798 600.266 328.563C600.266 326.387 599.89 324.413 597.169 324.413H596.792ZM606.433 338.257C606.433 340.114 605.651 342.262 607.301 341.652C608.402 341.217 608.865 341.884 608.083 342.929C607.359 343.887 606.115 344.38 604.493 344.38C600.672 344.38 600.266 341.681 600.266 338.46C600.266 336.167 600.469 334.252 597.748 334.252H596.792V339.592C596.792 340.636 597.111 341.739 597.429 342.465C597.95 343.597 597.661 344.061 596.792 344.061H590.771C589.902 344.061 589.613 343.597 590.134 342.465C590.452 341.739 590.771 340.636 590.771 339.592V327.373C590.771 326.358 590.452 325.226 590.134 324.5C589.613 323.397 589.902 322.904 590.771 322.904H600.845C604.175 322.904 606.433 325.139 606.433 328.36C606.433 331.291 604.551 332.975 602.119 333.236C604.58 333.497 606.433 335.441 606.433 338.257Z" fill="#161616"/>
<path d="M616.272 327.373V342.552H618.675C621.165 342.552 621.975 339.824 623.191 339.098C623.741 338.75 624.06 339.069 624.06 339.824V343.161C624.06 343.713 623.683 344.061 623.162 344.061H610.25C609.382 344.061 609.092 343.597 609.613 342.465C609.932 341.739 610.25 340.636 610.25 339.592V327.373C610.25 326.358 609.932 325.226 609.613 324.5C609.092 323.397 609.382 322.904 610.25 322.904H616.272C617.14 322.904 617.43 323.397 616.909 324.5C616.59 325.226 616.272 326.358 616.272 327.373Z" fill="#161616"/>
<path d="M349.148 373.108C349.23 372.859 349.396 372.776 349.561 372.693C349.81 372.527 349.975 372.361 350.141 372.195C350.306 371.946 350.554 371.614 350.637 371.365C350.803 371.115 350.885 370.783 351.051 370.534C351.134 370.285 351.134 370.202 351.134 370.036C351.216 369.621 351.299 369.289 351.465 368.873C351.465 368.79 351.547 368.707 351.547 368.624C351.547 368.541 351.63 368.541 351.63 368.458C351.713 367.96 351.878 367.545 352.044 367.13C352.127 366.881 352.292 366.631 352.375 366.382C352.541 366.05 352.623 365.718 352.789 365.386C352.871 365.137 352.954 364.888 353.12 364.722C353.285 364.473 353.368 364.14 353.534 363.891C353.699 363.476 353.865 362.978 354.03 362.563C354.113 362.314 354.278 362.148 354.361 361.982C354.609 361.4 354.858 360.902 355.189 360.321C355.602 359.574 356.099 358.826 356.513 358.079C356.761 357.664 356.926 357.332 357.175 356.916C357.34 356.667 357.506 356.418 357.589 356.169C357.837 355.754 358.085 355.339 358.251 354.841C358.582 354.259 358.913 353.595 359.244 353.014C359.657 352.349 360.071 351.685 360.485 351.021C360.651 350.689 360.899 350.357 361.147 350.024C361.313 349.775 361.395 349.526 361.561 349.277C361.892 348.779 362.14 348.198 362.388 347.616C362.388 347.533 362.471 347.45 362.471 347.367C362.471 347.201 362.554 347.118 362.637 347.035C362.885 346.786 362.968 346.537 363.133 346.205C363.133 346.205 363.133 346.122 363.133 346.039C363.05 345.374 363.05 344.627 362.968 343.963C362.885 343.299 362.885 342.717 362.885 342.053C362.885 341.721 362.885 341.472 362.885 341.14C362.885 340.226 362.802 339.313 362.802 338.4C362.802 337.901 362.802 337.403 362.968 336.905C363.05 336.573 363.05 336.241 363.133 335.908C363.216 335.41 363.381 334.912 363.63 334.414C363.878 333.916 364.374 333.75 364.871 333.583C365.368 333.417 365.947 333.417 366.443 333.5C367.105 333.583 367.767 333.667 368.347 333.75C368.512 333.75 368.76 333.833 368.926 333.916C369.257 333.999 369.588 334.082 369.919 334.165C370.25 334.248 370.498 334.331 370.829 334.414C371.078 334.497 371.409 334.663 371.657 334.663C372.071 334.746 372.484 334.912 372.898 335.078C373.312 335.161 373.726 335.41 374.14 335.493C374.471 335.576 374.884 335.742 375.215 335.825C375.877 335.992 376.457 336.241 377.119 336.407C377.367 336.49 377.698 336.573 377.946 336.656C378.029 336.656 378.112 336.656 378.195 336.656C378.277 336.407 378.195 336.075 378.195 335.825C378.195 335.742 378.195 335.659 378.195 335.576C378.195 335.078 378.112 334.497 378.112 333.999C378.112 333.5 378.112 333.085 378.112 332.587C378.112 332.089 378.277 331.591 378.195 331.092C378.112 330.594 378.112 330.096 378.112 329.598C378.112 329.598 378.112 329.515 378.029 329.515C377.946 329.598 377.864 329.681 377.781 329.764C377.533 330.096 377.284 330.428 376.953 330.677C376.705 330.926 376.457 331.009 376.208 331.259C376.126 331.342 375.96 331.342 375.877 331.175C375.795 331.092 375.712 331.009 375.629 330.926C375.381 330.76 375.05 330.594 374.884 330.428C374.388 330.013 373.726 329.681 373.146 329.266C373.064 329.266 373.064 329.183 372.981 329.183C372.733 328.934 372.402 328.684 372.153 328.518C371.657 328.186 371.243 327.854 370.747 327.522C370.498 327.273 370.167 327.107 369.919 326.858C369.588 326.609 369.174 326.359 368.76 326.027C368.264 325.695 367.767 325.28 367.271 324.948C366.692 324.533 366.112 324.284 365.45 324.117C365.368 324.117 365.202 324.034 365.119 323.951C364.623 323.785 364.126 323.785 363.63 323.951C363.381 324.034 363.133 324.034 362.885 324.034C362.719 324.034 362.471 324.034 362.306 324.117C361.975 324.117 361.644 324.201 361.313 324.201C360.899 324.284 360.485 324.367 360.154 324.367C359.906 324.367 359.657 324.45 359.409 324.45C359.244 324.45 359.078 324.367 358.913 324.284C358.251 324.034 357.589 323.619 357.009 323.287C356.596 323.038 356.264 322.789 355.851 322.457C355.685 322.374 355.602 322.208 355.437 322.125C355.437 322.125 355.354 322.042 355.354 321.959C355.437 321.626 355.768 321.46 356.099 321.626C356.264 321.709 356.347 321.792 356.513 321.876C357.092 322.125 357.671 322.457 358.168 322.706C358.251 322.706 358.333 322.789 358.416 322.789C358.83 322.789 359.161 322.789 359.575 322.789C359.74 322.789 359.906 322.706 360.071 322.706C360.568 322.623 361.064 322.457 361.561 322.291C361.892 322.208 362.14 322.042 362.388 321.959C362.637 321.876 362.885 321.709 363.133 321.626C363.63 321.377 364.126 321.46 364.623 321.46C364.871 321.46 365.202 321.543 365.368 321.709C365.699 321.876 366.03 322.042 366.361 322.208C366.774 322.457 367.188 322.789 367.685 323.038C368.016 323.204 368.429 323.37 368.76 323.536C369.505 323.785 370.25 323.951 370.995 324.201C371.409 324.284 371.74 324.533 372.153 324.616C372.567 324.782 372.981 324.948 373.395 325.114C374.14 325.363 374.802 325.612 375.464 325.944C375.629 326.027 375.795 326.11 375.96 326.193C376.043 326.276 376.126 326.193 376.126 326.11C376.291 325.778 376.374 325.446 376.539 325.197C376.622 325.031 376.539 324.865 376.457 324.782C376.208 324.367 376.043 323.868 375.877 323.453C375.795 323.204 375.877 322.872 375.877 322.623C375.877 322.374 375.96 322.125 376.043 321.876C376.126 321.543 376.291 321.294 376.457 321.045C376.539 320.879 376.622 320.796 376.788 320.63C376.87 320.547 376.953 320.464 377.036 320.381C377.367 320.049 377.781 319.8 378.195 319.551C378.36 319.468 378.526 319.301 378.608 319.218C378.774 319.052 379.022 318.886 379.27 318.72C379.436 318.637 379.601 318.554 379.767 318.388C379.85 318.222 380.015 318.222 380.263 318.139C380.594 318.056 380.843 317.89 381.091 317.641C381.257 317.475 381.422 317.226 381.588 316.976C381.836 316.644 382.001 316.312 382.167 315.897V315.814C382.415 315.233 382.498 314.568 382.415 313.904C382.415 313.489 382.415 312.991 382.332 312.576C382.332 312.326 382.25 312.077 382.25 311.745C382.001 311.911 381.836 311.994 381.67 312.077C381.505 312.16 381.257 312.326 381.091 312.41C380.76 312.493 380.512 312.576 380.181 312.659C380.098 312.659 380.015 312.659 379.932 312.659C379.85 312.659 379.85 312.576 379.767 312.659C379.436 312.742 379.27 312.576 379.105 312.326C378.857 311.994 378.691 311.662 378.526 311.247C378.36 310.832 378.195 310.5 378.029 310.085C377.946 309.918 377.864 309.669 377.864 309.42C377.781 308.922 377.698 308.424 377.615 307.843C377.615 307.593 377.615 307.427 377.615 307.178C377.615 306.846 377.698 306.597 377.698 306.265C377.698 306.016 377.781 305.767 377.781 305.518C377.781 305.435 377.781 305.352 377.781 305.268C377.698 305.268 377.698 305.268 377.698 305.352C377.284 306.182 377.036 307.095 377.036 308.092C376.953 309.005 376.871 309.918 376.953 310.915C376.953 311.413 377.036 311.994 377.119 312.493C377.201 313.074 377.284 313.572 377.367 314.07C377.367 314.153 377.367 314.153 377.367 314.319C377.284 314.236 377.202 314.236 377.202 314.153C377.119 313.987 377.119 313.904 377.119 313.738C377.119 313.655 377.036 313.572 377.036 313.489C376.87 312.908 376.788 312.243 376.705 311.662C376.705 311.164 376.705 310.666 376.705 310.085C376.705 309.503 376.788 308.922 376.788 308.424C376.788 308.258 376.788 308.092 376.705 307.843C376.705 307.76 376.705 307.677 376.705 307.51C376.705 307.095 376.705 306.763 376.705 306.348C376.705 305.933 376.788 305.435 376.87 305.019C376.87 304.77 376.953 304.521 376.87 304.189C376.788 304.272 376.788 304.272 376.705 304.355C376.539 304.604 376.374 304.936 376.291 305.185C376.126 305.601 375.96 306.016 375.795 306.431C375.712 306.68 375.712 306.846 375.629 307.095C375.546 307.593 375.381 308.092 375.298 308.507C375.215 308.756 375.298 309.088 375.215 309.337C375.133 309.752 375.215 310.085 375.298 310.5C375.381 310.832 375.381 311.247 375.381 311.579C375.381 311.828 375.381 312.16 375.381 312.41C375.381 312.742 375.464 312.991 375.464 313.323C375.546 313.821 375.546 314.319 375.629 314.818C375.629 314.984 375.712 315.067 375.712 315.233C375.795 315.565 375.795 315.897 375.877 316.229V316.312H375.795C375.712 316.063 375.546 315.814 375.546 315.482C375.546 315.316 375.464 315.15 375.464 314.984C375.381 314.402 375.298 313.904 375.215 313.323C375.215 312.991 375.133 312.576 375.05 312.243C375.05 311.911 374.967 311.496 374.967 311.164C374.967 310.832 374.884 310.417 374.802 310.085C374.802 309.752 374.719 309.42 374.719 309.088C374.719 308.59 374.719 308.175 374.802 307.677C374.884 307.344 374.967 306.929 375.05 306.597C375.05 306.431 375.133 306.265 375.133 306.182C375.133 305.85 375.215 305.518 375.298 305.102C375.381 304.936 375.381 304.77 375.381 304.604C375.381 304.355 375.464 304.189 375.546 303.94C375.629 303.857 375.629 303.691 375.629 303.608C375.712 303.359 375.795 303.11 375.96 302.86C376.208 302.362 376.457 301.947 376.705 301.449C376.87 301.2 377.036 301.034 377.202 300.868C377.202 300.785 377.284 300.785 377.284 300.702C377.284 300.619 377.367 300.619 377.367 300.535C377.781 300.203 378.112 299.788 378.526 299.456C378.774 299.29 379.022 299.207 379.27 299.041C379.436 298.958 379.601 298.875 379.767 298.875C380.346 298.626 380.925 298.626 381.505 298.709C381.753 298.709 382.001 298.792 382.25 298.792C382.581 298.875 382.829 298.958 382.912 299.373C382.994 299.29 383.077 299.207 383.16 299.207C383.408 298.958 383.739 298.875 384.07 298.875C384.649 298.875 385.146 298.875 385.725 298.875C386.305 298.875 386.801 299.041 387.38 299.207C387.794 299.373 388.208 299.622 388.539 299.871C388.622 299.954 388.622 299.954 388.704 299.954C389.201 300.203 389.532 300.619 389.946 300.951C390.111 301.2 390.277 301.449 390.525 301.615C390.691 301.781 390.773 301.947 390.939 302.03C391.022 302.113 391.022 302.113 391.022 302.196C391.104 302.611 391.187 302.944 391.27 303.359C391.353 303.608 391.435 303.857 391.601 304.023C391.766 303.774 391.849 303.525 392.015 303.276C392.097 303.193 392.097 303.11 392.18 302.944L392.263 302.86C392.594 302.03 393.173 301.283 393.587 300.452C393.67 300.203 393.835 300.037 393.918 299.788C394.001 299.622 394.084 299.539 394.166 299.373C394.166 299.373 394.166 299.373 394.166 299.29C394.249 298.958 394.497 298.792 394.663 298.46C394.828 298.21 394.994 297.878 395.159 297.629C395.325 297.297 395.49 296.965 395.573 296.633C395.656 296.384 395.821 296.135 395.904 295.886C396.318 295.055 396.649 294.225 397.063 293.394C397.228 293.062 397.311 292.813 397.476 292.481C397.559 292.315 397.642 292.149 397.725 291.983C397.725 291.9 397.807 291.817 397.807 291.817C397.973 291.568 398.056 291.236 398.221 290.986C398.304 290.737 398.47 290.405 398.552 290.156C398.635 289.907 398.801 289.658 398.883 289.492C398.966 289.243 399.049 289.077 399.132 288.828C399.132 288.744 399.132 288.744 399.214 288.661C399.628 287.914 399.876 287.167 400.207 286.42C400.373 286.004 400.538 285.506 400.704 285.091C400.787 284.759 400.869 284.427 400.952 284.178C401.035 283.845 401.035 283.43 401.118 283.098C401.283 282.434 401.2 281.77 401.2 281.022C401.2 280.773 401.2 280.607 401.2 280.358C401.2 280.192 401.2 279.943 401.2 279.777C401.2 279.528 401.283 279.278 401.283 279.029C401.283 278.946 401.366 278.863 401.366 278.863C401.449 278.78 401.614 278.78 401.697 278.946C401.78 279.195 401.78 279.362 401.863 279.611C401.863 279.694 401.862 279.86 401.945 279.943C402.111 280.026 402.194 279.86 402.194 279.86C402.276 279.694 402.442 279.528 402.442 279.362C402.525 279.112 402.69 278.863 403.021 278.697C403.187 278.614 403.352 278.365 403.435 278.282C403.518 278.199 403.518 278.116 403.518 278.116C403.518 277.701 403.6 277.286 403.518 276.87C403.435 276.621 403.518 276.455 403.766 276.289C403.849 276.206 403.931 276.04 404.014 275.874C404.014 275.625 404.014 275.293 404.014 275.044C404.014 274.629 404.014 274.213 404.097 273.798C404.18 273.217 404.345 272.636 404.511 272.054C404.593 271.805 404.676 271.473 404.842 271.224C404.924 270.975 405.09 270.726 405.173 270.394C405.255 270.311 405.338 270.145 405.338 270.062C405.504 269.812 405.669 269.48 405.835 269.231C406 268.982 406.249 268.733 406.414 268.484C406.58 268.235 406.745 267.986 406.993 267.82C407.407 267.487 407.904 267.238 408.483 266.989C408.648 266.906 408.814 266.989 409.062 266.989C409.145 266.989 409.145 267.072 409.228 267.155C409.228 267.238 409.145 267.321 409.145 267.321C408.648 267.487 408.317 267.82 407.904 268.235C407.573 268.567 407.324 268.982 407.076 269.314C406.745 269.729 406.58 270.228 406.331 270.643C406.166 271.058 405.918 271.473 405.752 271.888C405.586 272.304 405.504 272.802 405.421 273.217C405.338 273.549 405.255 273.881 405.173 274.213C405.173 274.296 405.173 274.379 405.09 274.462C405.09 274.795 405.007 275.127 405.007 275.542C405.007 275.874 405.007 276.206 405.09 276.455C405.173 277.12 405.338 277.701 405.255 278.365C405.255 278.614 405.255 278.863 405.09 279.112C405.007 279.278 405.007 279.445 405.007 279.528C404.759 280.275 404.428 281.022 404.014 281.686C403.849 282.019 403.683 282.351 403.518 282.683C403.352 282.932 403.187 283.181 403.021 283.513C402.856 283.928 402.607 284.344 402.525 284.759C402.442 285.008 402.525 285.34 402.525 285.589C402.525 285.838 402.938 286.004 403.187 285.838C403.435 285.672 403.6 285.34 403.435 285.174C403.352 285.091 403.269 285.008 403.187 285.008C403.021 284.925 403.021 284.842 403.021 284.759C403.021 284.593 403.104 284.51 403.269 284.51C403.352 284.51 403.518 284.51 403.6 284.427C403.931 284.344 404.18 284.427 404.428 284.593C404.593 284.759 404.759 284.925 404.924 285.091C405.007 285.174 405.007 285.34 405.007 285.423C405.007 285.838 405.007 286.253 404.924 286.586C404.924 286.918 404.842 287.167 404.759 287.499C404.676 287.831 404.511 288.08 404.262 288.329C404.097 288.495 404.014 288.661 403.849 288.828C403.931 288.828 403.931 288.911 404.014 288.911C404.428 288.994 404.676 289.243 404.759 289.658C404.842 290.156 404.924 290.571 404.924 291.069C404.924 291.568 404.924 292.066 404.924 292.564V292.647C405.007 292.647 405.007 292.564 405.09 292.564C405.09 292.564 405.173 292.481 405.173 292.398C405.421 291.817 405.835 291.319 406.083 290.737C406.331 290.239 406.58 289.824 406.828 289.326C406.993 288.911 407.159 288.495 407.324 288.08C407.49 287.499 407.655 287.001 407.904 286.42C408.069 285.921 408.235 285.423 408.4 284.925C408.566 284.51 408.648 284.095 408.731 283.679C408.814 283.347 408.897 283.015 408.979 282.683C409.062 282.268 409.228 281.77 409.31 281.354C409.31 281.271 409.393 281.188 409.393 281.105C409.476 280.939 409.476 280.773 409.476 280.524C409.559 280.358 409.559 280.109 409.641 279.943C409.807 279.528 409.807 279.112 409.89 278.78C409.973 278.448 410.055 278.116 410.138 277.784C410.304 277.452 410.386 277.203 410.469 276.87C410.717 276.206 410.883 275.542 411.131 274.961C411.297 274.545 411.379 274.213 411.545 273.798C411.71 273.383 411.959 272.968 412.124 272.553C412.207 272.304 412.29 272.054 412.455 271.888C412.786 271.224 413.117 270.56 413.531 269.895C413.779 269.48 414.027 269.148 414.276 268.733C414.441 268.484 414.69 268.235 414.855 268.069C415.352 267.487 415.848 267.072 416.427 266.657C416.841 266.325 417.338 265.993 417.751 265.661C418.082 265.329 418.579 265.162 418.91 264.913C419.324 264.664 419.738 264.581 420.151 264.249C420.234 264.166 420.317 264.166 420.4 264.166C420.648 264.083 420.979 264 421.227 264C421.31 264 421.31 264 421.393 264C421.475 264 421.558 264.083 421.475 264.166C421.393 264.249 421.31 264.332 421.227 264.415C420.731 264.747 420.151 265.079 419.572 265.412C418.827 265.744 418.165 266.159 417.586 266.74C417.172 267.155 416.676 267.571 416.345 268.069C416.179 268.318 416.014 268.484 415.848 268.733C415.517 269.148 415.269 269.646 414.938 270.145C414.69 270.56 414.441 270.975 414.276 271.473C414.193 271.639 414.11 271.722 414.027 271.888C413.945 272.137 413.862 272.387 413.779 272.636C413.531 273.383 413.283 274.13 413.034 274.961C412.869 275.376 412.786 275.874 412.786 276.372C412.786 276.455 412.786 276.621 412.869 276.704C412.869 276.704 412.952 276.704 412.952 276.787C412.952 276.704 412.952 276.704 413.034 276.621C413.2 276.455 413.365 276.455 413.531 276.621C413.697 276.704 413.779 276.87 413.779 277.12C413.779 277.452 413.945 277.618 414.193 277.784C414.276 277.867 414.359 277.95 414.441 278.033C414.607 278.365 414.69 278.697 414.607 279.112C414.607 279.195 414.607 279.278 414.607 279.278C414.607 279.362 414.524 279.445 414.524 279.528C414.359 279.694 414.276 279.694 414.11 279.528C414.11 279.445 414.193 279.445 414.193 279.362C414.276 279.195 414.193 279.112 414.11 279.029C413.614 278.614 412.952 278.863 412.703 279.278C412.455 279.611 412.372 280.026 412.29 280.441C412.29 280.524 412.29 280.524 412.29 280.607C412.372 280.773 412.455 280.939 412.621 281.022C412.786 281.188 412.952 281.188 413.117 281.022C413.2 280.939 413.283 280.856 413.365 280.773C413.531 280.69 413.697 280.773 413.697 280.939C413.697 281.022 413.697 281.105 413.697 281.105C413.614 281.354 413.614 281.52 413.697 281.77C413.779 281.936 413.945 282.019 414.11 282.102C414.359 282.185 414.607 282.351 414.772 282.517C414.938 282.766 415.021 283.015 415.103 283.264C415.103 283.762 415.269 284.261 415.6 284.676C415.931 285.091 416.262 285.589 416.593 286.004C417.007 286.669 417.338 287.333 417.503 288.08C417.586 288.329 417.503 288.578 417.586 288.744C417.586 289.077 417.669 289.409 417.669 289.741C417.669 290.488 417.586 291.236 417.42 291.983C417.255 292.564 417.089 293.062 416.841 293.561C416.758 293.81 416.676 294.059 416.593 294.308C416.427 294.64 416.345 294.889 416.179 295.221C416.593 295.055 417.007 295.055 417.42 295.138C417.834 295.221 418.248 295.387 418.496 295.802C418.827 296.301 418.91 296.799 418.993 297.297C418.993 297.38 418.993 297.38 418.993 297.463C418.827 298.044 418.745 298.709 418.331 299.207C418.165 299.373 418 299.539 417.917 299.705C417.751 299.954 417.42 299.871 417.172 299.871C417.007 299.871 416.841 299.622 416.841 299.456C416.841 299.373 416.841 299.373 416.841 299.29C416.841 299.207 416.841 299.041 416.841 299.041C416.758 299.041 416.593 298.958 416.51 299.041C416.096 299.207 415.931 299.539 415.848 299.871C415.765 300.203 415.848 300.535 415.931 300.868C415.931 301.034 415.931 301.117 415.931 301.283C415.931 301.532 415.931 301.698 415.931 301.947C415.931 302.113 415.931 302.362 415.848 302.528C415.848 302.528 415.848 302.611 415.765 302.694C415.683 303.027 415.683 303.359 415.6 303.691C415.6 303.857 415.517 304.023 415.434 304.189C415.269 304.521 415.186 304.853 414.938 305.185C414.607 305.518 414.441 305.933 414.11 306.348C414.11 306.431 414.028 306.431 413.945 306.514C413.448 307.012 412.952 307.51 412.455 308.009C412.124 308.341 411.793 308.59 411.462 308.839C411.214 309.005 410.966 309.254 410.717 309.42C410.635 309.503 410.552 309.669 410.635 309.752C410.717 310.085 410.635 310.334 410.552 310.666C410.386 311.081 410.304 311.413 410.138 311.828C410.055 312.077 409.89 312.243 409.807 312.41C409.228 313.074 408.648 313.738 407.986 314.319C408.069 314.319 408.069 314.402 408.152 314.402C408.069 314.568 407.904 314.651 407.821 314.735C407.407 314.984 406.911 315.233 406.497 315.482C406.249 315.648 406 315.731 405.752 315.897C405.255 316.229 404.759 316.478 404.262 316.81C403.931 316.976 403.6 317.143 403.269 317.392C402.856 317.641 402.525 317.807 402.111 318.056C402.028 318.056 401.945 318.139 401.945 318.139C401.78 318.222 401.531 318.305 401.366 318.471C401.283 318.471 401.283 318.554 401.2 318.554C400.869 318.72 400.538 318.803 400.125 318.969C399.794 319.135 399.545 319.218 399.214 319.384C399.214 319.551 399.214 319.717 399.214 319.883C399.214 320.215 399.297 320.547 399.297 320.879C399.297 320.962 399.38 321.045 399.463 321.045C399.628 321.045 399.794 321.045 399.959 321.045C400.787 320.962 401.531 321.045 402.276 321.128H402.359C402.69 321.045 403.021 321.211 403.352 321.211H403.435C403.849 321.377 404.345 321.377 404.759 321.46C405.09 321.543 405.421 321.626 405.752 321.709C406 321.792 406.331 321.959 406.58 321.876C406.911 322.042 407.242 322.042 407.573 322.208C408.317 322.457 409.062 322.706 409.89 322.955C410.138 323.038 410.469 323.204 410.717 323.287C411.048 323.37 411.297 323.536 411.628 323.619C412.703 324.034 413.779 324.533 414.855 325.031C415.269 325.197 415.683 325.446 416.096 325.612C416.345 325.778 416.593 325.861 416.841 326.027C417.007 326.11 417.255 326.276 417.42 326.442C417.669 326.609 417.834 326.775 418.083 326.941C418.331 327.19 418.579 327.439 418.745 327.854C418.745 327.937 418.827 327.937 418.827 328.02C418.827 328.103 418.91 328.186 418.91 328.269C418.993 328.601 418.827 329.183 418.579 329.349C418.496 329.432 418.414 329.432 418.414 329.515C418.083 329.764 417.834 329.93 417.42 329.93C417.172 329.93 416.924 329.93 416.676 329.847C416.593 329.847 416.51 329.847 416.345 329.847C416.427 329.93 416.427 330.013 416.427 330.013C417.089 330.511 417.751 330.594 418.414 330.179C418.579 330.096 418.745 329.847 418.827 329.681C418.993 329.515 418.993 329.349 419.324 329.598C419.489 329.764 419.738 329.847 419.903 329.93C420.151 330.096 420.151 330.179 419.986 330.428C419.986 330.511 419.903 330.511 419.903 330.594C419.738 331.175 419.489 331.757 419.655 332.421C419.738 332.753 419.82 333.085 419.903 333.417C420.151 334.082 420.482 334.663 421.062 335.078C421.31 335.244 421.475 335.493 421.724 335.659C422.138 335.992 422.551 336.241 422.965 336.573C423.462 336.905 424.041 337.071 424.537 337.237C424.868 337.32 425.199 337.486 425.53 337.652C426.027 337.901 426.606 338.067 427.186 338.233C427.351 338.316 427.517 338.4 427.765 338.483C427.848 338.483 427.848 338.566 427.93 338.649C427.765 338.732 427.682 338.732 427.599 338.732C427.268 338.649 426.937 338.566 426.689 338.483C425.944 338.317 425.199 338.15 424.455 337.984C424.289 337.984 424.124 337.901 423.958 337.818C423.793 337.818 423.71 337.735 423.544 337.735C423.462 337.735 423.462 337.735 423.379 337.735C422.965 337.569 422.551 337.486 422.137 337.569C421.558 337.569 421.062 337.569 420.482 337.403C420.069 337.32 419.655 337.32 419.241 337.32C419.158 337.32 419.076 337.32 418.993 337.32C418.496 337.403 418 337.403 417.503 337.486C417.007 337.569 416.51 337.652 416.014 337.818C415.765 337.901 415.517 337.984 415.186 338.067C415.103 338.15 414.938 338.15 414.855 338.233C414.607 338.4 414.276 338.483 414.027 338.649C413.696 338.815 413.365 338.981 413.117 339.23C412.869 339.479 412.455 339.645 412.207 339.811C411.628 340.309 411.048 340.808 410.469 341.389C410.138 341.721 409.807 342.053 409.393 342.385C409.228 342.551 408.979 342.551 408.897 342.385C408.814 342.302 408.814 342.219 408.814 342.219C408.814 342.136 408.814 342.053 408.814 341.97C408.897 341.389 408.897 340.891 408.814 340.309C408.731 339.894 408.731 339.479 408.4 339.147C408.069 338.732 407.655 338.4 407.076 338.4C406.331 338.316 405.669 338.483 405.09 338.898C404.759 339.147 404.428 339.479 404.18 339.894C404.18 339.562 404.097 339.728 404.097 339.894C404.014 340.06 403.931 340.143 403.849 340.06C403.683 340.06 403.683 339.977 403.683 339.811C403.683 339.23 403.6 338.732 403.269 338.316C403.187 338.233 403.021 338.067 402.938 337.901C402.69 337.652 402.442 337.403 402.111 337.32C401.945 337.237 401.78 337.154 401.532 337.071C401.035 336.822 400.621 336.822 400.125 336.905C400.042 336.905 399.876 336.905 399.794 336.905C399.711 336.905 399.628 336.905 399.463 336.988C399.463 337.237 399.463 337.403 399.463 337.652C399.545 337.984 399.711 338.233 400.042 338.4C400.125 338.4 400.125 338.4 400.207 338.4C400.373 338.4 400.373 338.566 400.373 338.649C400.373 338.732 400.29 338.815 400.207 338.898C399.711 339.23 399.132 339.23 398.635 338.981C398.387 338.815 398.139 338.566 397.973 338.316C397.89 338.233 397.89 338.15 397.807 338.15C397.807 338.15 397.808 338.15 397.725 338.15C397.725 338.233 397.725 338.4 397.807 338.483C397.89 338.732 397.973 338.981 398.056 339.147C398.221 339.562 398.304 339.894 398.387 340.309C398.47 340.558 398.552 340.808 398.552 341.057C398.552 341.14 398.635 341.306 398.718 341.389C398.883 341.14 398.801 340.891 398.718 340.725C398.801 340.641 398.801 340.475 398.883 340.392C399.049 340.392 399.132 340.475 399.214 340.558C399.297 340.891 399.38 341.223 399.297 341.555C399.214 341.638 399.214 341.804 399.132 341.887C399.049 342.053 399.049 342.136 399.049 342.385C399.132 342.717 399.297 343.049 399.38 343.382C399.463 343.714 399.545 343.963 399.711 344.212C399.794 344.461 399.959 344.71 400.125 344.959C400.373 345.291 400.787 345.374 401.118 345.458C401.614 345.624 402.194 345.79 402.69 346.039C402.938 346.122 403.187 346.205 403.352 346.288C403.683 346.371 404.014 346.62 404.262 346.786C404.676 347.035 405.09 347.367 405.504 347.616C405.835 347.866 406.083 348.032 406.331 348.364L406.414 348.447C406.58 348.696 406.58 348.696 406.497 348.945C406.497 348.945 406.497 348.945 406.497 349.028C406.414 349.111 406.331 349.194 406.331 349.36C406.166 349.277 406 349.277 405.835 349.194C405.421 348.945 405.09 348.696 404.676 348.53C404.345 348.364 403.931 348.198 403.6 348.032C403.187 347.866 402.69 347.783 402.276 347.699C401.863 347.616 401.531 347.616 401.118 347.533C400.787 347.533 400.538 347.533 400.207 347.616C400.042 347.616 399.959 347.699 399.794 347.783C399.628 347.866 399.711 348.032 399.794 348.115C400.042 348.364 400.29 348.447 400.621 348.53C400.869 348.613 401.2 348.613 401.532 348.696C401.863 348.779 402.111 349.028 402.359 349.194C402.359 349.194 402.359 349.277 402.359 349.36H402.276C401.945 349.111 401.614 349.194 401.283 349.194C400.869 349.111 400.373 349.194 399.959 349.028C399.876 349.028 399.876 349.028 399.794 349.028C399.545 348.945 399.297 348.945 399.132 348.779C399.049 348.696 398.966 348.696 398.801 348.613C398.47 348.53 398.221 348.281 398.056 348.032C397.89 347.783 397.808 347.45 397.725 347.118C397.642 346.786 397.477 346.371 397.394 346.039C397.311 345.458 397.063 345.042 396.897 344.544C396.814 344.378 396.814 344.212 396.732 344.046C396.732 344.046 396.732 344.046 396.649 344.046C396.649 344.212 396.649 344.378 396.649 344.544C396.649 345.042 396.566 345.624 396.401 346.039C396.235 346.288 396.07 346.537 395.821 346.786C395.739 346.869 395.49 346.952 395.325 346.952C394.911 346.952 394.497 346.869 394.166 346.537C393.835 346.205 393.67 345.79 393.587 345.374C393.587 345.208 393.67 345.042 393.835 344.876C393.918 344.793 394.001 344.71 394.084 344.627C394.249 344.544 394.415 344.544 394.415 344.793C394.415 344.876 394.415 345.042 394.332 345.125C394.332 345.208 394.249 345.291 394.332 345.374C394.415 345.374 394.497 345.458 394.58 345.374C394.746 345.291 394.828 345.208 394.911 345.125C395.159 344.544 395.408 344.046 395.408 343.382C395.408 342.966 395.325 342.551 394.994 342.136C394.663 341.804 394.332 341.472 394.084 341.057C393.918 340.808 393.753 340.558 393.587 340.226C393.587 340.143 393.504 340.06 393.504 339.977C393.422 340.06 393.339 340.143 393.339 340.226C393.256 340.392 393.09 340.475 393.008 340.558C392.594 340.974 392.015 340.808 391.518 340.725C391.022 340.392 390.525 339.728 391.022 339.064C391.104 338.981 391.104 338.981 391.187 338.898C391.518 338.981 391.435 339.23 391.435 339.479C391.601 339.562 391.684 339.479 391.766 339.396C391.932 339.23 392.015 338.981 392.015 338.732C392.015 338.4 391.849 338.067 391.684 337.735C391.601 337.569 391.518 337.403 391.353 337.32C391.104 336.905 391.022 336.739 390.939 336.158C390.856 336.158 390.773 336.158 390.691 336.241C390.194 336.49 389.78 336.407 389.366 336.075C389.035 335.825 388.787 335.41 388.87 334.995C388.87 334.663 389.201 334.331 389.532 334.248C389.78 334.248 389.946 334.414 389.946 334.58C389.946 334.746 389.863 334.746 389.78 334.746H389.698C389.615 334.912 389.698 334.995 389.863 335.078C390.029 335.161 390.194 335.161 390.277 334.995C390.442 334.829 390.442 334.663 390.525 334.497C390.608 334.082 390.525 333.75 390.194 333.417C390.111 333.334 390.029 333.334 389.863 333.251C389.532 333.168 389.366 333.002 389.284 332.67C389.118 332.006 389.366 331.508 389.78 331.092C389.946 330.926 390.029 330.76 389.946 330.511C389.863 330.262 389.78 329.93 389.615 329.764C389.449 329.515 389.284 329.266 389.118 329.017C388.953 328.684 388.787 328.352 388.787 327.937C388.787 327.273 388.953 326.692 389.118 326.027C389.201 325.529 389.284 325.114 389.366 324.616C389.366 324.45 389.449 324.367 389.532 324.201C389.615 324.034 389.615 323.951 389.449 323.868C389.118 323.951 389.035 324.201 388.953 324.45C388.787 325.031 388.622 325.612 388.456 326.276C388.373 326.941 388.373 327.107 388.291 327.356C388.208 327.771 388.125 328.269 388.042 328.684C387.877 329.266 387.877 329.93 387.794 330.594C387.794 331.092 387.711 331.591 387.711 332.172C387.711 332.338 387.711 332.421 387.711 332.587C387.794 333.334 387.877 334.082 387.96 334.829C387.96 335.161 388.042 335.493 388.042 335.825C388.042 335.908 388.125 336.075 388.125 336.158C388.208 336.573 388.291 336.988 388.456 337.32C388.622 337.818 388.953 338.317 389.284 338.732C389.532 338.981 389.78 339.313 390.029 339.562C390.525 340.143 390.856 340.808 391.022 341.555C391.187 342.302 391.27 343.133 391.27 343.88C391.27 344.129 391.187 344.378 391.187 344.544C391.187 344.627 391.187 344.627 391.187 344.71C391.187 345.374 391.022 345.956 390.856 346.62C390.691 347.201 390.442 347.783 390.194 348.364C390.111 348.53 390.029 348.696 389.863 348.779C389.615 349.028 389.449 349.277 389.449 349.609C389.449 349.692 389.366 349.775 389.366 349.775C389.201 349.941 389.035 350.191 388.953 350.44C388.87 350.606 388.787 350.772 388.787 350.938C388.704 351.353 388.622 351.851 388.539 352.266C388.456 352.516 388.622 352.682 388.704 352.931C388.787 353.097 388.953 353.263 389.035 353.429C389.118 353.512 389.201 353.512 389.284 353.595C389.284 353.595 389.366 353.761 389.449 353.761C389.532 353.844 389.698 353.844 389.78 353.844C389.863 353.844 389.946 353.844 390.029 353.844C390.111 353.844 390.194 353.927 390.277 354.01C390.277 354.093 390.277 354.259 390.194 354.259C390.111 354.342 390.029 354.342 389.946 354.342C389.698 354.259 389.367 354.093 389.118 354.01C388.87 353.927 388.787 353.844 388.539 353.761C388.208 353.678 388.042 353.346 387.877 353.097C387.711 352.682 387.711 352.349 387.711 351.934C387.794 351.436 387.877 351.021 387.877 350.523C387.877 350.274 387.794 350.024 387.463 349.858C387.298 350.107 387.132 350.357 387.049 350.689C386.967 350.938 386.884 351.27 386.801 351.519C386.718 351.768 386.636 351.934 386.553 352.183C386.553 352.266 386.47 352.266 386.387 352.349C386.222 352.432 386.056 352.599 385.891 352.682C385.725 352.765 385.56 352.765 385.312 352.682C385.146 352.599 384.98 352.432 384.898 352.266C384.815 352.1 384.815 351.934 384.732 351.768C384.649 351.519 384.567 351.27 384.236 351.187C384.153 351.187 384.07 351.187 383.987 351.187C383.656 351.353 383.491 351.602 383.491 352.017C383.491 352.266 383.491 352.516 383.491 352.682C383.574 353.429 383.325 354.01 382.912 354.591C382.746 354.924 382.415 355.09 382.167 355.422C382.167 355.505 382.084 355.505 382.001 355.505C381.919 355.505 381.919 355.505 381.836 355.505C381.588 355.754 381.257 355.92 380.925 356.169C380.677 356.418 380.594 356.667 380.429 356.999C380.429 357.082 380.346 357.165 380.263 357.165C380.181 357.249 380.015 357.415 379.932 357.498C379.85 357.664 379.684 357.747 379.519 357.747C379.353 357.747 379.27 357.747 379.105 357.664C379.022 357.664 378.939 357.581 378.857 357.415C378.774 357.082 378.774 356.75 378.939 356.418C378.939 356.335 379.022 356.252 379.022 356.252C379.27 356.003 379.353 356.003 379.519 356.252C379.767 356.169 379.85 355.92 379.85 355.754C379.932 355.339 379.932 354.841 379.767 354.425C379.601 354.093 379.27 353.927 378.939 354.01C378.526 354.093 378.277 354.508 378.36 354.841C378.36 355.007 378.36 355.09 378.277 355.173C378.277 355.256 378.195 355.256 378.112 355.256C378.029 355.256 377.946 355.173 377.946 355.09C377.864 354.84 377.864 354.674 377.781 354.425C377.781 353.844 377.698 353.263 377.698 352.765C377.698 352.599 377.781 352.516 377.781 352.349C377.781 352.266 377.864 352.183 377.864 352.017C377.781 352.017 377.698 352.017 377.698 352.1C377.367 352.432 377.036 352.765 376.705 353.097C376.539 353.263 376.457 353.512 376.291 353.678C376.126 354.01 375.96 354.342 375.795 354.757C375.712 354.924 375.712 355.09 375.712 355.256C375.629 355.588 375.629 355.837 375.629 356.169C375.629 356.252 375.629 356.335 375.629 356.418C375.712 356.75 375.629 356.999 375.629 357.332C375.629 357.913 375.381 358.328 375.05 358.826C374.884 359.075 374.636 359.324 374.388 359.574C374.305 359.74 374.14 359.906 374.057 360.072C373.974 360.155 373.974 360.321 373.974 360.487C374.388 360.404 374.553 360.653 374.719 360.902C374.802 360.985 374.802 361.068 374.802 361.151C374.802 361.234 374.553 361.732 374.471 361.815C374.222 361.982 373.974 362.065 373.726 361.982C373.229 361.898 373.064 361.649 372.981 361.151C372.898 360.57 373.146 360.072 373.478 359.657C373.809 359.241 373.974 358.826 374.057 358.328C374.057 358.162 373.974 358.079 374.057 357.913C374.14 357.415 373.974 356.916 373.891 356.418C373.726 355.837 373.56 355.256 373.395 354.674C373.312 354.342 373.146 354.01 372.981 353.678C372.815 353.263 372.815 352.931 372.733 352.516C372.733 352.349 372.733 352.183 372.65 352.017C372.402 352.183 372.319 352.349 372.153 352.599C371.822 353.18 371.409 353.761 371.243 354.425C371.243 354.508 371.16 354.508 371.16 354.591C370.995 355.007 370.912 355.422 370.829 355.92C370.747 356.335 370.581 356.75 370.416 357.165C370.25 357.581 369.919 357.913 369.588 358.162C369.34 358.328 369.009 358.411 368.76 358.328C368.429 358.245 368.098 357.996 367.933 357.664C367.85 357.498 367.85 357.249 367.767 356.999C367.767 356.916 367.767 356.833 367.85 356.75C368.016 356.418 368.181 356.086 368.512 355.92C368.678 355.754 368.926 355.754 369.091 355.92C369.174 356.003 369.257 356.169 369.34 356.252C369.423 356.418 369.34 356.501 369.257 356.584C369.091 356.667 369.009 356.75 368.843 356.584C368.76 356.833 368.678 356.999 368.843 357.165C368.926 357.332 369.092 357.332 369.174 357.249C369.257 357.165 369.34 357.082 369.423 356.999C369.671 356.667 369.836 356.252 369.836 355.837C369.836 355.671 369.836 355.588 369.836 355.422C369.754 355.173 369.754 354.924 369.671 354.674C369.671 354.591 369.671 354.591 369.671 354.508C369.671 353.844 369.671 353.097 369.919 352.432C370.085 351.934 370.25 351.436 370.498 350.938C370.664 350.606 370.829 350.357 370.912 350.024C370.912 350.024 370.912 349.941 370.912 349.858C370.664 349.858 370.333 349.858 370.085 349.858C369.754 349.858 369.423 349.775 369.091 349.858C369.091 349.858 369.092 349.858 369.009 349.858C368.429 349.692 368.016 349.941 367.602 350.274C367.354 350.44 367.188 350.606 366.94 350.772C366.857 350.855 366.857 350.855 366.774 350.938C366.774 351.187 366.692 351.436 366.609 351.685C366.526 351.934 366.526 352.1 366.443 352.349C366.361 352.765 366.278 353.18 366.112 353.678C366.112 353.761 366.112 353.927 366.03 354.01C365.947 354.508 365.864 355.007 365.864 355.505C365.864 355.754 365.947 355.92 366.03 356.086C366.195 356.584 366.278 357.165 366.443 357.664C366.609 358.079 366.609 358.577 366.609 359.075C366.609 359.241 366.526 359.407 366.443 359.574C366.443 359.657 366.361 359.823 366.278 359.906C366.03 360.404 365.947 360.819 365.947 361.4C365.947 361.483 365.947 361.566 366.03 361.732C366.112 362.314 366.112 362.895 366.03 363.476C365.947 364.057 365.864 364.639 365.781 365.137C365.699 365.469 365.616 365.801 365.45 366.216C365.285 366.548 365.202 366.798 365.037 367.13C364.954 367.296 364.788 367.462 364.623 367.628C364.623 367.711 364.54 367.711 364.54 367.711C364.292 368.043 363.878 368.209 363.464 368.375C363.299 368.458 362.968 368.292 362.885 368.043C362.802 367.96 362.802 367.794 362.719 367.711C362.719 367.628 362.719 367.545 362.719 367.462C362.802 366.881 362.802 366.216 362.719 365.635C362.637 364.971 362.637 364.307 362.554 363.642C362.471 363.227 362.388 362.729 362.471 362.314C362.471 361.898 362.471 361.4 362.554 360.985C362.637 360.57 362.637 360.155 362.719 359.74C362.802 359.241 362.802 358.826 362.885 358.328C362.885 357.913 362.968 357.498 362.968 357.082C362.885 357.082 362.885 357.165 362.802 357.165C362.471 357.498 362.14 357.83 361.809 358.162C361.313 358.66 360.899 359.241 360.402 359.74C360.319 359.906 360.154 359.989 360.071 360.072C359.988 360.155 359.823 360.238 359.657 360.321C359.492 360.404 359.326 360.57 359.244 360.736C358.747 361.068 358.499 361.566 358.085 361.982C357.671 362.397 357.258 362.729 357.009 363.227C356.844 363.559 356.678 363.891 356.595 364.223C356.513 364.722 356.595 365.303 357.092 365.635C357.34 365.884 357.423 366.216 357.506 366.548C357.506 366.715 357.506 366.798 357.506 366.964C357.506 367.13 357.423 367.296 357.34 367.462C357.175 367.711 357.009 367.96 356.761 368.126C356.678 368.126 356.678 368.209 356.595 368.209C356.099 368.375 355.768 368.707 355.52 369.123C355.271 369.538 355.023 369.953 354.775 370.368C354.361 371.032 354.03 371.697 353.451 372.278C353.12 372.61 352.789 372.942 352.458 373.274C351.961 373.689 351.382 373.939 350.803 374.022C350.389 374.105 350.058 374.105 349.644 374.022C349.396 373.939 349.148 373.856 349.065 373.523C349.313 373.274 349.23 373.191 349.148 373.108ZM369.009 342.302C369.257 342.302 369.505 342.302 369.754 342.385C370.002 342.385 370.25 342.551 370.581 342.385C370.002 342.136 369.505 341.887 369.009 341.638C369.009 341.804 369.009 342.053 369.009 342.302Z" fill="#161616"/>
</svg>
