<svg width="670" height="670" viewBox="0 0 670 670" fill="none" xmlns="http://www.w3.org/2000/svg">
<path d="M92.3372 413.439V411.209C94.877 411.061 96.7819 410.763 98.0518 410.317C99.3964 409.871 100.293 408.98 100.741 407.642C101.189 406.304 101.413 404.297 101.413 401.621V346.323C101.413 343.572 101.189 341.566 100.741 340.302C100.293 338.964 99.3964 338.072 98.0518 337.626C96.7819 337.106 94.877 336.809 92.3372 336.734V334.505C94.0553 334.579 96.2216 334.653 98.8361 334.728C101.451 334.802 104.028 334.839 106.568 334.839C109.481 334.839 112.208 334.802 114.747 334.728C117.287 334.653 119.341 334.579 120.91 334.505V336.734C118.37 336.809 116.428 337.106 115.084 337.626C113.814 338.072 112.955 338.964 112.506 340.302C112.058 341.566 111.834 343.572 111.834 346.323V401.621C111.834 404.297 112.058 406.304 112.506 407.642C112.955 408.98 113.814 409.871 115.084 410.317C116.428 410.763 118.37 411.061 120.91 411.209V413.439C119.341 413.29 117.287 413.216 114.747 413.216C112.208 413.142 109.481 413.105 106.568 413.105C104.028 413.105 101.451 413.142 98.8361 413.216C96.2216 413.216 94.0553 413.29 92.3372 413.439ZM45.5 413.439V411.209C48.0398 411.061 49.9447 410.763 51.2146 410.317C52.5592 409.871 53.4556 408.98 53.9038 407.642C54.352 406.304 54.5761 404.297 54.5761 401.621V346.323C54.5761 343.572 54.352 341.566 53.9038 340.302C53.4556 338.964 52.5592 338.072 51.2146 337.626C49.9447 337.106 48.0398 336.809 45.5 336.734V334.505C47.0687 334.579 49.123 334.653 51.6628 334.728C54.2026 334.802 56.9292 334.839 59.8425 334.839C62.457 334.839 65.0342 334.802 67.574 334.728C70.1885 334.653 72.3548 334.579 74.0729 334.505V336.734C71.5331 336.809 69.5909 337.106 68.2463 337.626C66.9764 338.072 66.1173 338.964 65.6691 340.302C65.2209 341.566 64.9968 343.572 64.9968 346.323V401.621C64.9968 404.297 65.2209 406.304 65.6691 407.642C66.1173 408.98 66.9764 409.871 68.2463 410.317C69.5909 410.763 71.5331 411.061 74.0729 411.209V413.439C72.3548 413.29 70.1885 413.216 67.574 413.216C65.0342 413.142 62.457 413.105 59.8425 413.105C56.9292 413.105 54.2026 413.142 51.6628 413.216C49.123 413.216 47.0687 413.29 45.5 413.439ZM61.0751 374.864V372.634H105.335V374.864H61.0751Z" fill="#220400"/>
<path d="M161.79 333.947L189.131 404.074C190.251 406.898 191.521 408.794 192.94 409.76C194.36 410.652 195.667 411.135 196.862 411.209V413.439C195.368 413.29 193.538 413.216 191.372 413.216C189.205 413.142 187.039 413.105 184.873 413.105C181.959 413.105 179.233 413.142 176.693 413.216C174.153 413.216 172.099 413.29 170.53 413.439V411.209C174.34 411.061 176.768 410.429 177.814 409.314C178.859 408.125 178.635 405.635 177.141 401.844L156.3 346.434L158.093 344.985L138.596 395.378C137.401 398.351 136.691 400.878 136.467 402.959C136.243 404.966 136.429 406.564 137.027 407.753C137.699 408.942 138.783 409.797 140.277 410.317C141.845 410.838 143.787 411.135 146.103 411.209V413.439C144.012 413.29 141.808 413.216 139.492 413.216C137.251 413.142 135.16 413.105 133.217 413.105C131.35 413.105 129.744 413.142 128.399 413.216C127.129 413.216 125.934 413.29 124.814 413.439V411.209C126.308 410.838 127.839 409.983 129.408 408.645C130.976 407.233 132.396 404.854 133.666 401.51L159.997 333.947C160.296 333.947 160.595 333.947 160.894 333.947C161.193 333.947 161.491 333.947 161.79 333.947ZM175.46 381.33V383.56H142.069L143.19 381.33H175.46Z" fill="#220400"/>
<path d="M198.694 334.505C200.263 334.579 202.317 334.653 204.857 334.728C207.397 334.802 209.899 334.839 212.365 334.839C215.875 334.839 219.237 334.802 222.449 334.728C225.661 334.653 227.94 334.616 229.284 334.616C235.335 334.616 240.34 335.471 244.299 337.18C248.333 338.89 251.321 341.231 253.263 344.204C255.28 347.103 256.288 350.373 256.288 354.015C256.288 356.245 255.84 358.624 254.944 361.151C254.047 363.678 252.479 366.056 250.238 368.286C248.071 370.516 245.083 372.374 241.274 373.86C237.464 375.273 232.646 375.979 226.819 375.979H216.062V373.749H225.699C231.002 373.749 235.036 372.931 237.8 371.296C240.639 369.587 242.544 367.357 243.515 364.607C244.56 361.782 245.083 358.661 245.083 355.242C245.083 349.37 243.664 344.836 240.825 341.64C238.062 338.37 233.281 336.734 226.483 336.734C223.047 336.734 220.806 337.366 219.76 338.63C218.714 339.893 218.191 342.458 218.191 346.323V401.621C218.191 404.297 218.415 406.304 218.863 407.642C219.312 408.98 220.171 409.871 221.441 410.317C222.785 410.763 224.727 411.061 227.267 411.209V413.439C225.549 413.29 223.383 413.216 220.768 413.216C218.229 413.142 215.651 413.105 213.037 413.105C210.124 413.105 207.397 413.142 204.857 413.216C202.317 413.216 200.263 413.29 198.694 413.439V411.209C201.234 411.061 203.139 410.763 204.409 410.317C205.754 409.871 206.65 408.98 207.098 407.642C207.546 406.304 207.77 404.297 207.77 401.621V346.323C207.77 343.572 207.546 341.566 207.098 340.302C206.65 338.964 205.754 338.072 204.409 337.626C203.139 337.106 201.234 336.809 198.694 336.734V334.505ZM216.51 374.083C220.544 374.232 223.719 374.418 226.035 374.641C228.35 374.789 230.218 374.938 231.637 375.087C233.131 375.235 234.551 375.421 235.895 375.644C240.9 376.462 244.486 377.986 246.652 380.215C248.893 382.371 250.536 385.753 251.582 390.361L254.384 401.733C255.131 405.003 255.878 407.382 256.625 408.868C257.446 410.28 258.679 410.949 260.322 410.875C261.592 410.801 262.638 410.392 263.46 409.649C264.356 408.905 265.29 407.902 266.261 406.638L267.942 407.865C266.373 410.169 264.73 411.953 263.011 413.216C261.368 414.405 259.015 415 255.952 415C253.188 415 250.761 414.182 248.669 412.547C246.577 410.912 245.009 407.716 243.963 402.959L241.498 391.81C240.825 388.614 240.041 385.864 239.145 383.56C238.323 381.182 237.128 379.323 235.559 377.986C234.065 376.648 231.824 375.979 228.836 375.979H216.735L216.51 374.083Z" fill="#220400"/>
<path d="M359.536 334.505V336.734C356.996 336.809 355.054 337.106 353.71 337.626C352.44 338.072 351.581 338.964 351.132 340.302C350.684 341.566 350.46 343.572 350.46 346.323V401.621C350.46 404.297 350.684 406.304 351.132 407.642C351.581 408.98 352.44 409.871 353.71 410.317C355.054 410.763 356.996 411.061 359.536 411.209V413.439C357.818 413.29 355.652 413.216 353.037 413.216C350.497 413.142 347.92 413.105 345.306 413.105C342.392 413.105 339.666 413.142 337.126 413.216C334.586 413.216 332.532 413.29 330.963 413.439V411.209C333.503 411.061 335.408 410.763 336.678 410.317C338.022 409.871 338.919 408.98 339.367 407.642C339.815 406.304 340.039 404.297 340.039 401.621V340.302L340.488 340.637L313.035 413.997H311.242L283.006 341.64V400.506C283.006 403.182 283.23 405.3 283.678 406.861C284.201 408.348 285.172 409.426 286.591 410.094C288.085 410.689 290.289 411.061 293.202 411.209V413.439C291.858 413.29 290.102 413.216 287.936 413.216C285.769 413.142 283.715 413.105 281.773 413.105C279.905 413.105 278.001 413.142 276.058 413.216C274.191 413.216 272.622 413.29 271.352 413.439V411.209C273.892 411.061 275.797 410.689 277.067 410.094C278.411 409.426 279.308 408.348 279.756 406.861C280.204 405.3 280.428 403.182 280.428 400.506V346.323C280.428 343.572 280.204 341.566 279.756 340.302C279.308 338.964 278.411 338.072 277.067 337.626C275.797 337.106 273.892 336.809 271.352 336.734V334.505C272.622 334.579 274.191 334.653 276.058 334.728C278.001 334.802 279.905 334.839 281.773 334.839C283.416 334.839 285.097 334.802 286.815 334.728C288.608 334.653 290.102 334.579 291.297 334.505L316.733 401.175L314.828 402.067L340.039 334.839C340.936 334.839 341.795 334.839 342.617 334.839C343.513 334.839 344.409 334.839 345.306 334.839C347.92 334.839 350.497 334.802 353.037 334.728C355.652 334.653 357.818 334.579 359.536 334.505Z" fill="#220400"/>
<path d="M404.948 332.944C412.045 332.944 418.245 334.542 423.549 337.738C428.927 340.934 433.073 345.542 435.986 351.563C438.974 357.509 440.468 364.755 440.468 373.303C440.468 381.627 438.937 388.911 435.874 395.155C432.886 401.398 428.703 406.267 423.325 409.76C417.946 413.253 411.783 415 404.836 415C397.74 415 391.502 413.402 386.124 410.206C380.82 407.01 376.674 402.402 373.686 396.381C370.773 390.361 369.316 383.114 369.316 374.641C369.316 366.316 370.847 359.032 373.91 352.789C376.973 346.545 381.156 341.677 386.46 338.184C391.838 334.69 398.001 332.944 404.948 332.944ZM404.5 334.951C399.645 334.951 395.424 336.623 391.838 339.968C388.253 343.312 385.451 347.921 383.434 353.792C381.492 359.664 380.521 366.465 380.521 374.195C380.521 382.073 381.604 388.949 383.771 394.82C386.012 400.618 389 405.115 392.735 408.311C396.544 411.432 400.728 412.993 405.284 412.993C410.14 412.993 414.361 411.321 417.946 407.976C421.532 404.631 424.296 400.023 426.238 394.151C428.255 388.205 429.263 381.405 429.263 373.749C429.263 365.796 428.143 358.921 425.902 353.123C423.735 347.326 420.785 342.866 417.05 339.745C413.315 336.549 409.131 334.951 404.5 334.951Z" fill="#220400"/>
<path d="M520.629 334.505V336.734C518.089 336.809 516.147 337.18 514.803 337.849C513.533 338.518 512.674 339.596 512.225 341.082C511.777 342.569 511.553 344.687 511.553 347.437V413.997C511.105 413.997 510.657 413.997 510.209 413.997C509.835 413.997 509.424 413.997 508.976 413.997L461.915 341.64V400.506C461.915 403.182 462.139 405.3 462.587 406.861C463.11 408.348 464.081 409.426 465.5 410.094C466.994 410.689 469.198 411.061 472.111 411.209V413.439C470.767 413.29 469.011 413.216 466.845 413.216C464.679 413.142 462.624 413.105 460.682 413.105C458.815 413.105 456.91 413.142 454.968 413.216C453.1 413.216 451.531 413.29 450.261 413.439V411.209C452.801 411.061 454.706 410.689 455.976 410.094C457.321 409.426 458.217 408.348 458.665 406.861C459.113 405.3 459.338 403.182 459.338 400.506V346.323C459.338 343.572 459.113 341.566 458.665 340.302C458.217 338.964 457.321 338.072 455.976 337.626C454.706 337.106 452.801 336.809 450.261 336.734V334.505C451.531 334.579 453.1 334.653 454.968 334.728C456.91 334.802 458.815 334.839 460.682 334.839C462.326 334.839 463.894 334.802 465.388 334.728C466.882 334.653 468.227 334.579 469.422 334.505L508.976 395.155V347.437C508.976 344.687 508.715 342.569 508.192 341.082C507.743 339.596 506.772 338.518 505.278 337.849C503.859 337.18 501.693 336.809 498.779 336.734V334.505C500.124 334.579 501.879 334.653 504.046 334.728C506.287 334.802 508.341 334.839 510.209 334.839C512.151 334.839 514.056 334.802 515.923 334.728C517.865 334.653 519.434 334.579 520.629 334.505Z" fill="#220400"/>
<path d="M557.948 334.505V336.734C555.408 336.809 553.466 337.106 552.122 337.626C550.852 338.072 549.993 338.964 549.544 340.302C549.096 341.566 548.872 343.572 548.872 346.323V401.621C548.872 404.297 549.096 406.304 549.544 407.642C549.993 408.98 550.852 409.871 552.122 410.317C553.466 410.763 555.408 411.061 557.948 411.209V413.439C556.23 413.29 554.064 413.216 551.449 413.216C548.909 413.142 546.332 413.105 543.718 413.105C540.804 413.105 538.078 413.142 535.538 413.216C532.998 413.216 530.944 413.29 529.375 413.439V411.209C531.915 411.061 533.82 410.763 535.09 410.317C536.435 409.871 537.331 408.98 537.779 407.642C538.227 406.304 538.451 404.297 538.451 401.621V346.323C538.451 343.572 538.227 341.566 537.779 340.302C537.331 338.964 536.435 338.072 535.09 337.626C533.82 337.106 531.915 336.809 529.375 336.734V334.505C530.944 334.579 532.998 334.653 535.538 334.728C538.078 334.802 540.804 334.839 543.718 334.839C546.332 334.839 548.909 334.802 551.449 334.728C554.064 334.653 556.23 334.579 557.948 334.505Z" fill="#220400"/>
<path d="M623.259 334.505C622.96 337.106 622.736 339.633 622.587 342.086C622.512 344.539 622.475 346.397 622.475 347.66C622.475 348.998 622.512 350.299 622.587 351.563C622.661 352.752 622.736 353.755 622.811 354.573H620.234C619.785 350.187 619.15 346.731 618.329 344.204C617.507 341.603 616.088 339.782 614.071 338.741C612.129 337.626 609.178 337.069 605.219 337.069H595.919C593.379 337.069 591.437 337.292 590.092 337.738C588.822 338.109 587.963 338.964 587.515 340.302C587.067 341.566 586.842 343.572 586.842 346.323V401.621C586.842 404.297 587.067 406.304 587.515 407.642C587.963 408.98 588.822 409.871 590.092 410.317C591.437 410.689 593.379 410.875 595.919 410.875H604.098C608.804 410.875 612.353 410.243 614.743 408.98C617.208 407.716 618.964 405.672 620.009 402.848C621.13 399.949 621.952 396.047 622.475 391.141H625.052C624.828 393.148 624.716 395.824 624.716 399.169C624.716 400.581 624.753 402.625 624.828 405.3C624.977 407.902 625.201 410.615 625.5 413.439C621.69 413.29 617.395 413.216 612.614 413.216C607.833 413.142 603.575 413.105 599.84 413.105C598.197 413.105 596.068 413.105 593.453 413.105C590.914 413.105 588.15 413.142 585.162 413.216C582.174 413.216 579.148 413.253 576.086 413.328C573.023 413.328 570.11 413.365 567.346 413.439V411.209C569.885 411.061 571.79 410.763 573.06 410.317C574.405 409.871 575.301 408.98 575.749 407.642C576.198 406.304 576.422 404.297 576.422 401.621V346.323C576.422 343.572 576.198 341.566 575.749 340.302C575.301 338.964 574.405 338.072 573.06 337.626C571.79 337.106 569.885 336.809 567.346 336.734V334.505C570.11 334.579 573.023 334.653 576.086 334.728C579.148 334.728 582.174 334.765 585.162 334.839C588.15 334.839 590.914 334.839 593.453 334.839C596.068 334.839 598.197 334.839 599.84 334.839C603.277 334.839 607.161 334.839 611.494 334.839C615.901 334.765 619.823 334.653 623.259 334.505ZM603.986 372.634C603.986 372.634 603.986 373.006 603.986 373.749C603.986 374.492 603.986 374.864 603.986 374.864H583.481C583.481 374.864 583.481 374.492 583.481 373.749C583.481 373.006 583.481 372.634 583.481 372.634H603.986ZM607.236 357.917C606.937 362.154 606.787 365.387 606.787 367.617C606.862 369.847 606.9 371.891 606.9 373.749C606.9 375.607 606.937 377.651 607.012 379.881C607.086 382.111 607.273 385.344 607.572 389.58H604.995C604.696 387.202 604.322 384.898 603.874 382.668C603.501 380.364 602.604 378.506 601.185 377.094C599.84 375.607 597.525 374.864 594.238 374.864V372.634C596.703 372.634 598.57 372.151 599.84 371.185C601.185 370.144 602.156 368.843 602.754 367.283C603.351 365.722 603.762 364.124 603.986 362.488C604.21 360.779 604.434 359.255 604.659 357.917H607.236Z" fill="#220400"/>
<path d="M551.517 264.887C553.7 268.493 554.852 271.855 555.009 275.824C555.198 280.644 553.951 285.235 550.688 290.474C547.04 296.295 543.821 302.667 544.067 308.904C544.112 310.038 544.36 311.164 544.62 312.573C544.631 312.857 544.642 313.14 544.449 313.432C544.257 313.723 544.042 313.448 544.031 313.164C541.848 309.558 540.695 306.196 540.539 302.227C540.349 297.407 541.597 292.815 544.86 287.577C548.508 281.756 551.726 275.384 551.481 269.147C551.436 268.013 551.188 266.887 550.928 265.478C550.917 265.194 550.906 264.911 551.098 264.619C551.302 264.611 551.302 264.611 551.517 264.887ZM535.289 257.001C536.816 259.497 537.539 262.308 537.639 264.86C537.785 268.545 536.696 271.995 534.396 275.776C531.711 280.14 529.252 285.062 529.43 289.598C529.464 290.449 529.712 291.575 529.938 292.134C529.95 292.418 529.95 292.418 529.757 292.709C529.564 293.001 529.349 292.725 529.349 292.725C527.608 289.953 526.885 287.142 526.784 284.591C526.639 280.905 527.728 277.455 530.028 273.675C532.713 269.311 535.172 264.388 534.993 259.852C534.96 259.001 534.712 257.875 534.485 257.316L534.463 256.749C534.871 256.733 535.074 256.725 535.289 257.001ZM536.975 279.083C540.623 273.262 543.841 266.89 543.596 260.652C543.551 259.518 543.303 258.392 543.043 256.983C543.032 256.699 543.021 256.416 543.213 256.124C543.406 255.833 543.621 256.108 543.632 256.392C545.815 259.998 546.967 263.36 547.124 267.329C547.313 272.149 546.066 276.741 542.803 281.979C539.155 287.8 535.937 294.172 536.182 300.409C536.227 301.543 536.475 302.669 536.735 304.079C536.746 304.362 536.757 304.646 536.564 304.937C536.372 305.229 536.157 304.953 536.146 304.669C533.963 301.063 532.81 297.701 532.654 293.732C532.464 288.912 533.712 284.321 536.975 279.083Z" fill="#220400"/>
</svg>
